<?xml version="1.0" encoding="UTF-8"?>
<svg id="Camada_1" data-name="Camada 1" xmlns="http://www.w3.org/2000/svg" viewBox="0 0 200 200">
  <defs>
    <style>
      .cls-1 {
        opacity: .35;
      }

      .cls-2 {
        fill: #fff;
      }

      .cls-3 {
        opacity: .5;
      }

      .cls-4 {
        fill: #e30613;
      }

      .cls-5 {
        fill: #fdc431;
      }

      .cls-6 {
        fill: #3ea1da;
      }

      .cls-7 {
        fill: #2d3d7e;
      }

      .cls-8 {
        fill: #d56c15;
      }

      .cls-9 {
        fill: #371b45;
      }

      .cls-10 {
        fill: #20152b;
      }

      .cls-11 {
        fill: #0a9e39;
      }
    </style>
  </defs>
  <g>
    <path class="cls-2" d="m155.29,100.81v43.51c0,1.11-.12,2.19-.35,3.23-1.48,6.61-7.37,11.54-14.42,11.54h-19.92c-8.16,0-14.78-6.61-14.78-14.78v-43.51c0-8.16,6.62-14.78,14.78-14.78h19.92c5.38,0,10.08,2.87,12.67,7.16,1.34,2.22,2.11,4.83,2.11,7.62"/>
    <g class="cls-1">
      <path class="cls-9" d="m154.93,147.56c-1.48,6.61-7.37,11.54-14.42,11.54h-19.92c-8.16,0-14.78-6.61-14.78-14.78v-43.51c0-8.16,6.62-14.78,14.78-14.78h19.92c5.38,0,10.08,2.87,12.67,7.16-4.59-.86-10.43-.54-12.54,5.71,0,0,2.72,35.26,14.29,48.65"/>
    </g>
    <path class="cls-9" d="m137.74,100.4c.02-.21.05-.35.08-.51.03-.16.06-.31.1-.47.07-.31.16-.61.26-.91.2-.6.45-1.18.75-1.73.61-1.11,1.45-2.14,2.51-2.91,1.06-.76,2.33-1.22,3.57-1.36,1.25-.11,2.48.07,3.57.57.14.06.2.23.14.37-.04.09-.12.15-.22.16h0c-1.14.15-2.2.29-3.17.58-.48.15-.95.3-1.38.54-.43.23-.82.51-1.18.82-.71.64-1.27,1.44-1.69,2.34-.21.45-.39.91-.54,1.39-.07.24-.14.48-.2.72l-.08.36c-.02.11-.05.26-.06.32v.05c-.11.67-.74,1.14-1.42,1.03-.66-.1-1.11-.71-1.04-1.36"/>
    <path class="cls-9" d="m140.51,160.34h-19.92c-8.83,0-16.01-7.18-16.01-16.01v-43.51c0-8.83,7.18-16.01,16.01-16.01h19.92c8.83,0,16.01,7.18,16.01,16.01v43.51c0,8.83-7.18,16.01-16.01,16.01Zm-19.92-73.06c-7.47,0-13.54,6.07-13.54,13.54v43.51c0,7.47,6.07,13.54,13.54,13.54h19.92c7.47,0,13.54-6.07,13.54-13.54v-43.51c0-7.47-6.07-13.54-13.54-13.54h-19.92Z"/>
    <path class="cls-2" d="m108.63,89.94s-2.88,5.92-6.73,12.88c-3.64,6.57-8.14,14.08-11.88,18.39-7.71,8.88-13.69,5.35-13.69,5.35,0,0-38.16-15.5-42.06-23.16-1.93-3.79-1.04-6.1,1.29-7.31,2.37-1.24,6.24-1.31,10.14-.63,4.68.83,7.75.62,9.45.32,1.19-.21,2.41-.1,3.54.34l18.52,7.27c13.73-16.18,31.44-13.46,31.44-13.46"/>
    <g class="cls-1">
      <path class="cls-9" d="m101.9,102.82c-3.64,6.57-8.14,14.08-11.88,18.39-7.71,8.88-13.69,5.35-13.69,5.35,0,0-38.16-15.5-42.06-23.16-1.93-3.79-1.04-6.1,1.29-7.31-.14,1.33.32,2.72.98,3.96,1.17,2.2,3.01,3.98,5.21,5.17,6.86,3.73,27.57,14.92,32.28,16.68.06.02.11.04.17.06,3.44,1.26,7.27-.49,8.55-3.93,5.88-15.72,12.89-17.49,12.89-17.49l6.28,2.27Z"/>
    </g>
    <g class="cls-1">
      <path class="cls-9" d="m74.38,102.4s3.99,3.31,4.08,11.87c0,0,1.54-4.85-.27-12.01l-1,1.13-2.81-1Z"/>
    </g>
    <path class="cls-9" d="m65.58,123.18c-.52,0-1-.33-1.17-.85-.21-.65.14-1.35.79-1.56,8.82-2.87,7.52-18.38,7.51-18.53-.06-.68.44-1.28,1.12-1.34.68-.06,1.28.44,1.34,1.12.07.72,1.48,17.63-9.2,21.11-.13.04-.26.06-.38.06Z"/>
    <path class="cls-9" d="m79.51,128.5c-2,0-3.34-.62-3.71-.82-4.26-1.73-38.66-15.92-42.63-23.72-1.89-3.71-1.16-6.01-.22-7.28,1.93-2.61,6.78-3.52,12.96-2.42,4.45.79,7.36.61,9.02.32,1.43-.25,2.89-.11,4.2.41l17.71,6.95c7.18-8.13,15.33-11.3,20.97-12.54,6.29-1.38,10.83-.71,11.02-.68.39.06.72.3.91.65.18.35.19.76.02,1.11-.45.92-11.06,22.64-18.79,31.54-4.57,5.27-8.65,6.48-11.44,6.48Zm-38.48-32.23c-2.96,0-5.19.65-6.1,1.88-.77,1.04-.62,2.62.44,4.69,3.03,5.95,30.93,18.31,41.43,22.58.06.02.11.05.16.08.2.11,5.26,2.82,12.13-5.09,6.31-7.28,14.96-24.07,17.62-29.37-4.68-.16-17.93.63-28.57,13.17-.34.4-.9.54-1.39.35l-18.52-7.27c-.89-.35-1.88-.44-2.87-.27-1.85.32-5.07.52-9.87-.32-1.59-.28-3.1-.42-4.45-.42Z"/>
    <path class="cls-2" d="m144.72,120.94c-.29,7.5-1.94,12.96-4.3,16.91-.5.84-1.04,1.62-1.61,2.33-1.5,1.91-3.2,3.37-4.97,4.48-7.86,4.94-17.09,2.92-17.09,2.92-4.97,1.68-9.55,3.35-13.07,4.67l-.39.15c-3.38,1.27-5.71,2.19-6.37,2.45l-.19.08s0,0,0,0c1.72,3.92,2.54,7.67,2.92,10.53.23,1.71.18,3.44-.13,5.11-.4,2.16-1.25,4.23-2.53,6.05-.66.93-1.39,1.85-2.19,2.72-.17.19-.34.37-.52.56-2.77,2.87-6.2,5.21-9.75,6.17-2.78.75-5.63.66-8.29-.69-3.85-1.95-4.88-5.47-4.76-8.93.17-4.97,2.72-9.84,2.72-9.84-14.28-27.47,10.61-34.54,10.61-34.54.81-18.35,10.74-31.41,10.74-31.41,5.35-9.44,13.86-10.06,13.86-10.06,35.34-.82,35.31,30.32,35.31,30.32"/>
    <g class="cls-1">
      <path class="cls-9" d="m108.81,142.95s-3.64,3.78-5.12,9.31l-.39.15-6.37,2.45-.19.08s0,0,0,0c1.72,3.92,2.54,7.67,2.92,10.53.23,1.71.18,3.44-.13,5.11-.4,2.16-1.25,4.23-2.53,6.05-.66.93-1.39,1.85-2.19,2.72-.17.19-.34.37-.52.56-2.77,2.87-6.2,5.21-9.75,6.17-2.78.75-5.63.66-8.29-.69-3.85-1.95-4.88-5.47-4.76-8.93,2.06,2.69,5.49,5.59,10.48,4.98,4.51-.55,8.09-3.29,10.54-5.89,2.69-2.85,3.93-6.77,3.46-10.66-.55-4.59-2.11-11.29-6.35-17.48-.93-1.36.4-3.11,1.97-2.59,1.67.55,3.53,1.47,5.1,2.98,1.1,1.06,2.86,1.09,3.89-.03.02-.02.04-.04.05-.06,1.11-1.25.78-3.2-.64-4.08-1.61-1-3.95-3.09-5.3-7.25-.16-.48.46-.84.79-.46,1.84,2.05,5.77,5.24,13.33,7.02"/>
    </g>
    <path class="cls-9" d="m75.25,165.97s.07.07.11.11l.18.17c.12.11.26.22.4.33.28.21.59.41.92.59.65.35,1.37.63,2.12.84.75.23,1.54.33,2.34.44.4.02.82.07,1.22.07h.59c.1,0,.2.01.3,0l.3-.03c1.59-.12,3.2-.53,4.73-1.22.77-.33,1.52-.73,2.26-1.17.73-.44,1.46-.93,2.12-1.46h.01c.13-.11.32-.09.42.04.09.11.09.26,0,.37-.55.74-1.18,1.39-1.86,2-.68.61-1.4,1.18-2.19,1.67-.38.26-.8.47-1.2.7-.21.11-.42.2-.63.3-.21.1-.42.2-.65.28-.44.17-.88.34-1.34.46-.23.06-.46.14-.69.19l-.71.13c-.47.11-.96.12-1.44.17-.48.04-.95.01-1.42.02-.95-.05-1.91-.14-2.86-.39-.95-.25-1.89-.6-2.77-1.12-.44-.25-.86-.57-1.25-.9-.2-.18-.39-.36-.57-.56-.09-.1-.18-.21-.27-.32-.09-.13-.16-.21-.28-.42-.36-.58-.18-1.34.4-1.7.58-.36,1.34-.18,1.7.4"/>
    <path class="cls-9" d="m95.55,155.32c-.11-.33-.24-.72-.38-1.07-.14-.36-.28-.73-.43-1.1-.29-.73-.61-1.45-.95-2.16-.34-.71-.72-1.4-1.11-2.09-.39-.69-.82-1.35-1.28-2.02v-.02c-.13-.18-.08-.42.09-.54.13-.09.3-.08.43,0,.71.47,1.38,1.03,1.97,1.66.59.62,1.12,1.3,1.61,2,.49.7.93,1.43,1.33,2.19.2.38.39.76.56,1.15.18.4.34.77.5,1.22.22.64-.12,1.35-.76,1.57-.64.22-1.35-.12-1.57-.76v-.03Z"/>
    <path class="cls-9" d="m79.99,157.34c-1.43,0-2.71-.2-3.81-.48-4.46-1.16-6.99-3.98-7.1-4.1-.35-.39-.31-1,.08-1.35.39-.35,1-.31,1.34.08h0c.37.41,9.14,9.92,22.97-2.07.4-.35,1-.3,1.35.1.35.4.3,1-.1,1.35-5.8,5.03-10.85,6.48-14.74,6.48Z"/>
    <path class="cls-9" d="m95.77,100.85c-1.34,2.44-2.58,4.92-3.72,7.44-.27.64-.57,1.26-.84,1.9l-.79,1.91-.71,1.94c-.12.32-.23.65-.33.98l-.32.98-.32.98-.28.99c-.18.66-.38,1.32-.55,1.99-.3,1.34-.67,2.67-.88,4.02-.54,2.69-.8,5.43-.98,8.16h0c-.03.54-.41.98-.9,1.13-.34.1-.76.25-1.13.4-.39.15-.77.31-1.15.49-.76.34-1.51.73-2.23,1.16-1.45.85-2.81,1.83-4.02,2.97-2.43,2.26-4.23,5.13-5.02,8.32-.4,1.59-.55,3.25-.54,4.91.05.83.06,1.66.2,2.5l.08.62c.02.21.05.42.1.62l.26,1.24c.73,3.3,2.06,6.49,3.64,9.55.19.37.18.79,0,1.14v.02c-.29.56-.58,1.21-.83,1.83-.25.63-.49,1.27-.7,1.92-.41,1.29-.74,2.61-.92,3.93-.19,1.32-.2,2.63-.02,3.88.21,1.24.63,2.41,1.35,3.36.34.49.79.9,1.24,1.29.26.17.49.36.76.52.28.14.53.32.82.44,1.13.55,2.36.84,3.62.9,2.53.12,5.12-.73,7.42-2.06,2.32-1.33,4.41-3.13,6.19-5.17.88-1.02,1.73-2.12,2.37-3.23.64-1.13,1.13-2.35,1.45-3.62.31-1.27.46-2.58.43-3.89,0-.33-.03-.65-.05-.98-.04-.33-.06-.64-.12-.99-.1-.68-.21-1.36-.34-2.03-.53-2.7-1.34-5.34-2.44-7.85h0c-.28-.65.01-1.4.66-1.69.01,0,.03-.01.04-.02,1.67-.66,3.33-1.3,5-1.94,1.67-.63,3.34-1.26,5.01-1.87,3.35-1.23,6.71-2.42,10.09-3.57.22-.08.45-.09.66-.04h.03c.19.04.44.09.67.12.23.04.47.07.71.09.48.06.96.1,1.44.12.96.05,1.93.06,2.9,0,1.93-.1,3.84-.42,5.67-.96,3.67-1.08,6.94-3.26,9.3-6.23,1.18-1.49,2.13-3.17,2.91-4.93l.55-1.34c.17-.45.31-.92.46-1.38l.23-.69c.07-.23.12-.47.18-.71l.36-1.42c.11-.48.18-.96.28-1.44.08-.48.2-.96.25-1.45l.18-1.47c.06-.49.13-.98.15-1.47l.1-1.47.05-.73s0-.07,0-.08v-.06s0-.17,0-.17l-.02-.35c-.05-.96-.16-1.93-.31-2.89-.61-3.86-1.83-7.64-3.73-11.03-.95-1.69-2.07-3.29-3.34-4.74-.33-.35-.64-.73-.98-1.07l-1.04-1.01c-.36-.33-.74-.62-1.1-.94-.36-.32-.76-.6-1.15-.88-.77-.59-1.61-1.07-2.43-1.59-.42-.24-.86-.45-1.29-.68l-.65-.34-.67-.29-1.34-.57-1.38-.48c-.91-.35-1.87-.55-2.81-.82-3.81-.94-7.78-1.23-11.75-1.16h-.01c-.68.01-1.25-.53-1.26-1.21-.01-.68.53-1.24,1.21-1.26,4.13-.08,8.31.2,12.39,1.2,1.01.28,2.04.5,3.02.87l1.49.51,1.46.62.73.31.7.36c.47.25.94.47,1.4.73.9.56,1.82,1.08,2.66,1.73.43.31.87.61,1.26.96.4.34.82.67,1.21,1.03l1.15,1.1c.38.37.72.78,1.08,1.17,1.4,1.59,2.62,3.33,3.66,5.17,2.07,3.69,3.38,7.74,4.05,11.88.16,1.04.28,2.08.34,3.15l.02.41v.21s0,.13,0,.13c0,.06,0,.07,0,.11l-.05.78-.1,1.57c-.02.52-.09,1.04-.15,1.56l-.19,1.55c-.06.52-.18,1.03-.26,1.54-.1.51-.18,1.03-.3,1.54l-.39,1.53c-.07.25-.12.51-.2.76l-.25.75c-.17.5-.32,1.01-.5,1.5l-.6,1.47c-.86,1.94-1.93,3.81-3.27,5.5-1.34,1.68-2.96,3.17-4.76,4.37-1.8,1.2-3.78,2.12-5.83,2.72-2.05.61-4.17.96-6.29,1.07-1.06.06-2.12.04-3.18-.01-.53-.03-1.06-.07-1.59-.14-.26-.03-.53-.07-.8-.11-.27-.04-.52-.08-.83-.15l.69-.04c-3.36,1.14-6.7,2.32-10.03,3.54-1.67.61-3.33,1.23-4.99,1.86-1.66.63-3.32,1.27-4.95,1.92l.7-1.7c1.18,2.7,2.04,5.52,2.6,8.39.14.72.26,1.44.36,2.17.05.35.09.75.13,1.13.02.38.06.76.06,1.15.04,1.53-.14,3.07-.51,4.56-.37,1.49-.95,2.93-1.71,4.27-.79,1.35-1.69,2.51-2.66,3.63-1.95,2.23-4.23,4.2-6.84,5.7-1.3.75-2.7,1.37-4.18,1.81-1.48.42-3.04.66-4.62.58-1.58-.07-3.16-.46-4.59-1.15-.36-.15-.7-.38-1.05-.57-.35-.2-.67-.46-1-.69-.62-.53-1.23-1.09-1.71-1.77-1.01-1.32-1.56-2.91-1.81-4.46-.23-1.56-.2-3.12.01-4.61.2-1.5.57-2.95,1.02-4.36.23-.71.48-1.4.76-2.09.28-.69.57-1.35.93-2.06v1.16c-1.65-3.2-3.06-6.57-3.85-10.15l-.28-1.35c-.05-.22-.08-.45-.11-.68l-.09-.69c-.15-.91-.17-1.84-.22-2.77-.01-1.86.17-3.74.62-5.56.45-1.83,1.21-3.58,2.19-5.19.98-1.61,2.19-3.06,3.55-4.33,1.36-1.28,2.87-2.36,4.47-3.29.8-.47,1.62-.89,2.46-1.27.42-.19.84-.37,1.28-.54.44-.17.85-.32,1.36-.47l-.9,1.13c.2-2.86.46-5.72,1.08-8.51.25-1.41.64-2.79,1-4.17.19-.69.43-1.36.64-2.04l.33-1.02.37-1c.97-2.68,2.14-5.28,3.49-7.78,1.36-2.49,2.91-4.89,4.85-7,.11-.12.29-.12.4-.02.1.09.12.23.06.35h0Z"/>
    <path class="cls-2" d="m140.42,137.86c-.13,1.56-.36,3.01-.66,4.36-2.29,10.06-8.88,14.4-10.4,18.15-.95,2.34-.85,6.97-.58,10.67.34,4.48-1.07,8.93-3.98,12.35-2.46,2.89-5.91,5.97-10.4,7.71-10.06,3.9-19.58,1.81-20.29-7.71-.09-1.23-.03-2.4.16-3.49.1-.59.23-1.15.39-1.69h0c1.01-3.4,3.12-5.98,4.84-7.63,1.46-1.41,2.65-2.14,2.65-2.14-.58-6.47.13-11.81,1.52-16.18,4.26-13.4,14.98-17.72,14.98-17.72l13.19,2.01,5.67.87,2.9.44Z"/>
    <g class="cls-1">
      <path class="cls-9" d="m129.36,160.37c-.95,2.34-.85,6.97-.58,10.67.34,4.48-1.07,8.93-3.98,12.35-2.46,2.89-5.91,5.97-10.4,7.71-10.06,3.9-19.58,1.81-20.29-7.71-.09-1.23.37-4.09.55-5.18h0s0,.44.12,1.14c.46,2.77,2.65,9.57,13.08,8.85,7.18-.5,11.57-5.06,14.06-9.06,1.8-2.89,2.55-6.33,2.19-9.72-.46-4.26-.31-11.41,4.7-16.15,7.52-7.13,6.85-6.85,6.85-6.85,0,0-.89-.56-1.82-1.75-1.24-1.57-2.55-4.23-2-8.12.1-.73.27-1.51.52-2.33.14-.48.13-.99-.03-1.46-1.15-3.35-6.01-17.04-11.1-24.69-.34-.51.32-1.09.79-.69,3.7,3.23,10.1,10.8,13.86,26.52l1.63,3.51,1.29,2.78.94,2.03c-2.29,10.06-8.88,14.4-10.4,18.15"/>
    </g>
    <g class="cls-1">
      <path class="cls-9" d="m108.47,142.95s-8.68-2.22-13-7.17c-.47-.54.11-1.34.76-1.06,2.15.92,5.57,2.35,8.77,3.49,1.17.42,2.47.14,3.36-.73,1.8-1.75,5.37-4.61,10.29-5.63.81-.17,1.26.9.58,1.37-3.06,2.14-8.06,5.95-10.76,9.71"/>
    </g>
    <path class="cls-9" d="m103.36,168.11c.05.12.12.3.19.46.07.16.14.33.22.49.15.32.3.65.48.96.34.62.72,1.22,1.15,1.75.86,1.06,1.89,1.9,3.11,2.25.29.11.65.16.99.23.17.03.35.04.52.07.17.02.35.04.53.04.71.06,1.43,0,2.15-.08.72-.09,1.45-.25,2.17-.46.72-.2,1.45-.48,2.12-.78l.04-.02c.23-.1.51,0,.61.23.08.19.03.4-.11.53-.64.58-1.33,1.03-2.07,1.43-.74.39-1.52.73-2.35.96-.2.07-.41.12-.62.16-.21.05-.42.1-.63.13l-.64.1-.65.05c-.22.02-.44.02-.66.01-.22,0-.44,0-.66-.02-.44-.05-.87-.06-1.34-.19-.93-.18-1.81-.6-2.59-1.11-.79-.52-1.43-1.17-2.01-1.86-.58-.69-1.02-1.45-1.41-2.23-.1-.19-.19-.39-.27-.59-.09-.2-.17-.4-.24-.6-.08-.2-.14-.41-.21-.62-.06-.22-.12-.41-.18-.67-.16-.66.25-1.33.91-1.49.61-.15,1.22.19,1.44.76l.03.08Z"/>
    <path class="cls-9" d="m108.22,144.16c-.38-.09-.69-.18-1.03-.28-.33-.1-.65-.21-.98-.32-.65-.22-1.28-.48-1.9-.74-1.25-.54-2.46-1.17-3.61-1.88-.29-.18-.58-.36-.86-.55l-.83-.58c-.28-.19-.53-.42-.8-.63-.26-.21-.53-.42-.77-.66-.25-.23-.5-.46-.74-.69-.23-.24-.46-.5-.69-.75l-.34-.37-.31-.4c-.2-.27-.41-.54-.6-.81-.1-.14-.07-.34.07-.44.12-.09.28-.08.39.02h.02c.98.87,1.96,1.69,3.03,2.39,1.06.7,2.16,1.35,3.31,1.89,1.15.54,2.33,1.02,3.52,1.43.6.2,1.21.38,1.81.55.3.08.61.16.91.23.3.07.62.14.88.19h.03c.67.13,1.11.78.99,1.45-.13.67-.77,1.11-1.44.99-.02,0-.04,0-.06-.01"/>
    <path class="cls-9" d="m129.36,161.7c-.44,0-.88-.22-1.13-.62-3.44-5.48-8.44-8.67-14.85-9.48-4.87-.61-8.79.44-8.83.45-.71.2-1.44-.22-1.64-.93-.2-.71.22-1.44.92-1.64.18-.05,4.39-1.2,9.77-.54,5.01.61,12.01,2.97,16.88,10.72.39.62.2,1.44-.42,1.83-.22.14-.46.2-.71.2Z"/>
    <path class="cls-9" d="m118.78,134.83c-1.37.89-2.68,1.92-3.9,3-1.22,1.08-2.35,2.24-3.41,3.46-1.05,1.22-2.02,2.5-2.89,3.84-.87,1.35-1.61,2.77-2.25,4.23-.65,1.46-1.18,2.98-1.59,4.53-.44,1.54-.74,3.13-.97,4.72-.45,3.2-.53,6.46-.38,9.73v.1c0,.44-.23.83-.58,1.06-.17.11-.4.27-.6.42-.21.15-.41.31-.61.47-.4.33-.79.67-1.17,1.03-.75.72-1.45,1.49-2.08,2.32-1.25,1.65-2.19,3.5-2.67,5.47-.24.98-.37,1.99-.37,3,0,1.01.08,2.03.32,2.99.23.96.6,1.86,1.12,2.66.51.8,1.18,1.49,1.96,2.05,1.56,1.12,3.55,1.66,5.59,1.79,2.05.13,4.15-.13,6.2-.64,1.03-.25,2.04-.57,3.03-.94.99-.37,1.94-.79,2.86-1.29,1.84-1,3.54-2.27,5.09-3.72.77-.72,1.51-1.5,2.2-2.3.68-.79,1.28-1.61,1.79-2.5,1.03-1.77,1.7-3.75,1.97-5.79.14-1.02.18-2.05.12-3.07,0-.25-.03-.53-.05-.81l-.05-.84c-.03-.56-.06-1.12-.08-1.69-.03-1.13-.04-2.26.01-3.41.05-1.15.16-2.31.43-3.51.14-.6.34-1.24.66-1.85.31-.59.67-1.1,1.04-1.57.74-.94,1.51-1.75,2.24-2.56,1.47-1.61,2.8-3.25,3.83-5.07,1.05-1.81,1.81-3.77,2.28-5.82.49-2.04.67-4.17.68-6.3v-.02c0-.68.56-1.23,1.24-1.23.68,0,1.23.56,1.23,1.24-.02,2.29-.21,4.6-.75,6.86-.52,2.26-1.38,4.47-2.54,6.49-1.16,2.03-2.64,3.84-4.14,5.49-.75.83-1.5,1.63-2.13,2.43-.31.4-.6.8-.8,1.19-.2.37-.33.79-.45,1.27-.22.95-.32,2-.37,3.06-.05,1.06-.04,2.14-.01,3.22.02.54.04,1.08.07,1.63l.05.81c.02.27.04.54.05.84.07,1.18.02,2.37-.14,3.54-.32,2.35-1.09,4.63-2.28,6.69-.59,1.03-1.3,2-2.06,2.88-.75.87-1.54,1.7-2.38,2.49-1.68,1.57-3.55,2.97-5.6,4.09-1.02.56-2.1,1.04-3.18,1.44-1.08.4-2.18.74-3.3,1.02-2.24.55-4.58.86-6.95.71-1.18-.08-2.38-.27-3.54-.63-1.16-.36-2.3-.89-3.32-1.62-1.02-.73-1.92-1.66-2.6-2.72-.68-1.06-1.15-2.23-1.44-3.42-.29-1.19-.39-2.39-.39-3.59,0-1.2.16-2.4.44-3.57.57-2.34,1.68-4.5,3.1-6.37.71-.94,1.5-1.81,2.34-2.62.42-.4.86-.79,1.32-1.16.23-.18.46-.37.7-.54.25-.18.47-.34.76-.53l-.58,1.16c-.45-3.4-.49-6.89-.07-10.34.22-1.73.56-3.44,1.03-5.13.48-1.68,1.08-3.33,1.82-4.92,1.5-3.17,3.49-6.12,6.01-8.55,1.25-1.22,2.64-2.29,4.11-3.21.74-.45,1.5-.88,2.28-1.24.79-.37,1.58-.68,2.44-.91.17-.04.34.06.38.22.04.13-.02.27-.13.34h-.02Z"/>
    <path class="cls-2" d="m89.79,130.8l24.12,3.59c2.85.43,5.54-1.56,5.97-4.42l1.91-12.83c.37-2.5-1.11-4.87-3.4-5.71-.32-.12-.67-.21-1.02-.26l-24.11-3.59c-2.86-.43-5.54,1.56-5.97,4.42l-1.51,10.16-.4,2.67c-.43,2.86,1.57,5.54,4.42,5.97"/>
    <g class="cls-1">
      <path class="cls-9" d="m89.79,130.8l24.12,3.59c2.85.43,5.54-1.56,5.97-4.42l1.91-12.83c.37-2.5-1.11-4.87-3.4-5.71-1.5.71-2.46,1.16-2.46,1.16-2.71,10.13-3.39,17.83-19.22,14.39-5.46-1.19-8.91-3.35-10.94-4.81l-.4,2.67c-.43,2.86,1.57,5.54,4.42,5.97"/>
    </g>
    <path class="cls-9" d="m114.68,135.63c-.31,0-.63-.02-.95-.07h0l-24.11-3.59c-3.5-.52-5.93-3.8-5.41-7.3l1.91-12.83c.52-3.5,3.8-5.93,7.3-5.41l24.11,3.59c1.69.25,3.19,1.15,4.21,2.53,1.02,1.38,1.45,3.08,1.2,4.77l-1.91,12.83c-.47,3.19-3.22,5.48-6.35,5.48Zm-.6-2.4c2.22.33,4.3-1.21,4.63-3.43l1.91-12.83c.16-1.07-.11-2.14-.76-3.02s-1.6-1.45-2.67-1.61l-24.11-3.59c-2.22-.33-4.3,1.21-4.63,3.43l-1.91,12.84c-.33,2.22,1.21,4.3,3.43,4.63l24.11,3.59Z"/>
    <path class="cls-2" d="m88.84,130.57c.3.11.62.19.95.24l24.12,3.59c2.09.31,4.09-.67,5.18-2.35.4-.61.67-1.31.78-2.07l.85-5.7.28-1.88.78-5.25c.43-2.86-1.57-5.54-4.42-5.97l-5.21-.77c2.33.81,3.85,3.2,3.47,5.73l-1.03,6.93-.88,5.9c-.43,2.85-3.11,4.85-5.97,4.42l-18.91-2.82Z"/>
    <g class="cls-1">
      <path class="cls-9" d="m88.84,130.57c.3.11.62.19.95.24l24.12,3.59c2.85.43,5.54-1.56,5.96-4.42l1.13-7.58c-.81,1.25-2.14,2.73-3.91,2.64-.97-.05-1.81-.87-2.5-1.98l-.88,5.9c-.43,2.85-3.11,4.85-5.97,4.42l-18.91-2.82Z"/>
    </g>
    <path class="cls-9" d="m114.69,135.63c-.32,0-.64-.02-.95-.07l-24.11-3.59c-.4-.06-.79-.16-1.18-.29-.57-.2-.89-.81-.74-1.39.15-.59.72-.96,1.31-.88l18.91,2.82c1.07.16,2.14-.11,3.02-.76.88-.65,1.45-1.6,1.61-2.67l1.91-12.84c.29-1.93-.85-3.8-2.69-4.45-.57-.2-.9-.8-.76-1.39.14-.59.71-.97,1.31-.88l5.21.77c3.51.52,5.93,3.8,5.41,7.3l-1.91,12.83c-.25,1.69-1.15,3.19-2.53,4.21-1.12.83-2.45,1.27-3.81,1.27Zm-1.95-2.6l1.34.2c1.07.16,2.14-.11,3.02-.76.88-.65,1.45-1.6,1.61-2.67,0,0,0,0,0,0l1.91-12.83c.33-2.22-1.21-4.3-3.43-4.63l-1.19-.18c.7,1.22,1,2.67.78,4.14l-1.91,12.84c-.23,1.52-.98,2.89-2.14,3.89Z"/>
    <path class="cls-6" d="m105.15,121.24c-.07.47.05,4.4.05,4.4,0,0,1.21.17,2.71.39,1.86.27,3.65-1.45,3.99-3.83.34-2.38-.89-4.53-2.76-4.79-1.26-.18-2.71-.39-2.71-.39,0,0-1.17,3.44-1.28,4.21"/>
    <path class="cls-4" d="m105.15,121.24c-.07.47.05,4.4.05,4.4,0,0,1.21.17,2.71.39,1.86.27,3.65-1.45,3.99-3.83.34-2.38-.89-4.53-2.76-4.79-1.26-.18-2.71-.39-2.71-.39,0,0-1.17,3.44-1.28,4.21"/>
    <path class="cls-9" d="m108.29,126.87c-.17,0-.34-.01-.51-.04l-2.71-.39c-.39-.06-.69-.39-.7-.78-.04-1.2-.11-4.05-.04-4.55h0c.12-.81,1.12-3.77,1.32-4.36.13-.37.5-.6.89-.55l2.71.39c2.31.33,3.85,2.89,3.45,5.72-.19,1.33-.78,2.53-1.67,3.38-.8.77-1.76,1.18-2.74,1.18Zm-2.3-1.94l2.03.29c.65.09,1.32-.16,1.88-.7.62-.6,1.04-1.46,1.18-2.43.28-1.93-.65-3.66-2.06-3.87l-2.03-.29c-.43,1.3-.97,2.98-1.03,3.42-.03.27,0,1.93.04,3.58Zm-.04-3.58h0Z"/>
    <path class="cls-4" d="m102.44,120.85c-.34,2.38.89,4.52,2.76,4.79,1.86.27,3.65-1.45,3.99-3.83.34-2.38-.89-4.53-2.76-4.79-1.86-.27-3.65,1.45-3.99,3.83"/>
    <g class="cls-1">
      <path class="cls-9" d="m109.19,121.81c-.34,2.38-2.13,4.09-3.99,3.83-1.87-.27-3.1-2.41-2.76-4.79.04-.32.12-.63.22-.93.25,1.7,1.31,3.04,2.76,3.25,1.61.23,3.16-1.02,3.77-2.9.07.49.07,1.01,0,1.54"/>
    </g>
    <path class="cls-2" d="m109.19,121.81c-.02.16-.05.32-.09.48-.1-1.92-1.23-3.49-2.8-3.71-1.74-.25-3.41,1.22-3.9,3.35-.02-.35,0-.72.05-1.09.34-2.38,2.13-4.09,3.99-3.83,1.86.27,3.1,2.41,2.76,4.79"/>
    <path class="cls-9" d="m105.57,126.48c-.16,0-.33-.01-.49-.04-1.16-.17-2.15-.88-2.8-2-.61-1.06-.84-2.38-.65-3.71h0c.19-1.33.78-2.53,1.67-3.38.94-.9,2.09-1.31,3.25-1.14,2.31.33,3.85,2.89,3.45,5.72-.37,2.62-2.3,4.55-4.42,4.56Zm.47-8.67c-.56,0-1.13.25-1.62.72-.62.6-1.04,1.46-1.18,2.43h0c-.14.97.02,1.92.45,2.67.39.68.97,1.11,1.61,1.2,1.41.2,2.79-1.2,3.07-3.13.28-1.93-.65-3.66-2.06-3.87-.09-.01-.18-.02-.27-.02Zm-3.61,3.04h0,0Z"/>
    <path class="cls-9" d="m97.3,132.65s-.07,0-.1,0c-.45-.06-.77-.46-.71-.91l1.06-8.5-3.41-2.93c-.21-.18-.32-.46-.28-.74l1.69-11.63c.06-.45.48-.76.93-.69.45.06.76.48.69.93l-1.63,11.18,3.4,2.92c.21.18.31.45.28.72l-1.11,8.93c-.05.41-.4.72-.81.72Z"/>
    <path class="cls-2" d="m138.01,129.24c-9.09,0-16.88-1.61-17.29-1.7-2.16-.46-3.55-2.58-3.1-4.74.46-2.16,2.58-3.55,4.74-3.1.11.02,11.33,2.33,21.73,1.22,2.2-.24,4.17,1.36,4.41,3.56.23,2.2-1.36,4.17-3.56,4.41-2.33.25-4.68.35-6.94.35"/>
    <g class="cls-1">
      <path class="cls-9" d="m148.15,123.19c-.58,1.22-1.75,2.11-3.19,2.27-2.33.25-4.68.35-6.94.35-9.09,0-16.88-1.61-17.29-1.7-1.27-.27-2.27-1.11-2.79-2.2-.13.28-.24.58-.31.89-.45,2.16.93,4.29,3.1,4.74.41.09,8.2,1.7,17.29,1.7,2.26,0,4.61-.1,6.94-.35,2.2-.23,3.79-2.21,3.56-4.41-.05-.46-.18-.9-.37-1.29"/>
    </g>
    <path class="cls-9" d="m138.01,130.47c-9.25,0-17.21-1.65-17.54-1.72-2.83-.59-4.64-3.38-4.05-6.21.6-2.83,3.38-4.65,6.21-4.05.11.02,11.17,2.29,21.35,1.2,1.39-.15,2.75.25,3.84,1.13,1.09.88,1.78,2.13,1.92,3.53.31,2.87-1.78,5.46-4.66,5.77-2.21.24-4.59.36-7.08.36Zm-16.46-9.62c-1.28,0-2.44.9-2.71,2.2-.31,1.49.65,2.97,2.14,3.28.32.07,8.03,1.67,17.03,1.67,2.39,0,4.69-.12,6.81-.34,1.52-.16,2.62-1.53,2.46-3.05-.08-.74-.44-1.4-1.02-1.87-.57-.46-1.3-.67-2.03-.59-10.6,1.13-22-1.22-22.12-1.24-.19-.04-.38-.06-.57-.06Z"/>
    <path class="cls-2" d="m132.08,89.77c31.91,18.74,42.06,65.58,23.48,66.16-11.33.36-14.46-7.32-14.46-7.32,0,0-4.28,1.29-6.46-4.08-2.18-5.37,1.25-10.63,1.25-10.63-3.63-15.86-13.87-27.01-13.87-27.01l-6.98-11.15,14.59-9.7,2.45,3.73Z"/>
    <g class="cls-1">
      <path class="cls-9" d="m96.55,90.97s2.62,5.23,15.4,6.5c8.72.87,15.39-.63,18.74-1.67,1.64-.51,3.43-.2,4.8.84,6.03,4.56,21.59,18.06,24.75,37.91,3.93,24.75-11.93,19.72-19.14,14.07,0,0,3.74,8.81,14.14,7.33,10.4-1.48,13.55-15.24,2.95-38.26,0,0-8.87-17.25-24.15-26.71,0,0-20.85,7.83-37.49,0"/>
    </g>
    <path class="cls-9" d="m133.09,126.34c-.19,0-.39-.04-.57-.14-.61-.31-.84-1.06-.53-1.67.09-.17,2.25-4.3,6.44-7.57,3.94-3.08,10.44-5.95,19.03-2.11.62.28.9,1.01.62,1.63-.28.62-1.01.9-1.63.62-6-2.68-11.55-2.08-16.5,1.8-3.77,2.95-5.75,6.73-5.77,6.76-.22.42-.65.67-1.1.67Z"/>
    <path class="cls-9" d="m140.02,149.21c-.16-.3-.26-.52-.35-.79-.1-.26-.17-.52-.24-.79-.13-.54-.21-1.09-.21-1.66,0-.57.08-1.16.28-1.71.22-.55.57-1.05,1.04-1.39.16-.11.37-.08.48.08.05.08.07.17.06.25v.04c-.08.48-.1.89-.08,1.29.04.41.11.8.22,1.19.11.4.26.79.43,1.17.08.2.17.39.26.58l.14.28.13.25.03.05c.31.61.07,1.35-.54,1.66-.6.3-1.33.08-1.65-.51"/>
    <path class="cls-9" d="m122.38,106.56c1.84,1.86,3.45,3.87,4.96,5.97.37.53.74,1.06,1.1,1.6l1.06,1.63c.67,1.1,1.34,2.22,1.95,3.36.64,1.13,1.19,2.3,1.77,3.47l.79,1.78c.27.59.5,1.2.74,1.81.99,2.41,1.7,4.93,2.34,7.46.08.32.02.63-.13.89l-.03.06h0c-.07.11-.17.29-.25.44-.08.16-.17.32-.25.49-.16.33-.31.68-.44,1.02-.27.69-.48,1.41-.61,2.13-.3,1.44-.28,2.91.06,4.28l.06.26.09.25.17.5c.13.33.29.65.44.97.34.61.74,1.16,1.2,1.59.48.42,1.02.72,1.6.87.3.06.6.12.91.12.15,0,.31,0,.46-.02.07,0,.15-.02.22-.03.03,0,.07-.01.1-.02.03,0,.07-.02.06-.01l1.5.72c.05.12.18.36.28.54.12.19.23.39.37.58.26.38.55.75.87,1.1.62.71,1.35,1.31,2.12,1.86,1.57,1.06,3.38,1.77,5.28,2.13l.71.14.73.07c.49.04.97.12,1.46.11l1.48.02.69-.05.67-.1c.88-.17,1.71-.49,2.45-.97.74-.48,1.37-1.11,1.9-1.84,1.07-1.47,1.68-3.34,2.01-5.26.17-.96.26-1.95.3-2.94.04-.99.02-2-.03-3-.12-2.01-.4-4.02-.82-6-.41-1.99-.94-3.96-1.57-5.9-2.54-7.76-6.51-15.08-11.51-21.55-5-6.47-11.14-12.09-18.17-16.23h0c-.59-.35-.78-1.11-.44-1.69.35-.59,1.1-.78,1.69-.44,7.33,4.33,13.7,10.16,18.87,16.85,2.59,3.35,4.9,6.91,6.9,10.64,2,3.73,3.69,7.63,5.01,11.66.66,2.02,1.21,4.08,1.64,6.16.44,2.09.74,4.21.87,6.36.06,1.07.09,2.16.04,3.24-.04,1.09-.14,2.18-.33,3.26-.37,2.16-1.06,4.37-2.44,6.29-.68.95-1.55,1.82-2.56,2.47-1.01.66-2.16,1.09-3.32,1.32-.29.05-.58.1-.87.13l-.87.06-1.65-.02c-.55.01-1.1-.07-1.65-.12l-.82-.09-.82-.16c-2.18-.41-4.33-1.24-6.21-2.52-.93-.65-1.81-1.38-2.56-2.25-.38-.43-.74-.87-1.06-1.35-.17-.23-.31-.49-.47-.74-.15-.27-.28-.49-.43-.85l1.5.72c-.11.03-.17.04-.24.06-.07.02-.13.03-.2.04-.13.03-.26.04-.38.05-.25.02-.5.04-.76.03-.5,0-1-.08-1.5-.2-.98-.26-1.9-.77-2.63-1.42-.73-.67-1.28-1.45-1.73-2.26-.2-.41-.4-.82-.57-1.24l-.22-.65-.11-.32c-.03-.11-.05-.22-.08-.33-.44-1.77-.45-3.63-.09-5.36.16-.87.42-1.72.73-2.54.15-.41.33-.81.52-1.21.09-.2.2-.4.3-.59.11-.2.21-.38.36-.61h0s-.17.95-.17.95c-.61-2.42-1.24-4.84-2.12-7.19-.39-1.19-.92-2.33-1.36-3.5-.52-1.14-1-2.31-1.58-3.42-1.11-2.26-2.33-4.47-3.67-6.61-1.32-2.14-2.76-4.25-4.29-6.23v-.02c-.18-.21-.14-.52.07-.68.2-.15.47-.13.65.04"/>
    <path class="cls-2" d="m77.23,72.49c3.59,6.42,8.8,11.98,15.34,15.99,1.34.82,2.72,1.57,4.16,2.25.7.33,1.42.65,2.15.95,2.2.91,4.43,1.62,6.68,2.15,1.93.46,3.88.78,5.82.97,2.34.23,4.68.27,7,.12.84-.06,1.68-.13,2.52-.23,15.29-1.86,29.16-11.69,35.44-26.95,9.25-22.48-1.47-48.2-23.94-57.45-4.33-1.78-8.78-2.83-13.21-3.18-.52-.05-1.04-.08-1.56-.1-1.39-.06-2.78-.06-4.16,0-3.19.16-6.33.67-9.38,1.5-3.04.83-5.99,1.98-8.79,3.44-.89.46-1.76.95-2.62,1.48-1.28.79-2.53,1.63-3.74,2.56-6.01,4.57-10.92,10.75-14,18.24-5.32,12.93-4.04,26.93,2.29,38.25"/>
    <path class="cls-9" d="m115.63,95.13c-1.43,0-2.86-.07-4.27-.21-1.97-.19-3.94-.52-5.84-.97-2.27-.53-4.52-1.26-6.69-2.15-.8-.34-1.51-.65-2.15-.96-1.41-.67-2.82-1.43-4.17-2.26-6.39-3.92-11.71-9.46-15.38-16.03h0c-6.62-11.85-7.46-25.83-2.3-38.36,2.98-7.25,7.84-13.57,14.04-18.29,1.17-.9,2.43-1.76,3.75-2.56.84-.51,1.72-1.01,2.63-1.48,2.8-1.46,5.76-2.62,8.81-3.45,3.07-.84,6.24-1.35,9.4-1.51,1.38-.07,2.78-.07,4.17,0,.55.02,1.07.05,1.56.1,4.52.36,8.98,1.43,13.25,3.19,22.5,9.26,33.27,35.11,24,57.6-6.07,14.74-19.68,25.1-35.53,27.02-.84.1-1.69.18-2.53.23-.91.06-1.83.09-2.74.09Zm-.03-88.04c-.72,0-1.43.02-2.14.05-3.15.16-6.3.66-9.35,1.5-3.03.83-5.98,1.98-8.76,3.43-.9.47-1.78.96-2.61,1.47-1.31.8-2.56,1.66-3.73,2.55-6.17,4.69-11,10.98-13.97,18.19-5.13,12.46-4.3,26.37,2.29,38.15,3.65,6.53,8.94,12.05,15.3,15.94,1.35.83,2.74,1.58,4.15,2.25.64.31,1.34.62,2.14.95,2.16.89,4.4,1.61,6.66,2.14,1.89.45,3.84.78,5.81.97,2.3.23,4.65.27,6.98.12.83-.05,1.68-.13,2.51-.23,15.77-1.91,29.31-12.22,35.34-26.88,9.21-22.38-1.5-48.08-23.88-57.3-4.25-1.74-8.68-2.81-13.18-3.17-.49-.04-1-.08-1.55-.1-.67-.03-1.34-.05-2.01-.05Z"/>
    <g class="cls-1">
      <path class="cls-9" d="m77.23,72.49c3.59,6.42,8.8,11.98,15.34,15.99,1.34.82,2.72,1.57,4.16,2.25.7.33,1.42.65,2.15.95,2.2.91,4.43,1.62,6.68,2.15,1.93.46,3.88.78,5.82.97,2.34.23,4.68.27,7,.12.84-.06,1.68-.13,2.52-.23,15.29-1.86,29.16-11.69,35.44-26.95,3.35-8.15,4.08-16.72,2.58-24.78-.52,3.44-1.45,6.87-2.84,10.23-2.35,5.72-6.62,8.04-10.78,12.1-6.94,6.77-15.1,13.69-24.66,14.85-.84.1-1.68.18-2.52.23-2.31.14-4.65.11-7-.12-1.94-.19-3.89-.51-5.82-.97-2.25-.53-4.47-1.24-6.67-2.15-.73-.3-1.45-.62-2.15-.95-1.44-.68-2.83-1.44-4.16-2.25-6.55-4.01-11.75-9.57-15.34-15.99-2.34-4.19-3.99-8.75-4.87-13.48-1.48,9.8.44,19.65,5.13,28.03"/>
    </g>
    <path class="cls-9" d="m115.63,95.81c-1.46,0-2.91-.07-4.34-.21-2-.2-4-.53-5.93-.99-2.3-.54-4.59-1.28-6.79-2.18-.82-.34-1.53-.66-2.19-.97-1.43-.68-2.86-1.45-4.23-2.29-6.49-3.98-11.89-9.61-15.62-16.28h0c-6.72-12.03-7.57-26.22-2.33-38.94,3.03-7.36,7.96-13.78,14.26-18.57,1.19-.91,2.47-1.78,3.8-2.6.85-.52,1.75-1.03,2.67-1.51,2.84-1.48,5.85-2.66,8.94-3.5,3.12-.85,6.33-1.37,9.55-1.53,1.4-.07,2.82-.07,4.23,0,.56.02,1.08.05,1.59.1,4.58.37,9.11,1.45,13.44,3.24,22.84,9.41,33.78,35.64,24.37,58.48-6.16,14.97-19.98,25.48-36.08,27.44-.85.1-1.71.18-2.56.24-.93.06-1.86.09-2.79.09Zm-.03-88.04c-.71,0-1.41.02-2.11.05-3.1.16-6.2.65-9.21,1.47-2.98.81-5.89,1.95-8.63,3.38-.88.46-1.75.95-2.57,1.45-1.29.79-2.52,1.63-3.67,2.51-6.08,4.62-10.83,10.81-13.75,17.91-5.05,12.27-4.23,25.96,2.25,37.57h0c3.59,6.43,8.8,11.86,15.06,15.7,1.33.81,2.7,1.56,4.09,2.21.63.3,1.32.61,2.11.94,2.13.87,4.33,1.58,6.55,2.11,1.86.44,3.78.76,5.72.95,2.26.22,4.57.27,6.87.12.82-.05,1.65-.13,2.48-.23,15.52-1.88,28.86-12.03,34.8-26.47,9.07-22.03-1.47-47.34-23.51-56.42-4.18-1.72-8.55-2.77-12.97-3.12-.49-.04-.99-.08-1.53-.1-.66-.03-1.32-.05-1.98-.05Z"/>
    <path class="cls-9" d="m115.63,96.18c-1.47,0-2.93-.07-4.38-.21-2.02-.2-4.03-.53-5.98-1-2.32-.55-4.62-1.29-6.85-2.2-.82-.35-1.54-.66-2.2-.98-1.44-.69-2.88-1.46-4.27-2.31-6.55-4.01-11.99-9.69-15.75-16.41-6.78-12.13-7.63-26.44-2.35-39.27,3.05-7.42,8.02-13.89,14.38-18.72,1.2-.92,2.49-1.8,3.83-2.62.86-.53,1.77-1.04,2.69-1.52,2.86-1.49,5.9-2.68,9.02-3.53,3.14-.86,6.38-1.38,9.63-1.54,1.41-.07,2.85-.07,4.27,0,.57.02,1.09.06,1.61.1,4.62.37,9.18,1.47,13.55,3.26,23.03,9.49,34.06,35.94,24.58,58.97-6.21,15.1-20.15,25.7-36.38,27.67-.86.1-1.73.18-2.58.24-.94.06-1.88.09-2.81.09Zm-.03-88.04c-.7,0-1.4.02-2.09.05-3.07.15-6.15.65-9.13,1.46-2.96.81-5.84,1.93-8.55,3.35-.88.46-1.73.94-2.55,1.44-1.28.78-2.5,1.62-3.64,2.49-6.02,4.58-10.74,10.72-13.63,17.76-5.01,12.17-4.2,25.74,2.23,37.24h0c3.56,6.38,8.73,11.76,14.93,15.56,1.32.81,2.68,1.54,4.05,2.2.63.3,1.31.61,2.1.93,2.1.87,4.29,1.57,6.49,2.09,1.85.44,3.75.76,5.67.95,2.24.22,4.53.26,6.81.12.81-.05,1.64-.13,2.45-.23,15.39-1.87,28.61-11.92,34.5-26.24,8.99-21.84-1.46-46.93-23.31-55.93-4.14-1.7-8.47-2.74-12.86-3.1-.49-.04-.98-.07-1.51-.09-.66-.03-1.31-.05-1.97-.05Z"/>
    <path class="cls-9" d="m83.94,81.55c26.02,17.68,60.92,4.37,62.36-26.75.98-21.17-18.99-38.48-39.39-38.12-14.84.26-29.22,7.01-35.11,30.16,0,0-1.03,10.65,1.95,17.69,2.98,7.04,7.06,13.39,7.06,13.39l3.13,3.62Z"/>
    <path class="cls-10" d="m73.11,62.76c.19.61.4,1.21.65,1.78,2.98,7.04,7.06,13.39,7.06,13.39l3.13,3.62c26.02,17.68,60.92,4.37,62.36-26.75.09-2.01,0-3.98-.27-5.91-11.01,25.4-44.78,33.9-71.01,16.08l-1.91-2.22Z"/>
    <path class="cls-9" d="m108.99,95.13c-1.17,0-2.35-.04-3.53-.13-.06,0-.12-.01-.18-.03-2.32-.55-4.63-1.29-6.85-2.2-.82-.34-1.54-.66-2.2-.98-1.44-.69-2.88-1.46-4.27-2.31-6.55-4.01-11.99-9.69-15.75-16.41-6.78-12.13-7.63-26.44-2.35-39.27,3.05-7.42,8.02-13.89,14.38-18.72.06-.05.13-.09.21-.13,5.26-2.5,11.38-3.82,18.2-3.94,12.15-.22,24.7,5.11,33.58,14.25,8.16,8.4,12.38,18.99,11.87,29.82-.55,11.77-5.22,21.88-13.52,29.25-7.85,6.96-18.47,10.81-29.58,10.81Zm-3.27-2.45c11.71.84,23.11-2.84,31.3-10.11,7.82-6.94,12.23-16.48,12.74-27.61.47-10.18-3.51-20.15-11.22-28.08-8.44-8.68-20.35-13.75-31.87-13.54-6.44.11-12.2,1.35-17.13,3.67-5.98,4.57-10.65,10.68-13.53,17.68-5.01,12.17-4.2,25.74,2.23,37.24h0c3.56,6.38,8.73,11.76,14.93,15.56,1.32.81,2.68,1.54,4.05,2.2.63.3,1.31.61,2.1.93,2.08.85,4.23,1.55,6.4,2.07Z"/>
    <path class="cls-9" d="m108.99,95.13c-1.17,0-2.35-.04-3.53-.13-.06,0-.12-.01-.18-.03-2.32-.55-4.63-1.29-6.85-2.2-.82-.34-1.54-.66-2.2-.98-1.44-.69-2.88-1.46-4.27-2.31-6.55-4.01-11.99-9.69-15.75-16.41-6.78-12.13-7.63-26.44-2.35-39.27,3.05-7.42,8.02-13.89,14.38-18.72.06-.05.13-.09.21-.13,5.26-2.5,11.38-3.82,18.2-3.94,12.15-.22,24.7,5.11,33.58,14.25,8.16,8.4,12.38,18.99,11.87,29.82-.55,11.77-5.22,21.88-13.52,29.25-7.85,6.96-18.47,10.81-29.58,10.81Zm-3.27-2.45c11.71.84,23.11-2.84,31.3-10.11,7.82-6.94,12.23-16.48,12.74-27.61.47-10.18-3.51-20.15-11.22-28.08-8.44-8.68-20.35-13.75-31.87-13.54-6.44.11-12.2,1.35-17.13,3.67-5.98,4.57-10.65,10.68-13.53,17.68-5.01,12.17-4.2,25.74,2.23,37.24h0c3.56,6.38,8.73,11.76,14.93,15.56,1.32.81,2.68,1.54,4.05,2.2.63.3,1.31.61,2.1.93,2.08.85,4.23,1.55,6.4,2.07Z"/>
    <path class="cls-2" d="m143.04,55.37c0,.06,0,.13.02.19.71,8.56,6.29,14.86,12.53,14.1,6.28-.76,10.85-8.4,10.21-17.06-.5-6.68-3.96-12.02-8.4-13.75-1.31-.52-2.71-.72-4.14-.54-6.28.76-10.86,8.4-10.21,17.06"/>
    <g class="cls-1">
      <path class="cls-9" d="m143.05,55.56c.71,8.56,6.29,14.86,12.53,14.1,6.28-.76,10.85-8.4,10.21-17.06-.11-1.45-.36-2.84-.72-4.14-1.56-5.53-9.26-5.97-11.56-.7l-2.47,5.67s-1.36,3.78-4.96,4.02c-1.22.08-2.24-.76-3.04-1.89"/>
    </g>
    <path class="cls-9" d="m154.55,70.9c-2.34,0-4.61-.86-6.63-2.51-3.44-2.83-5.65-7.54-6.05-12.92-.69-9.26,4.35-17.47,11.23-18.3,2.75-.33,5.45.51,7.8,2.44,3.44,2.83,5.65,7.54,6.05,12.92h0c.69,9.26-4.35,17.47-11.23,18.3-.39.05-.78.07-1.17.07Zm-.29-31.48c-.29,0-.58.02-.88.05-5.66.69-9.79,7.78-9.19,15.81.35,4.68,2.29,8.9,5.2,11.29,1.85,1.52,3.94,2.19,6.04,1.93,5.66-.69,9.79-7.78,9.19-15.81h0c-.35-4.68-2.29-8.9-5.2-11.29-1.59-1.31-3.36-1.98-5.16-1.98Z"/>
    <path class="cls-2" d="m167.04,58.63c-1.62,6.47-6.89,10.02-11.77,7.93-4.89-2.09-7.54-9.03-5.92-15.49,1.62-6.47,6.89-10.02,11.77-7.93,4.89,2.09,7.54,9.03,5.92,15.5"/>
    <path class="cls-9" d="m158.13,67.27c-.98,0-1.97-.2-2.91-.6-4.93-2.11-7.62-9.12-5.99-15.63.9-3.62,2.98-6.47,5.69-7.82,2-.99,4.22-1.06,6.25-.2,4.93,2.11,7.62,9.12,5.99,15.63-.9,3.62-2.98,6.47-5.69,7.82-1.07.53-2.21.8-3.34.8Zm.12-24.62c-1.09,0-2.18.26-3.23.78-2.65,1.32-4.68,4.11-5.56,7.66-1.6,6.4,1.03,13.29,5.85,15.36,1.99.85,4.08.79,6.05-.19,2.65-1.32,4.68-4.11,5.56-7.66h0c1.6-6.4-1.03-13.29-5.85-15.36-.93-.4-1.87-.59-2.82-.59Z"/>
    <g class="cls-1">
      <path class="cls-9" d="m149.6,60.48c-.75-2.25-.88-4.7-.5-7.05,2.13,4.98,6.93,6.72,11.12,3.84,2.71-1.85,4.53-5.21,5.12-8.84.14.31.26.64.37.98,1.9,5.72.22,13.45-4.23,16.51-4.45,3.05-9.99.27-11.89-5.44"/>
    </g>
    <path class="cls-9" d="m158.35,68.7c-1.73,0-3.42-.64-4.93-1.87-2.78-2.28-4.64-6.36-4.96-10.93-.55-7.78,3.27-14.43,8.7-15.14,2.05-.27,4.07.36,5.84,1.81,2.78,2.28,4.64,6.36,4.96,10.93h0c.55,7.78-3.27,14.43-8.7,15.14-.31.04-.61.06-.92.06Zm-.29-25.67c-.2,0-.4.01-.6.04-4.06.53-7.12,6.32-6.67,12.66.28,3.94,1.81,7.41,4.11,9.29,1.27,1.04,2.67,1.49,4.06,1.31,4.06-.53,7.12-6.32,6.67-12.66h0c-.28-3.94-1.81-7.41-4.11-9.29-1.08-.89-2.27-1.35-3.46-1.35Z"/>
    <g class="cls-3">
      <path class="cls-2" d="m134.07,47.19c-.05,3.79-2.72,6.82-5.97,6.78-3.25-.04-5.84-3.14-5.8-6.93.05-3.79,2.72-6.82,5.97-6.78,3.25.04,5.84,3.14,5.8,6.93"/>
    </g>
    <g class="cls-3">
      <path class="cls-2" d="m131.77,61.75c-.15,1.56-1.36,2.71-2.69,2.58-1.34-.13-2.3-1.5-2.14-3.05.15-1.56,1.36-2.71,2.69-2.58,1.34.13,2.3,1.5,2.14,3.05"/>
    </g>
    <g class="cls-3">
      <path class="cls-2" d="m76.94,57.8s-3.76-34.92,32.04-37.29c0,0-25.08,9.39-32.04,37.29"/>
    </g>
    <path class="cls-8" d="m58.66,62.39s.02.08.02.12l-.02-.12Z"/>
  </g>
  <g>
    <path d="m118.15,104.24c-.12.08-.24.16-.37.23-.55.33-1.13.62-1.73.86-.07.03-.14.06-.21.08-.01,0-.04,0-.04,0-.33-.34-.66-.68-.98-1.01,0,0,0,0,0,0,.05-.06.11-.12.16-.19.1-.13.17-.28.2-.44,0-.04.03-.04.07-.04.86.07,1.73.13,2.62.2.13,0,.12,0,.17.11.03.07.07.13.12.2Z"/>
    <path d="m114.17,100.92c.04-.45.08-.89.11-1.34,0-.04.02-.05.06-.04.34.02.68.08,1.01.16.04.01.03.03.03.05-.01.11,0,.21.06.3.03.05.07.09.12.13.03.03.03.05.01.08-.29.5-.58,1-.87,1.49-.12.2-.23.4-.35.6-.02.03-.03.04-.07.03-.06-.02-.12-.04-.18-.05-.04,0-.05-.02-.04-.05.02-.19.03-.38.05-.57.02-.27.04-.53.07-.79,0,0,0,0,0,0Z"/>
    <path d="m112.34,99.86c.02.05.04.1.06.15.16.43.32.86.48,1.3.13.35.25.7.38,1.05,0,.01,0,.04-.02.05-.08.04-.15.08-.23.11,0,0,0,0,0,0-.64-.66-1.27-1.3-1.88-1.93.35-.31.76-.54,1.22-.73Z"/>
    <path d="m113.89,100.91c-.04.44-.08.89-.11,1.34,0,.05-.02.06-.08.06-.05,0-.1,0-.15.02-.04,0-.06,0-.07-.03-.07-.2-.14-.39-.21-.58-.17-.45-.33-.89-.49-1.32-.07-.19-.14-.38-.21-.56-.01-.04,0-.05.04-.06.22-.07.44-.13.66-.17.23-.04.46-.07.69-.06.04,0,.04.02.04.04-.04.44-.08.89-.11,1.34h0Z"/>
    <path d="m113.4,105.87c-.38-.04-.74-.14-1.09-.27-.22-.08-.43-.19-.63-.3-.03-.02-.03-.03,0-.05.38-.28.76-.57,1.14-.85.03-.02.04-.02.07,0,.17.14.36.24.59.3.19.05.39.07.58.03.06-.01.08,0,.1.05.07.2.15.41.22.61,0,.01,0,.03-.02.04-.16.09-.26.21-.27.38,0,.08,0,.08-.09.08-.19,0-.38,0-.57-.01Z"/>
    <path d="m116.37,100.17c.31.2.57.43.78.69-.13.1-.25.2-.38.29-.64.48-1.27.96-1.9,1.43-.09.06-.09.06-.17,0-.04-.03-.08-.05-.12-.07-.04-.02-.04-.04-.02-.07.13-.22.26-.44.38-.66.27-.47.54-.93.81-1.4.03-.05.06-.07.13-.07.18.02.34-.03.48-.15Z"/>
    <path d="m110.96,100.72s.04.03.05.05c.58.6,1.17,1.22,1.78,1.85.04.04.04.06,0,.09-.04.04-.08.09-.12.13-.02.02-.03.03-.06.02-.46-.21-.91-.42-1.36-.62-.32-.15-.64-.29-.95-.44-.09-.04-.09-.04-.05-.13.11-.22.25-.43.42-.62.09-.11.19-.21.29-.32Z"/>
    <path d="m117.29,101.06s.05.07.07.11c.22.34.4.7.55,1.07.01.03,0,.04-.03.05-.55.15-1.09.3-1.63.45-.37.1-.74.2-1.11.31-.03,0-.05,0-.06-.02-.04-.06-.08-.12-.12-.18-.01-.02-.03-.03,0-.05.14-.1.28-.21.42-.31.45-.33.9-.67,1.35-1.01.18-.14.37-.27.56-.41Z"/>
    <path d="m116.59,103.62c-.42-.03-.84-.06-1.26-.09-.04,0-.09,0-.12-.01-.02-.02-.01-.07-.02-.1,0-.04,0-.08-.02-.12-.01-.04,0-.05.04-.06.17-.05.33-.09.5-.14.49-.14.99-.27,1.49-.41.25-.07.49-.14.74-.2.04-.01.06,0,.07.03.09.28.19.57.28.85.01.04,0,.06-.04.08-.11.06-.19.13-.23.24-.02.04-.04.05-.09.04-.46-.04-.91-.07-1.36-.1h0Z"/>
    <path d="m112.46,103.31l-2.39-.18c-.06-.14,0-.92.08-1.18.04.02.08.03.11.05.43.2.86.4,1.3.6.31.14.61.28.93.42.05.02.06.04.04.09-.03.06-.04.13-.06.2Z"/>
    <path d="m111.25,103.42c.35.03.71.05,1.07.08.02,0,.05,0,.07,0,.04,0,.05.02.05.06,0,.06,0,.11.02.17,0,.03,0,.05-.04.06-.24.07-.48.14-.72.2-.37.1-.74.21-1.11.31-.04.01-.06,0-.08-.03-.17-.27-.29-.56-.39-.86,0,0,0,0,0,0-.03-.08-.03-.08.07-.07.35.03.7.05,1.06.08h0Z"/>
    <path d="m111.43,105.15c-.27-.19-.52-.42-.76-.66.02,0,.03-.01.04-.01.56-.15,1.13-.31,1.71-.47.04-.01.09-.04.12-.03.03.01.04.06.06.1.02.03.04.07.07.1.02.03.02.04,0,.06-.16.12-.32.24-.48.36-.25.18-.49.37-.75.55Z"/>
    <path d="m115.6,107.25c.1.01.19.02.29.03.01,0,.03.02.03.03.13.21.26.42.39.64.03.06.04.06.08,0,.14-.18.29-.36.43-.54.02-.02.04-.03.07-.03.09.01.19.02.28.03-.02.28-.04.55-.06.83,0,.03-.02.04-.05.04-.06,0-.12-.02-.19-.02-.04,0-.05-.02-.04-.05.01-.12.02-.24.03-.37,0-.01,0-.03,0-.06-.02.03-.03.04-.05.06-.09.12-.19.23-.28.35,0,.01-.03.02-.05.02-.1,0-.2-.02-.3-.03-.02,0-.04-.03-.05-.04-.08-.14-.16-.28-.25-.41-.01-.02-.02-.03-.04-.06,0,.02,0,.03,0,.04,0,.13-.02.26-.03.39,0,.04-.02.05-.06.04-.07-.01-.14-.02-.22-.03l.07-.86Z"/>
    <path d="m111.85,107.41l.05-.55.27.03s0,.07,0,.1c-.02.22-.04.45-.06.67,0,.03-.01.04-.05.04-.1-.01-.21-.02-.31-.04-.02,0-.05-.02-.07-.03-.13-.17-.26-.35-.4-.52,0,0-.01-.02-.03-.03,0,.03-.01.04-.01.06-.01.14-.02.28-.04.43,0,.01-.02.03-.03.03-.08,0-.15-.02-.23-.03l.08-.82c.12.01.23.02.34.04.02,0,.03.02.05.03.13.17.26.34.38.51.02.02.04.05.07.08Z"/>
    <path d="m117.69,108.16v.2c-.11-.01-.21-.02-.31-.04,0-.02,0-.05,0-.07.02-.25.03-.51.05-.76,0-.03.02-.05.06-.04.28.03.56.06.84.1.14.02.25.14.25.26,0,.08,0,.16-.02.24-.01.12-.14.2-.28.19-.19-.02-.39-.05-.59-.07Zm.02-.24c.12.01.23.03.34.04.04,0,.09,0,.13,0,.08,0,.11-.04.11-.11,0-.05-.05-.09-.12-.1-.11-.01-.22-.03-.33-.04-.04,0-.07,0-.12-.01v.22Z"/>
    <path d="m115.57,105.52c-.06.02-.13.04-.19.06-.06.02-.13.04-.18.06-.08-.07-.15-.13-.22-.19-.09-.07-.21-.09-.32-.1-.04,0-.06-.01-.08-.05-.07-.2-.15-.4-.22-.6,0-.01,0-.04,0-.05.08-.04.17-.08.26-.12.31.32.62.65.94.99Z"/>
    <path d="m113.9,107.6s0,.07,0,.11c-.01.11-.1.18-.22.17-.2-.02-.39-.04-.59-.07-.13-.02-.22-.12-.21-.24,0-.14.02-.29.04-.43.02-.11.13-.17.25-.16.17.02.35.04.53.05.21.02.27.17.26.3,0,.03-.02.04-.04.03-.08,0-.15-.02-.23-.03-.02-.09-.04-.1-.14-.11-.09,0-.18-.02-.26-.02-.06,0-.1.02-.11.07-.01.07-.02.14-.02.22,0,.07.05.11.13.12.09.01.17.02.26.03.05,0,.09,0,.11-.05,0-.01.03-.02.04-.02.07,0,.15.02.23.03Z"/>
    <path d="m109.71,106.6l.23.03s0,.03,0,.04c-.01.14-.03.28-.04.42,0,.08.01.15.13.16.11,0,.21.03.32.04.11.01.15-.02.16-.12.02-.15.03-.31.05-.46.08,0,.15.02.22.03,0,0,.02.02.02.04,0,.05,0,.1-.01.15-.01.14-.03.28-.04.41-.01.13-.1.2-.24.18-.22-.02-.44-.05-.66-.08-.13-.02-.21-.09-.2-.22,0-.16.03-.31.04-.46,0-.05,0-.1.01-.15Z"/>
    <path d="m114.07,107.93c.05-.08.09-.16.13-.23.1-.18.2-.36.31-.53,0-.01.03-.03.05-.03.11.01.23.02.34.04.02,0,.05.02.06.04.11.27.22.55.32.82,0,0,0,.02,0,.03-.1-.01-.19-.02-.28-.04-.02,0-.03-.04-.04-.07-.01-.07,0-.07-.09-.08-.14-.02-.28-.03-.42-.05-.03,0-.06,0-.06.03,0,0,0,.02-.01.03-.02.05-.06.07-.12.06-.06-.01-.13-.02-.2-.02Zm.47-.29l.32.04c-.04-.12-.08-.23-.13-.36-.07.12-.13.22-.19.33Z"/>
    <path class="cls-4" d="m115.93,100.12c-.21,0-.33-.17-.33-.31,0-.15.19-.3.37-.29.18,0,.36.12.34.32-.01.17-.15.29-.39.29Z"/>
    <path class="cls-4" d="m118.72,103.57c.22.01.37.16.37.35,0,.17-.19.31-.39.3-.18-.01-.39-.15-.38-.35.01-.16.2-.32.4-.29Z"/>
    <path class="cls-4" d="m115.01,105.9c0,.18-.19.31-.39.29-.19-.02-.34-.18-.32-.34.02-.16.16-.3.37-.28.21.02.36.17.34.34Z"/>
    <path d="m112.59,107.76c-.07,0-.15-.02-.22-.03,0,0-.02-.03-.02-.04.02-.23.04-.46.06-.69,0-.03,0-.06,0-.1l.25.03-.07.83Z"/>
  </g>
  <g>
    <rect class="cls-11" x="129.01" y="101.47" width="11.2" height="7.24" transform="translate(-31.03 63.53) rotate(-23.89)"/>
    <g>
      <path class="cls-5" d="m133.06,102.15c-.71,1.65-1.45,3.24-1.99,4.96l5.13.86,1.93-4.94-5.07-.88Z"/>
      <g>
        <path class="cls-7" d="m135.2,103.71c-.7-.32-1.62,0-1.96.69-.34.68-.06,1.62.61,1.99.67.37,1.61.12,2.01-.53.4-.65.26-1.73-.66-2.15Z"/>
        <path class="cls-2" d="m133.31,105.85c.13.23.31.42.54.55.07.04.13.06.2.09.45-.8,1.13-1.45,1.95-1.86-.06-.19-.15-.37-.29-.52-.94.36-1.78.96-2.41,1.75Z"/>
      </g>
    </g>
  </g>
</svg>