<?xml version="1.0" encoding="UTF-8"?>
<svg id="Camada_1" data-name="Camada 1" xmlns="http://www.w3.org/2000/svg" xmlns:xlink="http://www.w3.org/1999/xlink" viewBox="0 0 200 200">
  <defs>
    <style>
      .cls-1 {
        fill: #fff;
      }

      .cls-2 {
        fill: #6281ac;
      }

      .cls-3 {
        fill: #cf5252;
      }

      .cls-4 {
        fill: #bbbcbf;
      }

      .cls-5 {
        fill: #55a533;
      }

      .cls-6 {
        fill: #f0f1f1;
      }

      .cls-7 {
        clip-path: url(#clippath);
      }

      .cls-8 {
        fill: #73b72b;
      }

      .cls-9 {
        fill: none;
      }

      .cls-10 {
        fill: #371b45;
      }

      .cls-11 {
        fill: #bcd589;
      }

      .cls-12 {
        fill: #f2f2f2;
      }
    </style>
    <clipPath id="clippath">
      <circle class="cls-9" cx="-111.29" cy="78.63" r="71.2"/>
    </clipPath>
  </defs>
  <g class="cls-7">
    <g>
      <path class="cls-8" d="m-82.4,124.85c.37-3.51-.89-7.13-3.37-9.61-3.18-3.19-2.92-8.71-2.65-12.66.22-3.18-1.24-5.99-4.7-4.46-7.94,3.5-16.49-6.01-17.02-13.57-.17-8.01,3.01-14.35,8.22-20.07,3.62-3.97,9.58-4.18,13.69-1.02,4.84,3.72,14.88-2.72,16.83-7.86.22-.59.45-1.39.34-1.92-1.18-5.33-8.57-7.16-11.99-3.13-2.21,2.61-5.76,3-8.42.81-4.88-4.03-7.1-1.94-10.05,3.05-.95,1.61-1.59,4.74-3.47,2.98-1.84-1.74-3.12-4.72-1.52-6.98,3.9-5.52,7.7-11.45,10.62-17.66.19-.41.73-.9,1.03-.87,6.94.67,8.01-8.24,10.33-12.86.82-1.63.62-2.49-.35-3.39-.99-.93-1.68-.24-2.36.88-1.15,1.88-2.28,3.78-3.44,5.65-.59.96-1.05,2.51-2.17,2.11-1.31-.47-1.67-2.26-1.29-3.75,1.1-4.24,3.21-8.8,6.52-11.74,2.51-2.23,6.71-3.35,9.33-.72,3.26,3.27,6.24,3.61,10.79,2.33,1.91-.54,3.97-1.12,5.91-1.3,3.28-.31,6-2.35,7.42-5.33,1.47-2.97,4.45-4.72,7.72-4.68,2.06.03,3.56-.81,4.63-3.09,1.89-4.05,5.91-6.58,10.24-7.13,6.44-.81,11.34.53,14.8,5.92.94,1.47,2.28,1.24,3.5,1.23,3.18-.04,6.53.12,9.57-.01,2.3-.1,5.24,1.57,6.3,3.62.71,1.38,1.8,1.74,2.92,1.8,1.55.09,3.17.39,4.63.51,3.51.3,4.83,1.3,6.01,4.76.1,3.18-2.74,6.82-5.73,6.98-.87.05-1.9-.02-2.85-.19-2.67-.5-3.45,1.09-3.24,4.63.45,7.59-4.09,17.72-12.32,18.84-2,.27-3.18.79-2.91,3.93.14,1.64.03,3.53-1.06,4.97-2.5,3.32-4.28,7.27-3.95,11.45.26,3.29-3.2,5.02-5.66,2.82-2.67-2.4-5.22-5.03-7.61-7.75-1.84-2.1-3.2-1.83-4.71.9-1.31,2.35-3.14,4.63-4.24,6.94-1.4,2.93-4.43,4.55-6.79,1.6-2.82-2.72-4.41-3.86-7.92-3.7-1.25.06-2.48-.67-3.45-1.77-.99-1.12-2.14-2.37-3.23-.1-1.03,2.14.86,2.38,1.56,3.23,1.27,1.55,2.73,2.88,4.12,4.21,2.44,2.35,2.18,5.24-.18,7.52-2.3,2.22-6.07,3.67-8.73.91-1.82-1.75-3.58-3.55-5.39-5.3-.86-.83-1.56-2.13-2.92-.05-1.44,2.21-.1,2.67.69,3.47,3.13,3.19,6.29,6.35,9.53,9.42,2.79,2.65,3.04,6.92.67,9.88-4.88,6.12-5.73,13.64-4.79,21.81.38,3.35.52,6.6.54,9.98.09,6.72-4.88,15.71-12.34,16-2.96.06-4.89-2.39-5.18-5.15-.25-2.38-.32-4.89-.44-7.32Z"/>
      <path class="cls-8" d="m18.43,94.75c.01.13.05.26.04.39-.23,1.96,1.56,4.38-.53,5.74-1.99,1.29-5.67,2.3-7.79.53-3.38-1.89-4.86-1.95-8.33-.85-2.8.88-6.03.18-7.47-2.68-1.7-3.12-.76-6.75,1-9.59,2.74-4.43,8.42-8.47,13.71-7.08,5.25,1.37,8.76,8.43,9.37,13.54Z"/>
      <path class="cls-8" d="m11.52,27.25c-.18,3.33-4.41,8.89-7.03,9.02-.69.03-1.66-.96-1.14-1.75,1.69-2.8,3.33-6.3,6.4-7.64.55-.24,1.72-.52,1.78.38Z"/>
      <path class="cls-8" d="m.23,76.13c-.93-.23-3.13,1.69-3.12-1.4.01-3.3,2.31-4.04,4.52-4.06,1.18-.01,3.23-1.36,3.37.92.33,2.92-2.09,4.61-4.76,4.54Z"/>
      <path class="cls-8" d="m25.46,97.42c-.36.98,1.44,2.78-.72,2.9-2.25.13-2.96-2.06-3.03-4.21-.04-1.24-1.15-3.42.64-3.6,3.08-.31,2.55,2.88,3.12,4.91Z"/>
    </g>
    <g>
      <path class="cls-5" d="m-78.09,138.33c-2.95-.6-4.72-3.32-5-6.05-.21-1.98-.3-4.05-.38-6.05l-.05-1.5c.34-3.19-.8-6.43-3.04-8.69-3.38-3.39-3.31-8.77-2.98-13.54.11-1.59-.28-2.94-.98-3.44-.49-.34-1.2-.31-2.12.1-3.14,1.38-6.69,1.04-10-.96-4.64-2.8-8.26-8.51-8.61-13.58v-.05c-.17-7.67,2.54-14.3,8.52-20.86,3.93-4.31,10.47-4.81,15.22-1.16,1.58,1.21,3.77.94,5.34.49,4.03-1.14,8.57-4.81,9.73-7.86.29-.77.31-1.19.29-1.27-.55-2.45-2.62-3.79-4.38-4.23-2.18-.54-4.34.07-5.62,1.59-2.62,3.09-6.92,3.5-10.01.95-1.71-1.41-3.06-2.01-4.1-1.83-1.43.25-2.73,2.01-4.25,4.59-.18.31-.36.71-.55,1.13-.56,1.23-1.19,2.63-2.48,2.89-.74.15-1.48-.12-2.19-.8-2.29-2.15-3.59-5.75-1.67-8.46,4.67-6.6,8.01-12.15,10.52-17.48.31-.67,1.22-1.61,2.17-1.52,4.14.4,5.78-3.23,7.65-8.39.51-1.4.98-2.72,1.55-3.85.67-1.32.37-1.6-.11-2.05-.04-.03-.07-.06-.09-.08-.09.09-.26.29-.53.72-.39.64-.78,1.29-1.18,1.93-.75,1.24-1.51,2.49-2.27,3.72-.11.18-.21.38-.32.58-.45.86-1.39,2.65-3.21,1.99-1.98-.71-2.51-3.16-2.01-5.1.78-3.01,2.71-8.62,6.87-12.31,2.98-2.64,7.81-3.77,10.9-.67,2.77,2.78,5.21,3.29,9.68,2.04l.09-.03c1.88-.53,4.01-1.13,6.02-1.31,2.79-.26,5.22-2.01,6.49-4.69,1.65-3.34,5-5.37,8.76-5.33,1.73.02,2.77-.68,3.58-2.43,1.98-4.24,6.14-7.15,11.13-7.77,7.43-.94,12.48,1.11,15.9,6.43.47.73.98.75,2.1.72.14,0,.29,0,.43-.01,1.29-.02,2.62,0,3.91.02,1.89.02,3.84.05,5.62-.03,2.74-.12,6.11,1.82,7.36,4.23.42.81.96,1.13,1.98,1.19.92.05,1.84.17,2.74.29.68.09,1.32.17,1.92.22,3.98.34,5.68,1.68,6.99,5.53l.05.16v.17c.13,3.93-3.24,7.97-6.8,8.16-.99.05-2.1-.02-3.12-.21-.47-.09-1.09-.14-1.39.13-.3.27-.64,1.06-.5,3.31.45,7.58-3.93,18.76-13.31,20.03-1.51.2-2.13.29-1.93,2.7.21,2.44-.21,4.33-1.29,5.75-2.74,3.64-4,7.24-3.72,10.67.16,2-.78,3.76-2.45,4.58-1.66.82-3.62.5-5.1-.83-2.55-2.29-5.15-4.93-7.71-7.84-.85-.97-1.27-1.01-1.38-1-.13.01-.64.18-1.48,1.7-.59,1.06-1.28,2.1-1.94,3.11-.86,1.3-1.68,2.54-2.27,3.77-1.03,2.16-2.74,3.57-4.56,3.78-1.5.17-2.95-.5-4.1-1.9-2.63-2.53-3.94-3.48-7.03-3.33-1.52.07-3.07-.69-4.36-2.16-.22-.25-.7-.8-.98-.95-.07.07-.21.24-.38.59-.33.68-.31.69.43,1.19.33.22.69.47.99.83,1.01,1.23,2.18,2.35,3.31,3.42.24.23.48.46.72.69,1.35,1.3,2.06,2.83,2.06,4.42,0,1.68-.77,3.31-2.24,4.73-1.82,1.75-4.12,2.78-6.17,2.74-1.59-.03-3.03-.67-4.18-1.86-.93-.89-1.87-1.82-2.81-2.76-.85-.84-1.69-1.68-2.55-2.51-.13-.13-.26-.26-.38-.39-.11-.12-.26-.28-.38-.38-.09.09-.23.25-.41.53-.65,1-.56,1.08.05,1.6.17.15.34.29.5.45,2.57,2.61,5.97,6.04,9.5,9.39,3.21,3.04,3.54,7.95.78,11.42-4.15,5.2-5.59,11.86-4.55,20.97.34,3.02.52,6.23.55,10.1.1,6.93-4.97,16.81-13.43,17.15-.48,0-.93-.03-1.35-.12Zm-3.17-13.45l.06,1.25c.09,1.97.17,4,.37,5.92.21,2.02,1.56,4.18,4.03,4.13,6.97-.27,11.31-8.97,11.22-14.84-.03-3.85-.2-6.9-.54-9.87-1.11-9.75.49-16.95,5.04-22.65,2.02-2.54,1.78-6.13-.56-8.35-3.56-3.37-6.98-6.82-9.56-9.45-.11-.11-.23-.21-.34-.31-.78-.66-2.24-1.9-.49-4.58.43-.66,1.12-1.54,2.15-1.63,1.03-.09,1.71.64,2.21,1.17.1.11.2.21.3.31.86.83,1.72,1.68,2.57,2.53.93.93,1.87,1.85,2.82,2.77.76.79,1.63,1.18,2.61,1.2,1.46.03,3.16-.76,4.55-2.1,1.01-.98,1.54-2.05,1.54-3.09,0-.98-.46-1.91-1.36-2.78-.24-.23-.47-.45-.71-.68-1.18-1.13-2.4-2.29-3.5-3.63-.08-.1-.3-.25-.5-.38-.78-.52-2.39-1.61-1.2-4.07.21-.42.83-1.72,2.11-1.89,1.32-.18,2.29.93,3,1.74.81.92,1.74,1.43,2.54,1.39,3.95-.19,5.79,1.15,8.77,4.01l.1.11c.66.83,1.37,1.21,2.11,1.12,1.01-.12,2.09-1.1,2.76-2.5.66-1.37,1.56-2.73,2.42-4.04.64-.97,1.31-1.97,1.85-2.95.64-1.15,1.66-2.69,3.23-2.85,1.1-.12,2.19.46,3.33,1.76,2.5,2.85,5.03,5.42,7.52,7.65.79.71,1.75.89,2.57.48.83-.41,1.27-1.29,1.19-2.36-.32-4.01,1.09-8.12,4.17-12.22.72-.96,1-2.33.84-4.19-.33-3.8,1.32-4.81,3.89-5.16,7.24-.98,11.79-10.08,11.34-17.64-.11-1.78-.06-3.98,1.27-5.15.79-.7,1.91-.92,3.31-.66.83.15,1.77.22,2.58.18,2.26-.12,4.64-3.04,4.66-5.65-1.01-2.88-1.92-3.57-4.97-3.83-.66-.06-1.35-.15-2.03-.24-.85-.11-1.74-.23-2.57-.28-1.82-.11-3.08-.89-3.87-2.41C.7-1.53-1.79-2.96-3.67-2.87c-1.85.08-3.83.06-5.75.03-1.27-.02-2.59-.03-3.86-.02-.13,0-.25,0-.38,0-1.15.03-2.9.09-4.09-1.76-2.97-4.62-7.06-6.24-13.7-5.4-4.2.53-7.7,2.95-9.35,6.48-1.19,2.55-3.05,3.77-5.67,3.74-2.87-.04-5.43,1.51-6.68,4.04-1.61,3.39-4.73,5.63-8.33,5.96-1.81.17-3.74.71-5.62,1.24l-.09.03c-4.36,1.23-8.05,1.25-11.91-2.62-2.24-2.24-5.89-.9-7.77.77-3.71,3.29-5.46,8.41-6.17,11.18-.26,1-.03,2.06.48,2.35.16-.19.37-.6.51-.86.13-.25.26-.5.4-.73.76-1.23,1.51-2.46,2.26-3.7.39-.65.78-1.29,1.18-1.94.51-.83,1.16-1.7,2.18-1.84.67-.09,1.32.15,1.93.72,1.42,1.32,1.6,2.74.59,4.74-.51,1.01-.96,2.27-1.45,3.6-1.67,4.6-3.73,10.31-9.74,9.9-.07.06-.14.15-.16.2-2.57,5.45-5.98,11.12-10.72,17.83-1.31,1.85.11,4.3,1.37,5.49.09.09.16.14.21.17.26-.27.62-1.09.83-1.55.21-.46.42-.94.67-1.35,1.89-3.2,3.53-5.27,5.82-5.67,1.76-.31,3.65.43,5.94,2.32,2.14,1.76,5.01,1.48,6.82-.67,1.85-2.19,4.87-3.08,7.91-2.33,3.09.76,5.41,3.04,6.06,5.95.14.66.01,1.52-.39,2.57-1.42,3.74-6.46,7.88-11.24,9.24-2.97.84-5.51.54-7.35-.88-3.8-2.92-9.03-2.54-12.15.89-5.55,6.1-8.07,12.21-7.93,19.25.31,4.31,3.53,9.36,7.51,11.76,1.88,1.14,4.78,2.2,7.91.83,2.12-.93,3.53-.45,4.35.12,1.41.99,2.12,2.98,1.95,5.46-.29,4.27-.38,9.06,2.32,11.78,2.7,2.71,4.08,6.61,3.7,10.45Z"/>
      <path class="cls-5" d="m-1.98,101.91c-2.03-.41-3.74-1.64-4.69-3.51-1.65-3.03-1.28-6.95,1.05-10.71,3.05-4.92,9.16-9.11,14.97-7.58,6.03,1.58,9.61,9.43,10.22,14.5v.07c.03.13.07.34.04.59-.06.49.08,1.1.22,1.76.31,1.39.77,3.49-1.27,4.81-2.08,1.35-6.35,2.67-9.05.52-2.96-1.64-4.08-1.75-7.35-.71-1.43.45-2.85.52-4.14.26Zm10.36-19.68c-4.58-.93-9.59,2.68-12.06,6.67-.89,1.44-2.77,5.15-.97,8.45,1.23,2.44,3.96,2.82,6.13,2.14,3.87-1.22,5.68-1.04,9.23.95l.17.12c1.64,1.37,4.81.44,6.44-.62.62-.4.62-.88.28-2.41-.16-.75-.35-1.59-.27-2.43v-.02c-.01-.06-.02-.12-.03-.18-.62-5.13-4.05-11.4-8.53-12.57-.13-.03-.26-.06-.39-.09Z"/>
      <path class="cls-5" d="m4.07,37.36c-.67-.14-1.33-.61-1.71-1.27-.41-.72-.4-1.55.03-2.21.22-.36.46-.78.7-1.2,1.51-2.61,3.23-5.57,6.19-6.87.46-.2,1.64-.61,2.55-.06.49.3.78.8.82,1.41v.13c-.2,3.7-4.76,9.94-8.12,10.09-.16,0-.31,0-.47-.04Zm.25-2.27s0,0,0,0c0,0,0,0,0,0Zm.2.04h0Zm-.15-.12s.09.09.13.11c1.75-.18,5.17-4.28,5.79-7.25-.03.01-.06.02-.09.04-2.28,1-3.73,3.5-5.13,5.92-.23.4-.46.8-.69,1.18Z"/>
      <path class="cls-5" d="m-2.31,77.6c-.26-.05-.53-.16-.78-.35-.95-.71-.95-2.08-.94-2.53,0-1.92.75-5.15,5.64-5.19.17,0,.49-.09.78-.16.81-.21,1.91-.49,2.8.15.56.41.87,1.07.93,1.97.17,1.52-.26,2.89-1.23,3.95-1.11,1.21-2.82,1.88-4.7,1.83h-.12s-.05-.02-.05-.02c-.11.02-.34.09-.5.13-.49.15-1.17.35-1.83.22Zm6.13-6.21c-.22.01-.61.11-.86.18-.43.11-.88.23-1.33.23-2.98.03-3.39,1.5-3.39,2.93,0,.31.03.51.05.63.17-.03.4-.1.56-.15.46-.14.97-.29,1.48-.21,1.16.01,2.23-.39,2.87-1.09.53-.57.74-1.31.64-2.18v-.06c-.01-.12-.03-.2-.04-.26Z"/>
      <path class="cls-5" d="m23.78,101.39c-.62-.12-1.17-.4-1.63-.82-1.23-1.12-1.54-3.02-1.59-4.42,0-.22-.08-.57-.15-.9-.2-.95-.45-2.12.2-3.01.25-.34.73-.77,1.62-.86,3.46-.35,3.86,2.7,4.08,4.34.07.52.13,1,.24,1.4l.1.35-.1.28c.01.12.1.39.15.56.2.63.48,1.5-.05,2.28-.54.79-1.53.85-1.85.86-.36.02-.7,0-1.02-.07Zm-1.32-7.75c0,.28.11.82.18,1.13.09.43.19.88.2,1.3.04,1.33.35,2.36.85,2.81.15.14.4.31.9.3-.02-.06-.04-.12-.06-.17-.15-.46-.32-1.01-.25-1.58-.11-.47-.17-.95-.24-1.42-.3-2.28-.56-2.48-1.59-2.37Z"/>
    </g>
  </g>
  <g>
    <rect class="cls-6" x="119.92" y="98.97" width="61.34" height="57.61"/>
    <path class="cls-10" d="m182.56,157.87h-63.92v-60.18h63.92v60.18Zm-61.34-2.58h58.77v-55.03h-58.77v55.03Z"/>
  </g>
  <g>
    <rect class="cls-4" x="134.63" y="132.17" width="6.37" height="12.61"/>
    <path class="cls-10" d="m141,144.53h-6.37c.12.08.25.17.37.25v-12.61c-.12.08-.25.17-.37.25h6.37c-.12-.08-.25-.17-.37-.25v12.61c0,.32.74.32.74,0v-12.61c0-.13-.17-.25-.37-.25h-6.37c-.2,0-.37.11-.37.25v12.61c0,.13.17.25.37.25h6.37c.48,0,.48-.5,0-.5Z"/>
  </g>
  <g>
    <rect class="cls-4" x="143.2" y="132.17" width="6.37" height="12.61"/>
    <path class="cls-10" d="m149.57,144.53h-6.37c.12.08.25.17.37.25v-12.61c-.12.08-.25.17-.37.25h6.37c-.12-.08-.25-.17-.37-.25v12.61c0,.32.74.32.74,0v-12.61c0-.13-.17-.25-.37-.25h-6.37c-.2,0-.37.11-.37.25v12.61c0,.13.17.25.37.25h6.37c.48,0,.48-.5,0-.5Z"/>
  </g>
  <g>
    <rect class="cls-4" x="151.65" y="132.17" width="6.37" height="12.61"/>
    <path class="cls-10" d="m158.01,144.53h-6.37c.12.08.25.17.37.25v-12.61c-.12.08-.25.17-.37.25h6.37c-.12-.08-.25-.17-.37-.25v12.61c0,.32.74.32.74,0v-12.61c0-.13-.17-.25-.37-.25h-6.37c-.2,0-.37.11-.37.25v12.61c0,.13.17.25.37.25h6.37c.48,0,.48-.5,0-.5Z"/>
  </g>
  <g>
    <rect class="cls-4" x="159.97" y="132.17" width="6.37" height="12.61"/>
    <path class="cls-10" d="m166.33,144.53h-6.37c.12.08.25.17.37.25v-12.61c-.12.08-.25.17-.37.25h6.37c-.12-.08-.25-.17-.37-.25v12.61c0,.32.74.32.74,0v-12.61c0-.13-.17-.25-.37-.25h-6.37c-.2,0-.37.11-.37.25v12.61c0,.13.17.25.37.25h6.37c.48,0,.48-.5,0-.5Z"/>
  </g>
  <g>
    <rect class="cls-4" x="168.22" y="132.17" width="6.37" height="12.61"/>
    <path class="cls-10" d="m174.59,144.53h-6.37c.12.08.25.17.37.25v-12.61c-.12.08-.25.17-.37.25h6.37c-.12-.08-.25-.17-.37-.25v12.61c0,.32.74.32.74,0v-12.61c0-.13-.17-.25-.37-.25h-6.37c-.2,0-.37.11-.37.25v12.61c0,.13.17.25.37.25h6.37c.48,0,.48-.5,0-.5Z"/>
  </g>
  <g>
    <rect class="cls-4" x="133.83" y="112.74" width="6.37" height="12.61"/>
    <path class="cls-10" d="m140.19,125.1h-6.37c.12.08.25.17.37.25v-12.61c-.12.08-.25.17-.37.25h6.37c-.12-.08-.25-.17-.37-.25v12.61c0,.32.74.32.74,0v-12.61c0-.13-.17-.25-.37-.25h-6.37c-.2,0-.37.11-.37.25v12.61c0,.13.17.25.37.25h6.37c.48,0,.48-.5,0-.5Z"/>
  </g>
  <g>
    <rect class="cls-4" x="142.4" y="112.74" width="6.37" height="12.61"/>
    <path class="cls-10" d="m148.77,125.1h-6.37c.12.08.25.17.37.25v-12.61c-.12.08-.25.17-.37.25h6.37c-.12-.08-.25-.17-.37-.25v12.61c0,.32.74.32.74,0v-12.61c0-.13-.17-.25-.37-.25h-6.37c-.2,0-.37.11-.37.25v12.61c0,.13.17.25.37.25h6.37c.48,0,.48-.5,0-.5Z"/>
  </g>
  <g>
    <rect class="cls-4" x="150.84" y="112.74" width="6.37" height="12.61"/>
    <path class="cls-10" d="m157.21,125.1h-6.37c.12.08.25.17.37.25v-12.61c-.12.08-.25.17-.37.25h6.37c-.12-.08-.25-.17-.37-.25v12.61c0,.32.74.32.74,0v-12.61c0-.13-.17-.25-.37-.25h-6.37c-.2,0-.37.11-.37.25v12.61c0,.13.17.25.37.25h6.37c.48,0,.48-.5,0-.5Z"/>
  </g>
  <g>
    <rect class="cls-4" x="159.16" y="112.74" width="6.37" height="12.61"/>
    <path class="cls-10" d="m165.53,125.1h-6.37c.12.08.25.17.37.25v-12.61c-.12.08-.25.17-.37.25h6.37c-.12-.08-.25-.17-.37-.25v12.61c0,.32.74.32.74,0v-12.61c0-.13-.17-.25-.37-.25h-6.37c-.2,0-.37.11-.37.25v12.61c0,.13.17.25.37.25h6.37c.48,0,.48-.5,0-.5Z"/>
  </g>
  <g>
    <rect class="cls-4" x="167.42" y="112.74" width="6.37" height="12.61"/>
    <path class="cls-10" d="m173.79,125.1h-6.37c.12.08.25.17.37.25v-12.61c-.12.08-.25.17-.37.25h6.37c-.12-.08-.25-.17-.37-.25v12.61c0,.32.74.32.74,0v-12.61c0-.13-.17-.25-.37-.25h-6.37c-.2,0-.37.11-.37.25v12.61c0,.13.17.25.37.25h6.37c.48,0,.48-.5,0-.5Z"/>
  </g>
  <rect class="cls-2" x="116.69" y="95.33" width="67.91" height="3.48"/>
  <path class="cls-10" d="m184.6,94.64h-59.56c-2.74,0-5.5-.11-8.24,0-.04,0-.08,0-.12,0-.35,0-.65.32-.65.7v3.48c0,.38.3.7.65.7h59.56c2.74,0,5.5.11,8.24,0,.04,0,.08,0,.12,0,.35,0,.65-.32.65-.7v-3.48c0-.9-1.29-.9-1.29,0v3.48c.22-.23.43-.47.65-.7h-65.13c-.85,0-1.82-.14-2.67,0-.04,0-.08,0-.12,0,.22.23.43.47.65.7v-3.48c-.22.23-.43.47-.65.7h59.56c2.74,0,5.5.11,8.24,0,.04,0,.08,0,.12,0,.83,0,.83-1.4,0-1.4Z"/>
  <polygon class="cls-1" points="30.46 35.52 28.29 35.52 22.6 35.52 20.43 35.52 10.63 156.33 22.6 156.33 28.29 156.33 40.26 156.33 30.46 35.52"/>
  <path class="cls-10" d="m40.26,157.31H10.63c-.27,0-.53-.11-.72-.32s-.28-.47-.26-.74l9.8-120.82c.04-.51.47-.9.98-.9h10.02c.51,0,.94.39.98.9l9.8,120.82c.02.27-.07.54-.26.74-.19.2-.45.32-.72.32Zm-28.56-1.96h27.5l-9.64-118.86h-8.22l-9.64,118.86Z"/>
  <rect class="cls-12" x="17.23" y="27.89" width="16.43" height="7.63"/>
  <path class="cls-10" d="m33.66,36.5h-16.43c-.54,0-.98-.44-.98-.98v-7.63c0-.54.44-.98.98-.98h16.43c.54,0,.98.44.98.98v7.63c0,.54-.44.98-.98.98Zm-15.45-1.96h14.47v-5.67h-14.47v5.67Z"/>
  <polygon class="cls-3" points="34.14 85.19 16.61 85.19 17.73 71.37 33.01 71.37 34.14 85.19"/>
  <path class="cls-10" d="m34.14,86.16h-17.52c-.27,0-.53-.11-.72-.32s-.28-.47-.26-.74l1.12-13.82c.04-.51.47-.9.98-.9h15.28c.51,0,.94.39.98.9l1.12,13.82c.02.27-.07.54-.26.74s-.45.32-.72.32Zm-16.46-1.96h15.4l-.96-11.86h-13.48l-.96,11.86Z"/>
  <polygon class="cls-3" points="32.05 58.42 18.7 58.42 19.55 45.74 31.19 45.74 32.05 58.42"/>
  <path class="cls-10" d="m32.05,59.4h-13.35c-.27,0-.53-.11-.72-.31-.19-.2-.28-.46-.26-.73l.85-12.68c.03-.51.46-.91.98-.91h11.64c.52,0,.94.4.98.91l.85,12.68c.02.27-.08.54-.26.73-.18.2-.44.31-.72.31Zm-12.3-1.96h11.25l-.72-10.72h-9.81l-.72,10.72Z"/>
  <polygon class="cls-3" points="36.51 111.7 14.38 111.7 15.8 97.88 35.1 97.88 36.51 111.7"/>
  <path class="cls-10" d="m36.52,112.68H14.38c-.28,0-.54-.12-.73-.32-.19-.21-.28-.48-.25-.76l1.42-13.82c.05-.5.47-.88.97-.88h19.3c.5,0,.92.38.97.88l1.42,13.82c.03.28-.06.55-.25.76-.19.21-.45.32-.73.32Zm-21.05-1.96h19.96l-1.21-11.86h-17.53l-1.21,11.86Z"/>
  <polygon class="cls-3" points="38.7 138.72 12.04 138.72 13.24 123.96 37.5 123.96 38.7 138.72"/>
  <path class="cls-10" d="m38.7,139.7H12.04c-.27,0-.53-.11-.72-.32s-.28-.47-.26-.74l1.2-14.76c.04-.51.47-.9.98-.9h24.26c.51,0,.93.39.98.9l1.21,14.76c.02.27-.07.54-.26.74-.19.2-.45.32-.72.32Zm-25.6-1.96h24.54l-1.05-12.81H14.14l-1.04,12.81Z"/>
  <polygon class="cls-1" points="62.83 44.86 60.66 44.86 54.97 44.86 52.81 44.86 43.01 156.33 54.97 156.33 60.66 156.33 72.63 156.33 62.83 44.86"/>
  <path class="cls-10" d="m72.63,157.28h-29.63c-.26,0-.52-.11-.69-.31-.18-.19-.27-.46-.24-.72l9.8-111.47c.04-.49.45-.86.94-.86h10.02c.49,0,.89.37.94.86l9.8,111.47c.02.26-.07.52-.24.72-.18.19-.43.31-.69.31Zm-28.6-1.88h27.57l-9.64-109.59h-8.3l-9.64,109.59Z"/>
  <rect class="cls-12" x="49.61" y="37.82" width="16.43" height="7.04"/>
  <path class="cls-10" d="m66.03,45.8h-16.43c-.52,0-.94-.42-.94-.94v-7.04c0-.52.42-.94.94-.94h16.43c.52,0,.94.42.94.94v7.04c0,.52-.42.94-.94.94Zm-15.49-1.88h14.55v-5.16h-14.55v5.16Z"/>
  <polygon class="cls-3" points="66.51 90.69 48.99 90.69 50.11 77.94 65.39 77.94 66.51 90.69"/>
  <path class="cls-10" d="m66.51,91.63h-17.52c-.26,0-.52-.11-.69-.31-.18-.19-.27-.46-.24-.72l1.12-12.75c.04-.49.45-.86.94-.86h15.28c.49,0,.89.37.94.86l1.12,12.75c.02.26-.07.52-.24.72-.18.19-.43.31-.69.31Zm-16.5-1.88h15.47l-.96-10.87h-13.56l-.96,10.87Z"/>
  <polygon class="cls-3" points="64.42 65.99 51.07 65.99 51.93 54.29 63.57 54.29 64.42 65.99"/>
  <path class="cls-10" d="m64.42,66.93h-13.35c-.26,0-.51-.11-.69-.3-.18-.19-.27-.45-.25-.71l.85-11.7c.04-.49.45-.87.94-.87h11.64c.49,0,.9.38.94.87l.85,11.7c.02.26-.07.52-.25.71-.18.19-.43.3-.69.3Zm-12.34-1.88h11.33l-.72-9.82h-9.89l-.72,9.82Z"/>
  <polygon class="cls-3" points="68.89 115.15 46.76 115.15 48.17 102.4 67.47 102.4 68.89 115.15"/>
  <path class="cls-10" d="m68.89,116.09h-22.13c-.27,0-.52-.11-.7-.31-.18-.2-.26-.47-.23-.73l1.42-12.75c.05-.48.46-.84.94-.84h19.3c.48,0,.88.36.94.84l1.42,12.75c.03.27-.06.53-.23.73-.18.2-.43.31-.7.31Zm-21.08-1.88h20.03l-1.21-10.87h-17.62l-1.21,10.87Z"/>
  <polygon class="cls-3" points="71.08 140.08 44.42 140.08 45.61 126.46 69.87 126.46 71.08 140.08"/>
  <path class="cls-10" d="m71.08,141.03h-26.66c-.26,0-.52-.11-.69-.31-.18-.19-.27-.46-.24-.72l1.2-13.62c.04-.49.45-.86.94-.86h24.26c.49,0,.89.37.94.86l1.21,13.62c.02.26-.07.52-.24.72-.18.19-.43.31-.69.31Zm-25.63-1.88h24.61l-1.04-11.74h-22.53l-1.03,11.74Z"/>
  <g>
    <rect class="cls-6" x="55.24" y="67.93" width="73.97" height="89.08"/>
    <path class="cls-10" d="m130.5,158.29H53.95v-91.66h76.55v91.66Zm-73.97-2.58h71.39v-86.5H56.53v86.5Z"/>
  </g>
  <g>
    <rect class="cls-4" x="62.11" y="115.07" width="9.62" height="25.11"/>
    <path class="cls-10" d="m71.73,139.69h-9.62c.19.16.37.33.56.49v-25.11c-.19.16-.37.33-.56.49h9.62c-.19-.16-.37-.33-.56-.49v25.11c0,.64,1.12.64,1.12,0v-25.11c0-.27-.26-.49-.56-.49h-9.62c-.3,0-.56.23-.56.49v25.11c0,.27.26.49.56.49h9.62c.72,0,.72-.99,0-.99Z"/>
  </g>
  <g>
    <rect class="cls-4" x="75.06" y="115.07" width="9.62" height="25.11"/>
    <path class="cls-10" d="m84.68,139.69h-9.62c.19.16.37.33.56.49v-25.11c-.19.16-.37.33-.56.49h9.62c-.19-.16-.37-.33-.56-.49v25.11c0,.64,1.12.64,1.12,0v-25.11c0-.27-.26-.49-.56-.49h-9.62c-.3,0-.56.23-.56.49v25.11c0,.27.26.49.56.49h9.62c.72,0,.72-.99,0-.99Z"/>
  </g>
  <g>
    <rect class="cls-4" x="87.81" y="115.07" width="9.62" height="25.11"/>
    <path class="cls-10" d="m97.43,139.69h-9.62c.19.16.37.33.56.49v-25.11c-.19.16-.37.33-.56.49h9.62c-.19-.16-.37-.33-.56-.49v25.11c0,.64,1.12.64,1.12,0v-25.11c0-.27-.26-.49-.56-.49h-9.62c-.3,0-.56.23-.56.49v25.11c0,.27.26.49.56.49h9.62c.72,0,.72-.99,0-.99Z"/>
  </g>
  <g>
    <rect class="cls-4" x="100.17" y="115.07" width="9.62" height="25.11"/>
    <path class="cls-10" d="m109.78,139.69h-9.62c.19.16.37.33.56.49v-25.11c-.19.16-.37.33-.56.49h9.62c-.19-.16-.37-.33-.56-.49v25.11c0,.64,1.12.64,1.12,0v-25.11c0-.27-.26-.49-.56-.49h-9.62c-.3,0-.56.23-.56.49v25.11c0,.27.26.49.56.49h9.62c.72,0,.72-.99,0-.99Z"/>
  </g>
  <g>
    <rect class="cls-4" x="112.85" y="115.07" width="9.62" height="25.11"/>
    <path class="cls-10" d="m122.46,139.69h-9.62c.19.16.37.33.56.49v-25.11c-.19.16-.37.33-.56.49h9.62c-.19-.16-.37-.33-.56-.49v25.11c0,.64,1.12.64,1.12,0v-25.11c0-.27-.26-.49-.56-.49h-9.62c-.3,0-.56.23-.56.49v25.11c0,.27.26.49.56.49h9.62c.72,0,.72-.99,0-.99Z"/>
  </g>
  <rect class="cls-2" x="51.34" y="62.3" width="81.89" height="5.39"/>
  <path class="cls-10" d="m133.23,61.22H61.42c-3.3,0-6.64-.18-9.94,0-.05,0-.09,0-.14,0-.42,0-.78.49-.78,1.08v5.39c0,.58.36,1.08.78,1.08h71.81c3.3,0,6.64.18,9.94,0,.05,0,.09,0,.14,0,.42,0,.78-.49.78-1.08v-5.39c0-1.39-1.56-1.39-1.56,0v5.39l.78-1.08H54.7c-1.03,0-2.2-.21-3.22,0-.04,0-.1,0-.14,0l.78,1.08v-5.39c-.26.36-.52.72-.78,1.08h71.81c3.3,0,6.64.18,9.94,0,.05,0,.09,0,.14,0,1,0,1.01-2.16,0-2.16Z"/>
  <rect class="cls-2" x="51.25" y="101.55" width="81.99" height="3.54"/>
  <path class="cls-10" d="m133.23,100.84H61.37c-3.32,0-6.66-.12-9.98,0-.05,0-.09,0-.14,0-.42,0-.78.32-.78.71v3.54c0,.38.36.71.78.71h71.87c3.32,0,6.66.12,9.98,0,.05,0,.09,0,.14,0,.42,0,.78-.32.78-.71v-3.54c0-.91-1.56-.91-1.56,0v3.54c.26-.24.52-.47.78-.71H54.6c-1.03,0-2.19-.14-3.21,0-.04,0-.1,0-.14,0,.26.24.52.47.78.71v-3.54c-.26.24-.52.47-.78.71h71.87c3.32,0,6.66.12,9.98,0,.05,0,.09,0,.14,0,1,0,1.01-1.42,0-1.42Z"/>
  <path class="cls-11" d="m25,155.12c-.01-.18-.02-.36-.02-.54,0-4.17,3.9-7.59,8.87-7.91,1.53-2.73,4.88-4.62,8.76-4.62,4.39,0,8.1,2.42,9.26,5.73.04,0,.09,0,.13,0,4.64,0,8.41,3.1,8.41,6.92,0,.14,0,.28-.02.42H25Z"/>
  <path class="cls-10" d="m24.09,155.12c-.22-4.85,4.03-8.71,9.76-9.21-.26.13-.53.25-.79.38,4.27-7.12,16.79-6.23,19.7,1.29-.29-.19-.59-.37-.88-.56,5.37-.11,9.61,3.72,9.44,8.11-.02.41-.41.76-.91.76H25c-1.18,0-1.18-1.52,0-1.52h35.39l-.91.76c.14-3.57-3.21-6.67-7.61-6.58-.41,0-.76-.24-.88-.56-2.05-5.29-10.42-6.96-14.94-2.72-.7.66-1.08,1.84-2.08,2.16-.64.2-1.43.17-2.1.36-.7.19-1.37.46-1.99.79-2.71,1.44-4.07,3.92-3.95,6.56.04.98-1.78.98-1.83,0Z"/>
  <path class="cls-11" d="m8.84,155.12c-.01-.18-.02-.36-.02-.54,0-4.17,3.9-7.59,8.87-7.91,1.53-2.73,4.88-4.62,8.76-4.62,4.39,0,8.1,2.42,9.26,5.73.04,0,.09,0,.13,0,4.64,0,8.41,3.1,8.41,6.92,0,.14,0,.28-.02.42H8.84Z"/>
  <path class="cls-10" d="m7.92,155.12c-.22-4.85,4.03-8.71,9.76-9.21-.26.13-.53.25-.79.38,4.27-7.12,16.79-6.23,19.7,1.29l-.88-.56c5.37-.11,9.61,3.72,9.44,8.11-.02.41-.41.76-.91.76H8.84c-1.18,0-1.18-1.52,0-1.52h35.39c-.3.25-.61.51-.91.76.14-3.57-3.21-6.67-7.61-6.58-.41,0-.76-.24-.88-.56-2.05-5.29-10.42-6.96-14.94-2.72-.7.66-1.08,1.84-2.08,2.16-.64.2-1.43.17-2.1.36-.7.19-1.37.46-1.99.79-2.71,1.44-4.07,3.92-3.95,6.56.04.98-1.78.98-1.83,0Z"/>
  <g>
    <rect class="cls-4" x="63.87" y="77.09" width="9.04" height="17.9"/>
    <path class="cls-10" d="m72.9,94.63h-9.04c.18.12.35.23.53.35v-17.9c-.18.12-.35.23-.53.35h9.04c-.18-.12-.35-.23-.53-.35v17.9c0,.45,1.05.45,1.05,0v-17.9c0-.19-.24-.35-.53-.35h-9.04c-.28,0-.53.16-.53.35v17.9c0,.19.24.35.53.35h9.04c.68,0,.68-.7,0-.7Z"/>
  </g>
  <g>
    <rect class="cls-4" x="76.04" y="77.09" width="9.04" height="17.9"/>
    <path class="cls-10" d="m85.07,94.63h-9.04c.18.12.35.23.53.35v-17.9c-.18.12-.35.23-.53.35h9.04c-.18-.12-.35-.23-.53-.35v17.9c0,.45,1.05.45,1.05,0v-17.9c0-.19-.24-.35-.53-.35h-9.04c-.28,0-.53.16-.53.35v17.9c0,.19.24.35.53.35h9.04c.68,0,.68-.7,0-.7Z"/>
  </g>
  <g>
    <rect class="cls-4" x="88.02" y="77.09" width="9.04" height="17.9"/>
    <path class="cls-10" d="m97.06,94.63h-9.04c.18.12.35.23.53.35v-17.9c-.18.12-.35.23-.53.35h9.04c-.18-.12-.35-.23-.53-.35v17.9c0,.45,1.05.45,1.05,0v-17.9c0-.19-.24-.35-.53-.35h-9.04c-.28,0-.53.16-.53.35v17.9c0,.19.24.35.53.35h9.04c.68,0,.68-.7,0-.7Z"/>
  </g>
  <g>
    <rect class="cls-4" x="99.87" y="77.09" width="9.04" height="17.9"/>
    <path class="cls-10" d="m108.9,94.63h-9.04c.18.12.35.23.53.35v-17.9c-.18.12-.35.23-.53.35h9.04c-.18-.12-.35-.23-.53-.35v17.9c0,.45,1.05.45,1.05,0v-17.9c0-.19-.24-.35-.53-.35h-9.04c-.28,0-.53.16-.53.35v17.9c0,.19.24.35.53.35h9.04c.68,0,.68-.7,0-.7Z"/>
  </g>
  <g>
    <rect class="cls-4" x="111.55" y="77.09" width="9.04" height="17.9"/>
    <path class="cls-10" d="m120.59,94.63h-9.04c.18.12.35.23.53.35v-17.9c-.18.12-.35.23-.53.35h9.04c-.18-.12-.35-.23-.53-.35v17.9c0,.45,1.05.45,1.05,0v-17.9c0-.19-.24-.35-.53-.35h-9.04c-.28,0-.53.16-.53.35v17.9c0,.19.24.35.53.35h9.04c.68,0,.68-.7,0-.7Z"/>
  </g>
  <rect class="cls-6" x="7.52" y="156.03" width="184.98" height="6.77"/>
  <path class="cls-10" d="m9.22,162.79v-6.77c-.56.42-1.13.83-1.7,1.25h177.46c2.31,0,4.9.24,7.2,0,.1-.01.22,0,.33,0-.56-.42-1.13-.83-1.69-1.25v6.77c0,1.61,3.39,1.61,3.39,0v-6.77c0-.68-.78-1.25-1.69-1.25H30.28c-7.46,0-14.98-.2-22.44,0-.11,0-.22,0-.33,0-.92,0-1.69.57-1.69,1.25v6.77c0,1.61,3.39,1.61,3.39,0h0Z"/>
</svg>