<?xml version="1.0" encoding="UTF-8"?>
<svg id="Camada_1" data-name="Camada 1" xmlns="http://www.w3.org/2000/svg" xmlns:xlink="http://www.w3.org/1999/xlink" viewBox="0 0 200 200">
  <defs>
    <style>
      .cls-1 {
        fill: #f7e8e1;
      }

      .cls-2 {
        fill: #fff;
      }

      .cls-3 {
        fill: #2a234e;
      }

      .cls-4 {
        opacity: .6;
      }

      .cls-5 {
        opacity: .35;
      }

      .cls-6 {
        fill: #40b8eb;
      }

      .cls-7 {
        clip-path: url(#clippath-1);
      }

      .cls-8 {
        opacity: .4;
      }

      .cls-9 {
        fill: #91d4f5;
      }

      .cls-10 {
        fill: #55a533;
      }

      .cls-11 {
        clip-path: url(#clippath);
      }

      .cls-12 {
        fill: #73b72b;
      }

      .cls-13 {
        fill: none;
      }

      .cls-14 {
        fill: #371b45;
      }
    </style>
    <clipPath id="clippath">
      <circle class="cls-13" cx="-107.48" cy="82.35" r="67.25"/>
    </clipPath>
    <clipPath id="clippath-1">
      <circle class="cls-13" cx="97.98" cy="80.07" r="67.25"/>
    </clipPath>
  </defs>
  <g class="cls-11">
    <g>
      <path class="cls-12" d="m-80.2,125.99c.35-3.31-.84-6.73-3.18-9.08-3-3.01-2.76-8.23-2.51-11.96.21-3.01-1.17-5.65-4.44-4.22-7.5,3.31-15.58-5.68-16.07-12.82-.16-7.57,2.84-13.55,7.77-18.96,3.42-3.75,9.05-3.95,12.93-.97,4.57,3.52,14.05-2.57,15.89-7.42.21-.55.43-1.32.32-1.81-1.12-5.03-8.1-6.76-11.32-2.95-2.09,2.47-5.44,2.83-7.95.76-4.61-3.81-6.71-1.83-9.5,2.88-.9,1.52-1.51,4.48-3.28,2.81-1.74-1.64-2.95-4.45-1.44-6.59,3.69-5.21,7.27-10.81,10.03-16.67.18-.38.69-.85.98-.82,6.56.63,7.56-7.78,9.76-12.14.77-1.54.59-2.35-.33-3.21-.94-.87-1.59-.23-2.23.83-1.08,1.78-2.16,3.57-3.25,5.33-.56.91-1,2.37-2.05,1.99-1.24-.45-1.58-2.14-1.22-3.54,1.04-4.01,3.03-8.31,6.16-11.09,2.37-2.1,6.34-3.16,8.82-.68,3.08,3.09,5.9,3.41,10.19,2.2,1.81-.51,3.75-1.06,5.58-1.23,3.1-.29,5.66-2.22,7.01-5.04,1.39-2.8,4.2-4.45,7.29-4.42,1.95.02,3.37-.77,4.37-2.91,1.79-3.82,5.58-6.22,9.67-6.73,6.08-.77,10.71.5,13.98,5.59.89,1.39,2.16,1.17,3.3,1.16,3-.04,6.17.12,9.04-.01C-3.72,4.19-.94,5.78.06,7.71c.68,1.3,1.7,1.64,2.76,1.7,1.46.08,3,.37,4.37.49,3.32.28,4.56,1.23,5.68,4.5.1,3-2.59,6.44-5.41,6.6-.82.04-1.79-.02-2.69-.18-2.52-.47-3.26,1.03-3.06,4.37.42,7.17-3.87,16.74-11.64,17.79-1.89.26-3,.75-2.75,3.71.13,1.55.03,3.33-1,4.7-2.36,3.13-4.04,6.87-3.73,10.81.25,3.1-3.02,4.74-5.34,2.66-2.53-2.26-4.93-4.75-7.19-7.32-1.74-1.98-3.02-1.73-4.45.85-1.23,2.22-2.97,4.37-4.01,6.55-1.33,2.77-4.18,4.29-6.41,1.51-2.67-2.57-4.16-3.65-7.48-3.49-1.18.06-2.34-.63-3.26-1.67-.93-1.06-2.02-2.24-3.05-.1-.98,2.02.81,2.24,1.47,3.05,1.2,1.47,2.58,2.72,3.89,3.98,2.3,2.22,2.06,4.95-.17,7.1-2.17,2.1-5.74,3.47-8.25.86-1.71-1.65-3.38-3.35-5.09-5-.81-.78-1.47-2.01-2.75-.04-1.36,2.09-.09,2.52.65,3.28,2.96,3.01,5.94,6,9,8.9,2.63,2.5,2.87,6.53.63,9.34-4.61,5.78-5.41,12.88-4.53,20.6.36,3.16.49,6.23.51,9.43.09,6.35-4.61,14.83-11.65,15.11-2.79.06-4.62-2.25-4.89-4.86-.23-2.25-.31-4.62-.41-6.91Z"/>
      <path class="cls-12" d="m15.03,97.57c.01.12.05.25.04.37-.22,1.86,1.47,4.14-.5,5.42-1.88,1.22-5.36,2.17-7.35.5-3.19-1.79-4.59-1.84-7.87-.81-2.64.83-5.7.17-7.06-2.53-1.61-2.95-.71-6.38.95-9.06,2.59-4.18,7.95-8,12.95-6.69,4.96,1.3,8.27,7.96,8.85,12.79Z"/>
      <path class="cls-12" d="m8.51,33.82c-.17,3.15-4.16,8.4-6.64,8.52-.65.03-1.57-.9-1.08-1.66,1.6-2.65,3.15-5.95,6.04-7.22.52-.23,1.62-.49,1.68.36Z"/>
      <path class="cls-12" d="m-2.15,79.98c-.88-.22-2.96,1.59-2.95-1.33.01-3.12,2.18-3.81,4.27-3.83,1.11-.01,3.05-1.29,3.18.87.32,2.76-1.98,4.36-4.5,4.29Z"/>
      <path class="cls-12" d="m21.67,100.09c-.34.92,1.36,2.63-.68,2.74-2.13.12-2.8-1.94-2.87-3.98-.04-1.17-1.08-3.23.6-3.4,2.91-.29,2.41,2.72,2.94,4.64Z"/>
    </g>
    <g>
      <path class="cls-10" d="m-76.13,138.73c-2.78-.56-4.46-3.14-4.73-5.72-.19-1.87-.28-3.83-.36-5.72l-.05-1.42c.32-3.01-.75-6.08-2.87-8.21-3.19-3.2-3.13-8.28-2.82-12.79.1-1.51-.26-2.78-.93-3.25-.46-.32-1.13-.29-2,.09-2.96,1.31-6.32.98-9.45-.91-4.38-2.64-7.8-8.04-8.13-12.82v-.05c-.16-7.25,2.4-13.51,8.04-19.7,3.71-4.07,9.89-4.55,14.38-1.1,1.49,1.15,3.57.89,5.04.47,3.8-1.08,8.1-4.54,9.19-7.42.28-.72.29-1.12.27-1.2-.52-2.32-2.48-3.58-4.14-3.99-2.06-.51-4.09.07-5.31,1.51-2.47,2.92-6.54,3.31-9.46.9-1.62-1.34-2.89-1.9-3.87-1.73-1.35.24-2.58,1.9-4.02,4.33-.17.29-.34.67-.52,1.07-.53,1.17-1.13,2.49-2.35,2.73-.7.14-1.4-.11-2.07-.75-2.16-2.03-3.39-5.43-1.58-7.99,4.41-6.23,7.56-11.48,9.94-16.51.3-.63,1.15-1.52,2.05-1.43,3.91.37,5.46-3.05,7.23-7.92.48-1.32.93-2.57,1.47-3.63.63-1.25.35-1.51-.11-1.94-.03-.03-.06-.06-.09-.07-.09.08-.25.27-.5.68-.37.61-.74,1.22-1.11,1.83-.71,1.17-1.42,2.35-2.15,3.51-.1.17-.2.36-.3.55-.43.81-1.31,2.51-3.03,1.88-1.87-.67-2.37-2.99-1.89-4.82.74-2.85,2.56-8.14,6.49-11.63,2.81-2.49,7.37-3.56,10.29-.63,2.62,2.63,4.92,3.11,9.14,1.92l.09-.02c1.77-.5,3.78-1.07,5.69-1.24,2.64-.25,4.93-1.9,6.13-4.43,1.56-3.15,4.72-5.07,8.27-5.03,1.63.02,2.61-.64,3.38-2.3,1.87-4,5.8-6.75,10.51-7.34,7.02-.88,11.79,1.05,15.02,6.08.44.69.93.71,1.98.68.14,0,.27,0,.4,0,1.22-.01,2.48,0,3.69.02,1.78.02,3.62.05,5.31-.03,2.59-.11,5.77,1.72,6.95,4,.4.76.9,1.07,1.87,1.12.87.05,1.74.17,2.59.28.64.08,1.24.16,1.82.21,3.76.32,5.37,1.59,6.6,5.22l.05.15v.16c.12,3.71-3.06,7.52-6.42,7.7-.94.05-1.98-.02-2.94-.2-.44-.08-1.03-.13-1.31.12-.29.25-.6,1-.47,3.13.42,7.16-3.71,17.72-12.57,18.92-1.42.19-2.01.27-1.82,2.55.2,2.31-.2,4.09-1.21,5.44-2.59,3.44-3.77,6.83-3.52,10.08.15,1.89-.74,3.55-2.31,4.33-1.57.78-3.42.48-4.82-.78-2.41-2.16-4.86-4.65-7.28-7.41-.81-.92-1.2-.95-1.3-.94-.13.01-.6.17-1.4,1.6-.56,1-1.21,1.98-1.84,2.93-.82,1.23-1.59,2.4-2.14,3.56-.98,2.04-2.58,3.37-4.3,3.57-1.42.16-2.79-.48-3.87-1.8-2.49-2.39-3.72-3.28-6.64-3.15-1.44.07-2.9-.66-4.12-2.04-.21-.24-.67-.76-.92-.9-.07.07-.19.23-.35.56-.31.64-.3.65.41,1.12.31.21.65.44.93.78.95,1.16,2.05,2.22,3.12,3.23.23.22.46.43.68.65,1.27,1.23,1.94,2.67,1.95,4.18,0,1.59-.73,3.13-2.11,4.47-1.71,1.66-3.89,2.62-5.83,2.59-1.5-.03-2.86-.64-3.94-1.76-.87-.84-1.76-1.72-2.65-2.61-.8-.79-1.6-1.59-2.41-2.37-.12-.12-.24-.25-.36-.37-.1-.11-.24-.26-.35-.36-.08.08-.22.23-.39.5-.62.95-.53,1.02.05,1.51.16.14.32.28.47.43,2.42,2.47,5.63,5.71,8.97,8.87,3.03,2.87,3.35,7.51.73,10.79-3.92,4.91-5.28,11.2-4.3,19.81.32,2.85.49,5.88.52,9.54.09,6.55-4.69,15.88-12.69,16.19-.45,0-.88-.03-1.28-.11Zm-2.99-12.71l.05,1.18c.08,1.86.16,3.78.35,5.59.2,1.91,1.47,3.95,3.8,3.9,6.58-.26,10.68-8.48,10.6-14.02-.03-3.64-.19-6.51-.51-9.32-1.05-9.21.46-16.01,4.76-21.39,1.91-2.4,1.68-5.79-.53-7.88-3.36-3.19-6.59-6.44-9.03-8.93-.1-.1-.21-.2-.33-.29-.74-.63-2.11-1.79-.46-4.33.41-.62,1.06-1.46,2.03-1.54.97-.08,1.62.6,2.09,1.1.09.1.19.2.28.3.81.79,1.62,1.59,2.43,2.39.88.88,1.76,1.75,2.66,2.61.72.74,1.54,1.11,2.46,1.13,1.38.03,2.98-.72,4.29-1.99.95-.92,1.46-1.93,1.46-2.92,0-.92-.43-1.81-1.29-2.63-.22-.21-.45-.43-.67-.64-1.11-1.06-2.27-2.16-3.3-3.43-.08-.1-.29-.24-.47-.36-.73-.5-2.26-1.53-1.14-3.84.19-.4.78-1.62,1.99-1.79,1.24-.17,2.16.88,2.84,1.64.76.87,1.64,1.35,2.4,1.31,3.73-.18,5.47,1.08,8.28,3.79l.09.1c.63.78,1.3,1.14,1.99,1.06.95-.11,1.97-1.04,2.61-2.36.62-1.3,1.47-2.58,2.29-3.82.61-.92,1.23-1.86,1.75-2.79.6-1.08,1.57-2.54,3.05-2.7,1.04-.11,2.07.43,3.15,1.66,2.36,2.69,4.75,5.12,7.1,7.23.75.67,1.66.84,2.43.46.78-.39,1.2-1.22,1.12-2.23-.3-3.79,1.03-7.67,3.94-11.54.68-.91.94-2.2.79-3.96-.31-3.59,1.25-4.54,3.67-4.87,6.84-.93,11.13-9.52,10.71-16.66-.1-1.68-.05-3.76,1.2-4.87.75-.66,1.8-.87,3.13-.62.79.15,1.67.21,2.43.17,2.13-.11,4.38-2.87,4.4-5.34-.95-2.72-1.82-3.37-4.7-3.61-.62-.05-1.28-.14-1.91-.22-.81-.11-1.64-.22-2.43-.26-1.72-.1-2.91-.85-3.65-2.28-.81-1.56-3.17-2.92-4.95-2.84-1.75.08-3.62.05-5.43.03-1.2-.02-2.45-.03-3.64-.02-.12,0-.24,0-.36,0-1.09.03-2.74.08-3.86-1.66-2.8-4.37-6.67-5.89-12.94-5.1-3.97.5-7.27,2.79-8.83,6.12-1.13,2.41-2.88,3.57-5.36,3.53-2.71-.03-5.13,1.43-6.31,3.82-1.52,3.2-4.47,5.32-7.87,5.63-1.71.16-3.54.67-5.3,1.17l-.09.02c-4.12,1.16-7.6,1.18-11.25-2.48-2.11-2.12-5.56-.85-7.34.72-3.5,3.11-5.16,7.95-5.83,10.55-.25.95-.03,1.94.45,2.22.15-.18.35-.57.48-.82.13-.24.25-.48.38-.69.72-1.16,1.43-2.33,2.14-3.5.37-.61.74-1.22,1.11-1.83.48-.78,1.1-1.6,2.06-1.74.63-.09,1.25.14,1.82.68,1.34,1.25,1.51,2.59.56,4.48-.48.95-.91,2.14-1.37,3.4-1.57,4.34-3.53,9.74-9.2,9.35-.06.06-.13.14-.16.19-2.43,5.15-5.64,10.5-10.13,16.84-1.24,1.75.1,4.06,1.3,5.19.09.08.15.13.2.16.24-.26.59-1.03.79-1.46.2-.43.4-.88.63-1.28,1.79-3.02,3.33-4.98,5.5-5.35,1.66-.29,3.45.4,5.61,2.19,2.02,1.66,4.73,1.4,6.44-.63,1.75-2.07,4.6-2.91,7.47-2.2,2.92.72,5.11,2.87,5.72,5.62.14.62.01,1.44-.36,2.43-1.34,3.53-6.1,7.45-10.61,8.72-2.8.79-5.2.51-6.94-.83-3.59-2.76-8.53-2.4-11.48.84-5.24,5.76-7.62,11.54-7.49,18.19.29,4.07,3.34,8.84,7.09,11.11,1.78,1.07,4.52,2.08,7.47.78,2-.88,3.34-.42,4.11.12,1.33.93,2,2.81,1.84,5.16-.28,4.04-.36,8.56,2.19,11.12,2.55,2.56,3.86,6.25,3.5,9.87Z"/>
      <path class="cls-10" d="m-4.24,104.33c-1.91-.39-3.54-1.55-4.43-3.31-1.56-2.86-1.21-6.56.99-10.11,2.88-4.65,8.65-8.6,14.14-7.16,5.7,1.49,9.07,8.91,9.65,13.7v.07c.03.13.06.32.04.55-.05.46.07,1.04.21,1.66.29,1.31.72,3.3-1.2,4.54-1.97,1.28-6,2.52-8.54.5-2.79-1.55-3.85-1.65-6.94-.68-1.35.42-2.69.49-3.91.24Zm9.78-18.59c-4.33-.88-9.06,2.53-11.39,6.3-.84,1.36-2.62,4.86-.92,7.98,1.16,2.3,3.74,2.66,5.79,2.02,3.66-1.15,5.37-.98,8.72.89l.16.11c1.55,1.29,4.54.42,6.08-.58.59-.38.58-.83.26-2.28-.15-.7-.33-1.5-.25-2.29v-.02c-.01-.06-.02-.12-.03-.17-.58-4.85-3.83-10.76-8.06-11.87-.12-.03-.25-.06-.37-.09Z"/>
      <path class="cls-10" d="m1.47,43.37c-.64-.13-1.26-.58-1.61-1.2-.39-.68-.38-1.46.03-2.09.21-.34.43-.74.66-1.13,1.43-2.46,3.05-5.26,5.85-6.48.44-.19,1.55-.58,2.41-.05.46.28.74.75.77,1.33v.13c-.19,3.49-4.5,9.38-7.66,9.53-.15,0-.3,0-.45-.04Zm.24-2.14s0,0,0,0c0,0,0,0,0,0Zm.19.04h0Zm-.15-.11s.08.08.12.1c1.65-.17,4.88-4.04,5.47-6.85-.03.01-.06.02-.09.03-2.15.94-3.52,3.31-4.85,5.59-.22.38-.44.75-.65,1.12Z"/>
      <path class="cls-10" d="m-4.55,81.37c-.25-.05-.5-.15-.73-.33-.9-.67-.89-1.97-.89-2.39,0-1.81.71-4.86,5.33-4.91.16,0,.47-.08.74-.15.76-.2,1.81-.47,2.64.14.53.38.82,1.01.88,1.86.16,1.44-.24,2.73-1.16,3.73-1.05,1.15-2.67,1.78-4.44,1.73h-.12s-.05-.02-.05-.02c-.11.01-.33.08-.48.13-.47.14-1.1.33-1.73.2Zm5.79-5.86c-.21.01-.57.11-.81.17-.41.11-.83.21-1.25.22-2.81.03-3.2,1.41-3.2,2.76,0,.29.02.48.05.59.16-.03.38-.1.53-.14.43-.13.91-.27,1.4-.2,1.1.01,2.11-.37,2.71-1.03.5-.54.7-1.24.61-2.06v-.06c-.01-.11-.02-.19-.04-.25Z"/>
      <path class="cls-10" d="m20.09,103.84c-.58-.12-1.1-.38-1.54-.78-1.16-1.06-1.46-2.86-1.5-4.17,0-.21-.08-.54-.14-.85-.19-.89-.43-2,.19-2.85.24-.32.69-.72,1.53-.81,3.26-.33,3.65,2.55,3.86,4.09.07.49.13.95.23,1.32l.09.33-.1.27c.01.12.09.36.15.53.19.6.46,1.42-.05,2.15-.51.75-1.44.8-1.75.82-.34.02-.66,0-.97-.07Zm-1.24-7.32c0,.26.1.77.17,1.07.09.41.18.83.19,1.23.04,1.26.33,2.23.8,2.66.14.13.38.29.85.28-.02-.06-.04-.11-.05-.16-.14-.43-.31-.95-.23-1.49-.1-.44-.16-.9-.22-1.34-.29-2.15-.52-2.34-1.5-2.24Z"/>
    </g>
  </g>
  <g>
    <g>
      <path class="cls-3" d="m146.79,71.48h0c1.28-1.4,3.48-1.38,4.75.03,19.04,21.13,15.45,51.91,15.38,53.29-.06,1.19-1.06,2.1-2.25,2.05-1.18-.05-2.1-1.07-2.04-2.26.02-.32,1.18-29.23-15.86-48.85-1.06-1.23-1.06-3.05.03-4.25Z"/>
      <g>
        <path class="cls-1" d="m169.04,127.09s.53-1.08.83-2.47c.21-.98-.4-1.95-1.37-2.22-1.46-.4-3.7-.86-5.8-.64-.96.1-1.69.87-1.74,1.83-.04.89,0,2.06.36,3.27l7.72.23Z"/>
        <path class="cls-2" d="m160.74,125.16c-2.41.44-5.57,1.13-9.34.74-1.82-.19-3.45,1.1-3.63,2.92,0,.03,0,.06,0,.09-.15,1.69,1,3.22,2.66,3.51,2.34.41,6.14.81,10.74.38,0,0,1.92,11.38,7.91,16.98,1.5,1.4,3.66,1.92,5.54,1.1.16-.07.32-.15.48-.24,1.21-.67,1.76-2.12,1.36-3.44v-.05s.3.88,1.3,1.62c2.66,1.97,6.58.06,6.34-3.24-.06-.83-.37-1.76-1.08-2.73,0,0-1.64-1.94-2.4-3.18,0,0,1.17-.29,1.85-1.69.7-1.45.32-3.17-.76-4.36-.42-.46-.96-.97-1.68-1.47,0,0-2.7-2.11-5.15-3.85-1.86-1.32-3.95-2.29-6.16-2.85h0c-2.61-.66-5.32-.72-7.96-.24Z"/>
        <path class="cls-3" d="m175.06,144.76c1.11,1.15,1.39,2.45,1.39,2.45.35.93.92,1.86.92,1.86.39-2.5-1.76-4.84-1.76-4.84-1.94-2.23-6.87-9.42-6.87-9.42,1.98,4.53,6.31,9.94,6.31,9.94Z"/>
        <path class="cls-3" d="m180.61,139.63s-4.26-4.01-8.36-8.81c0,0,6.75,6.08,9.32,8.63l-.96.18"/>
        <path class="cls-3" d="m163.84,121.7c1.74,0,3.47.37,4.66.7.97.27,1.59,1.24,1.37,2.22-.08.38-.18.74-.29,1.06,1.88.58,3.67,1.44,5.28,2.58,2.45,1.74,5.15,3.85,5.15,3.85.71.51,1.26,1.01,1.68,1.47,1.08,1.19,1.45,2.91.76,4.36-.68,1.4-1.85,1.69-1.85,1.69.76,1.24,2.4,3.18,2.4,3.18.72.98,1.02,1.9,1.08,2.73.17,2.38-1.82,4.04-3.94,4.04-.82,0-1.66-.25-2.4-.8-1-.74-1.32-1.62-1.32-1.62v.05c.42,1.32-.14,2.76-1.34,3.44-.16.09-.32.17-.48.24-.61.27-1.25.39-1.89.39-1.33,0-2.64-.54-3.65-1.49-5.98-5.6-7.91-16.98-7.91-16.98-1.4.13-2.72.18-3.94.18-2.82,0-5.16-.28-6.79-.57-1.67-.29-2.81-1.83-2.66-3.51,0-.03,0-.06,0-.09.16-1.7,1.6-2.93,3.28-2.93.12,0,.23,0,.35.02.77.08,1.52.11,2.24.11,2.79,0,5.18-.51,7.1-.85.08-.02.17-.03.25-.04-.05-.56-.06-1.09-.03-1.54.05-.96.78-1.73,1.74-1.83.38-.04.75-.06,1.13-.06m0-1.11h0c-.43,0-.85.02-1.25.06-1.51.16-2.66,1.37-2.73,2.88-.01.22-.02.45-.01.67-1.8.33-3.84.71-6.2.71-.72,0-1.43-.04-2.13-.11-.16-.02-.31-.02-.46-.02-2.28,0-4.16,1.69-4.38,3.93v.1c-.21,2.29,1.33,4.31,3.57,4.7,1.53.27,3.99.58,6.98.58,1.01,0,2.03-.04,3.05-.11.63,2.97,2.85,11.74,8.05,16.6,1.21,1.14,2.82,1.79,4.41,1.79.81,0,1.59-.16,2.33-.49.19-.08.38-.18.57-.28.75-.42,1.32-1.05,1.67-1.8.85.57,1.83.87,2.85.87,1.44,0,2.82-.59,3.79-1.63.91-.97,1.35-2.25,1.25-3.59-.08-1.13-.52-2.24-1.29-3.31l-.02-.03-.03-.03s-.91-1.07-1.65-2.09c.44-.35.9-.85,1.25-1.59.87-1.8.5-3.99-.94-5.58-.52-.58-1.14-1.12-1.84-1.62-.25-.2-2.84-2.21-5.17-3.87-1.39-.99-2.93-1.79-4.57-2.39,0-.04.02-.07.02-.11.34-1.55-.61-3.1-2.16-3.52-1.22-.34-3.08-.74-4.96-.74h0Z"/>
        <path class="cls-3" d="m169.59,125.67s-3.78-1.38-6.43-.79c0,0,2.58-1.63,6.92-.06l-.49.86Z"/>
        <path class="cls-1" d="m148.08,127.74c.58-1.22,1.89-1.99,3.33-1.84,3.77.38,6.92-.31,9.33-.75,2.64-.48,5.36-.42,7.97.24,2.21.56,4.29,1.53,6.15,2.85,2.45,1.74,5.15,3.86,5.15,3.86.72.5,1.26,1.01,1.68,1.48,1.02,1.12,1.41,2.73.86,4.11-2.53-3.01-6.02-5.68-10.22-7.59-5.38-2.45-10.94-3.19-15.64-2.42-.1.01-.25.04-.46.08-1.5.25-5.5.81-8.24.2.03-.08.06-.15.09-.22Z"/>
      </g>
    </g>
    <g>
      <path class="cls-3" d="m53.21,71.48h0c-1.28-1.4-3.48-1.38-4.75.03-19.04,21.13-15.45,51.91-15.38,53.29.06,1.19,1.06,2.1,2.25,2.05,1.18-.05,2.1-1.07,2.04-2.26-.02-.32-1.18-29.23,15.86-48.85,1.06-1.23,1.06-3.05-.03-4.25Z"/>
      <g>
        <path class="cls-1" d="m30.96,127.09s-.53-1.08-.83-2.47c-.21-.98.4-1.95,1.37-2.22,1.46-.4,3.7-.86,5.8-.64.96.1,1.69.87,1.74,1.83.04.89,0,2.06-.36,3.27l-7.72.23Z"/>
        <path class="cls-2" d="m39.26,125.16c2.41.44,5.57,1.13,9.34.74,1.82-.19,3.45,1.1,3.63,2.92,0,.03,0,.06,0,.09.15,1.69-1,3.22-2.66,3.51-2.34.41-6.14.81-10.74.38,0,0-1.92,11.38-7.91,16.98-1.5,1.4-3.66,1.92-5.54,1.1-.16-.07-.32-.15-.48-.24-1.21-.67-1.76-2.12-1.36-3.44v-.05s-.3.88-1.3,1.62c-2.66,1.97-6.58.06-6.34-3.24.06-.83.37-1.76,1.08-2.73,0,0,1.64-1.94,2.4-3.18,0,0-1.17-.29-1.85-1.69-.7-1.45-.32-3.17.76-4.36.42-.46.96-.97,1.68-1.47,0,0,2.7-2.11,5.15-3.85,1.86-1.32,3.95-2.29,6.16-2.85h0c2.61-.66,5.32-.72,7.96-.24Z"/>
        <path class="cls-3" d="m24.94,144.76c-1.11,1.15-1.39,2.45-1.39,2.45-.35.93-.92,1.86-.92,1.86-.39-2.5,1.76-4.84,1.76-4.84,1.94-2.23,6.87-9.42,6.87-9.42-1.98,4.53-6.31,9.94-6.31,9.94Z"/>
        <path class="cls-3" d="m19.39,139.63s4.26-4.01,8.36-8.81c0,0-6.75,6.08-9.32,8.63l.96.18"/>
        <path class="cls-3" d="m36.16,121.7c.38,0,.76.02,1.13.06.96.1,1.69.87,1.74,1.83.02.45.02.97-.03,1.54.08.01.17.02.25.04,1.92.35,4.31.85,7.1.85.72,0,1.47-.03,2.24-.11.12-.01.23-.02.35-.02,1.67,0,3.11,1.23,3.28,2.93,0,.03,0,.06,0,.09.15,1.69-1,3.22-2.66,3.51-1.63.28-3.97.57-6.79.57-1.23,0-2.55-.05-3.94-.18,0,0-1.92,11.38-7.91,16.98-1.01.94-2.33,1.49-3.65,1.49-.64,0-1.28-.13-1.89-.39-.16-.07-.32-.15-.48-.24-1.21-.67-1.76-2.12-1.36-3.44l.02-.05s-.31.88-1.32,1.62c-.74.55-1.58.8-2.4.8-2.12,0-4.11-1.66-3.94-4.04.06-.83.37-1.76,1.08-2.73,0,0,1.64-1.94,2.4-3.18,0,0-1.17-.29-1.85-1.69-.7-1.45-.32-3.17.76-4.36.42-.46.96-.97,1.68-1.47,0,0,2.7-2.11,5.15-3.85,1.61-1.14,3.39-2,5.28-2.58-.1-.32-.2-.67-.29-1.06-.21-.98.4-1.95,1.37-2.22,1.2-.33,2.92-.7,4.66-.7m0-1.11c-1.88,0-3.73.4-4.96.74-1.55.43-2.5,1.98-2.16,3.52,0,.04.02.07.02.11-1.65.6-3.18,1.4-4.57,2.39-2.33,1.65-4.92,3.67-5.17,3.87-.7.5-1.32,1.04-1.84,1.62-1.44,1.59-1.8,3.78-.94,5.58.35.74.81,1.24,1.25,1.59-.74,1.01-1.64,2.07-1.65,2.09l-.03.03-.02.03c-.78,1.06-1.21,2.17-1.29,3.31-.1,1.34.35,2.62,1.25,3.59.96,1.04,2.34,1.63,3.79,1.63,1.02,0,2-.3,2.85-.87.35.74.92,1.38,1.67,1.8.19.11.38.2.57.28.74.32,1.52.49,2.33.49,1.59,0,3.19-.65,4.41-1.79,5.19-4.86,7.42-13.63,8.05-16.6,1.01.07,2.04.11,3.05.11,3,0,5.45-.32,6.98-.58,2.24-.39,3.78-2.41,3.58-4.7v-.1c-.23-2.24-2.11-3.93-4.39-3.93-.15,0-.31,0-.46.02-.69.07-1.41.11-2.13.11-2.36,0-4.4-.37-6.2-.71,0-.22,0-.45-.01-.67-.08-1.51-1.22-2.72-2.73-2.88-.4-.04-.82-.06-1.25-.06h0Z"/>
        <path class="cls-3" d="m30.41,125.67s3.78-1.38,6.43-.79c0,0-2.58-1.63-6.92-.06l.49.86Z"/>
        <path class="cls-1" d="m51.92,127.74c-.58-1.22-1.89-1.99-3.33-1.84-3.77.38-6.92-.31-9.33-.75-2.64-.48-5.36-.42-7.97.24-2.21.56-4.29,1.53-6.15,2.85-2.45,1.74-5.15,3.86-5.15,3.86-.72.5-1.26,1.01-1.68,1.48-1.02,1.12-1.41,2.73-.86,4.11,2.53-3.01,6.02-5.68,10.22-7.59,5.38-2.45,10.94-3.19,15.64-2.42.1.01.25.04.46.08,1.5.25,5.5.81,8.24.2-.03-.08-.06-.15-.09-.22Z"/>
      </g>
    </g>
    <g>
      <path class="cls-14" d="m96.04,130.75l-2.58,58.75h-32.33c-.98,0-1.7-.92-1.48-1.87.18-.77.49-1.72,1.01-2.74,1.88-3.71,5.62-6.07,9.75-6.54,4.19-.49,10.82-.02,18.24,5.17l3.33-52.98c.07-1.07.95-1.9,2.03-1.9h0c1.16,0,2.08.96,2.03,2.12Z"/>
      <path class="cls-14" d="m104.17,130.75l2.58,58.75h32.33c.98,0,1.7-.92,1.48-1.87-.18-.77-.49-1.72-1.01-2.74-1.88-3.71-5.62-6.07-9.75-6.54-4.19-.49-10.82-.02-18.24,5.17l-3.33-52.98c-.07-1.07-.95-1.9-2.03-1.9h0c-1.16,0-2.08.96-2.03,2.12Z"/>
    </g>
    <g>
      <path class="cls-6" d="m162.91,62.61c.18.66.35,1.31.5,1.97,8.36,35.24-12.77,70.96-47.98,80.43-35.21,9.46-71.41-10.85-81.84-45.53-.19-.65-.38-1.3-.56-1.96-2.21-8.21-2.79-16.48-1.96-24.46,2.78-26.55,21.33-49.93,48.43-57.66.33-.1.67-.19,1-.28.34-.09.68-.18,1.01-.26,27.33-6.9,55.1,4.03,70.81,25.6,4.73,6.48,8.36,13.93,10.57,22.14Z"/>
      <g class="cls-7">
        <g>
          <path class="cls-12" d="m125.26,123.71c.35-3.31-.84-6.73-3.18-9.08-3-3.01-2.76-8.23-2.51-11.96.21-3.01-1.17-5.65-4.44-4.22-7.5,3.31-15.58-5.68-16.07-12.82-.16-7.57,2.84-13.55,7.77-18.96,3.42-3.75,9.05-3.95,12.93-.97,4.57,3.52,14.05-2.57,15.89-7.42.21-.55.43-1.32.32-1.81-1.12-5.03-8.1-6.76-11.32-2.95-2.09,2.47-5.44,2.83-7.95.76-4.61-3.81-6.71-1.83-9.5,2.88-.9,1.52-1.51,4.48-3.28,2.81-1.74-1.64-2.95-4.45-1.44-6.59,3.69-5.21,7.27-10.81,10.03-16.67.18-.38.69-.85.98-.82,6.56.63,7.56-7.78,9.76-12.14.77-1.54.59-2.35-.33-3.21-.94-.87-1.59-.23-2.23.83-1.08,1.78-2.16,3.57-3.25,5.33-.56.91-1,2.37-2.05,1.99-1.24-.45-1.58-2.14-1.22-3.54,1.04-4.01,3.03-8.31,6.16-11.09,2.37-2.1,6.34-3.16,8.82-.68,3.08,3.09,5.9,3.41,10.19,2.2,1.81-.51,3.75-1.06,5.58-1.23,3.1-.29,5.66-2.22,7.01-5.04,1.39-2.8,4.2-4.45,7.29-4.42,1.95.02,3.37-.77,4.37-2.91,1.79-3.82,5.58-6.22,9.67-6.73,6.08-.77,10.71.5,13.98,5.59.89,1.39,2.16,1.17,3.3,1.16,3-.04,6.17.12,9.04-.01,2.17-.1,4.95,1.49,5.95,3.42.68,1.3,1.7,1.64,2.76,1.7,1.46.08,3,.37,4.37.49,3.32.28,4.56,1.23,5.68,4.5.1,3-2.59,6.44-5.41,6.6-.82.04-1.79-.02-2.69-.18-2.52-.47-3.26,1.03-3.06,4.37.42,7.17-3.87,16.74-11.64,17.79-1.89.26-3,.75-2.75,3.71.13,1.55.03,3.33-1,4.7-2.36,3.13-4.04,6.87-3.73,10.81.25,3.1-3.02,4.74-5.34,2.66-2.53-2.26-4.93-4.75-7.19-7.32-1.74-1.98-3.02-1.73-4.45.85-1.23,2.22-2.97,4.37-4.01,6.55-1.33,2.77-4.18,4.29-6.41,1.51-2.67-2.57-4.16-3.65-7.48-3.49-1.18.06-2.34-.63-3.26-1.67-.93-1.06-2.02-2.24-3.05-.1-.98,2.02.81,2.24,1.47,3.05,1.2,1.47,2.58,2.72,3.89,3.98,2.3,2.22,2.06,4.95-.17,7.1-2.17,2.1-5.74,3.47-8.25.86-1.71-1.65-3.38-3.35-5.09-5-.81-.78-1.47-2.01-2.75-.04-1.36,2.09-.09,2.52.65,3.28,2.96,3.01,5.94,6,9,8.9,2.63,2.5,2.87,6.53.63,9.34-4.61,5.78-5.41,12.88-4.53,20.6.36,3.16.49,6.23.51,9.43.09,6.35-4.61,14.83-11.65,15.11-2.79.06-4.62-2.25-4.89-4.86-.23-2.25-.31-4.62-.41-6.91Z"/>
          <path class="cls-12" d="m7.28,56.44c-1.63-6.33-.29-10.76,6.64-11.93,10.33-2.2,20.6-4.7,30.77-7.48,1.72-.47,3.5-1.09,4.54.91.88,1.69.43,3.5-.56,5.31-1.75,3.21.62,4.59,2.78,6.24,1.82,1.39,4.29.58,6.29-.75,1.76-1.17.63-3.29.67-4.97.02-1.18-.38-2.52.69-3.35,1.1-.85,1.82.31,2.48,1,1.32,1.37,2.75,1.84,4.65,1.21,1.66-.55,3.25-.17,4.05,1.78.79,1.93.19,3.99-.88,5.74-4.35,7.16-9.07,14.35-13.32,21.31-1.82,2.99-5.64,3.36-8.74,3.98-3.11.61-3.83,3.79-3.08,6.45.31,1.1.73,1.93,1.72,1.75,3.92-.73,6.42,2.53,8.71,4.94,1.76,1.85,4.4,3.31,7.13,2.52,3.26-.94,5.65-.28,8.2,2.06,2,1.83,4.79,4.55,7.8,4.32,3.92-.3,3.68,10.82,2.37,13.44-3.58,7.16-8,14.69-12.36,21.56-2.37,3.73-3.45,7.76-2.93,12,.26,2.12.31,4.56.36,6.86.03,1.42.67,3.28-.27,4.2-1.18,1.14-2.26-.52-3.19-1.37-3.13-2.87-4.55-7.34-4.81-11.44-.19-3.04-.5-6.19-.51-9.22-.01-6.02-.82-12.56-5.47-16.99-4.15-4.3-3.85-14.83-1.35-19.64.65-1.26,2.67-2.34,1.65-4.1-1.07-1.84-2.5-4.25-4.53-3.88-4.14.74-7.87-2.51-10.37-5.39-2.44-2.81-4.9-5.65-7.76-8.07-4.21-3.53-4.4-9.35-5.11-14.24-.6-4.15-5.37-9.62-9.62-9.93-3.11-.23-4.79,3.03-6.63,5.2Z"/>
          <path class="cls-12" d="m220.49,95.29c.01.12.05.25.04.37-.22,1.86,1.47,4.14-.5,5.42-1.88,1.22-5.36,2.17-7.35.5-3.19-1.79-4.59-1.84-7.87-.81-2.64.83-5.7.17-7.06-2.53-1.61-2.95-.71-6.38.95-9.06,2.59-4.18,7.95-8,12.95-6.69,4.96,1.3,8.27,7.96,8.85,12.79Z"/>
          <path class="cls-12" d="m83.43,10.55c1.32-.41,2.73-.85,3.97-1.22,2.65-.78,7.52-3.5,8.93.76,2.01,6.11,1.65,11.34-1.49,16.55-2.67,4.43-5.78,9.14-8.43,13.87-2.22,3.96-4.02,4.15-6.29,1.2-1.31-1.7-2.88-3.34-3.07-5.67-.3-3.84-2.4-7.09-5.27-9.5-1.59-1.34-3.22-3.17-1.93-6.38,1.12-2.77,2.48-6.26,5.66-7.14,2.58-.72,5.28-1.62,7.92-2.44,0,0,0-.02,0-.02Z"/>
          <path class="cls-12" d="m58.79,33.65c-2.29.83-4.23,1.36-5.96.19-.73-.5-1.27-1.28-1.23-2.29.05-1.38,1.17-1.42,1.96-1.7,1.33-.47,2.67-.8,4.01-1.23,2.38-.77,4.94-.92,5,2.44.05,3.09-2.78,1.57-3.78,2.6Z"/>
          <path class="cls-12" d="m185.31,71.2c2.97.34,6.82,3.4,7.79,5.87.62,1.58-.83,2.13-1.58,2.11-2.27-.06-6.86-3.83-7.75-6.09-.33-.83.26-1.63,1.54-1.89Z"/>
          <path class="cls-12" d="m144.74,111.86c.03-2.6.49-5.89,3.17-7,2.01-.83,1.73,1.83,1.79,3.34.1,2.6-.31,5.92-3.1,7.02-2.24.88-1.43-1.93-1.86-3.36Z"/>
          <path class="cls-12" d="m107.66,33.13c.12,2.21.45,5.54-2.11,6.49-1.61.6-1.35-1.73-1.33-2.97.03-2.21-.49-5.65,1.91-6.8,2.07-.99.83,2.54,1.54,3.29Z"/>
          <path class="cls-12" d="m197.33,64.66c.09,2.26.22,4.55-2.09,4.83-1.84.22-1.23-1.97-1.43-3.22-.35-2.17.46-4.04,2.08-4.47,1.96-.52,1.06,1.92,1.44,2.86Z"/>
          <path class="cls-12" d="m102.73,37.74c.04,1.46-.34,2.52-1.61,2.82-.86.2-1.41-.17-1.48-1.31-.08-1.42.42-2.55,1.5-3.1,1.15-.59,1.47.4,1.58,1.58Z"/>
        </g>
        <g>
          <path class="cls-10" d="m129.33,136.45c-2.78-.56-4.46-3.14-4.73-5.72-.19-1.87-.28-3.83-.36-5.72l-.05-1.42c.32-3.01-.75-6.08-2.87-8.21-3.19-3.2-3.13-8.28-2.82-12.79.1-1.51-.26-2.78-.93-3.25-.46-.32-1.13-.29-2,.09-2.96,1.31-6.32.98-9.45-.91-4.38-2.64-7.8-8.04-8.13-12.82v-.05c-.16-7.25,2.4-13.51,8.04-19.7,3.71-4.07,9.89-4.55,14.38-1.1,1.49,1.15,3.57.89,5.04.47,3.8-1.08,8.1-4.54,9.19-7.42.28-.72.29-1.12.27-1.2-.52-2.32-2.48-3.58-4.14-3.99-2.06-.51-4.09.07-5.31,1.51-2.47,2.92-6.54,3.31-9.46.9-1.62-1.34-2.89-1.9-3.87-1.73-1.35.24-2.58,1.9-4.02,4.33-.17.29-.34.67-.52,1.07-.53,1.17-1.13,2.49-2.35,2.73-.7.14-1.4-.11-2.07-.75-2.16-2.03-3.39-5.43-1.58-7.99,4.41-6.23,7.56-11.48,9.94-16.51.3-.63,1.15-1.52,2.05-1.43,3.91.37,5.46-3.05,7.23-7.92.48-1.32.93-2.57,1.47-3.63.63-1.25.35-1.51-.11-1.94-.03-.03-.06-.06-.09-.07-.09.08-.25.27-.5.68-.37.61-.74,1.22-1.11,1.83-.71,1.17-1.42,2.35-2.15,3.51-.1.17-.2.36-.3.55-.43.81-1.31,2.51-3.03,1.88-1.87-.67-2.37-2.99-1.89-4.82.74-2.85,2.56-8.14,6.49-11.63,2.81-2.49,7.37-3.56,10.29-.63,2.62,2.63,4.92,3.11,9.14,1.92l.09-.02c1.77-.5,3.78-1.07,5.69-1.24,2.64-.25,4.93-1.9,6.13-4.43,1.56-3.15,4.72-5.07,8.27-5.03,1.63.02,2.61-.64,3.38-2.3,1.87-4,5.8-6.75,10.51-7.34,7.02-.88,11.79,1.05,15.02,6.08.44.69.93.71,1.98.68.14,0,.27,0,.4,0,1.22-.01,2.48,0,3.69.02,1.78.02,3.62.05,5.31-.03,2.59-.11,5.77,1.72,6.95,4,.4.76.9,1.07,1.87,1.12.87.05,1.74.17,2.59.28.64.08,1.24.16,1.82.21,3.76.32,5.37,1.59,6.6,5.22l.05.15v.16c.12,3.71-3.06,7.52-6.42,7.7-.94.05-1.98-.02-2.94-.2-.44-.08-1.03-.13-1.31.12-.29.25-.6,1-.47,3.13.42,7.16-3.71,17.72-12.57,18.92-1.42.19-2.01.27-1.82,2.55.2,2.31-.2,4.09-1.21,5.44-2.59,3.44-3.77,6.83-3.52,10.08.15,1.89-.74,3.55-2.31,4.33-1.57.78-3.42.48-4.82-.78-2.41-2.16-4.86-4.65-7.28-7.41-.81-.92-1.2-.95-1.3-.94-.13.01-.6.17-1.4,1.6-.56,1-1.21,1.98-1.84,2.93-.82,1.23-1.59,2.4-2.14,3.56-.98,2.04-2.58,3.37-4.3,3.57-1.42.16-2.79-.48-3.87-1.8-2.49-2.39-3.72-3.28-6.64-3.15-1.44.07-2.9-.66-4.12-2.04-.21-.24-.67-.76-.92-.9-.07.07-.19.23-.35.56-.31.64-.3.65.41,1.12.31.21.65.44.93.78.95,1.16,2.05,2.22,3.12,3.23.23.22.46.43.68.65,1.27,1.23,1.94,2.67,1.95,4.18,0,1.59-.73,3.13-2.11,4.47-1.71,1.66-3.89,2.62-5.83,2.59-1.5-.03-2.86-.64-3.94-1.76-.87-.84-1.76-1.72-2.65-2.61-.8-.79-1.6-1.59-2.41-2.37-.12-.12-.24-.25-.36-.37-.1-.11-.24-.26-.35-.36-.08.08-.22.23-.39.5-.62.95-.53,1.02.05,1.51.16.14.32.28.47.43,2.42,2.47,5.63,5.71,8.97,8.87,3.03,2.87,3.35,7.51.73,10.79-3.92,4.91-5.28,11.2-4.3,19.81.32,2.85.49,5.88.52,9.54.09,6.55-4.69,15.88-12.69,16.19-.45,0-.88-.03-1.28-.11Zm-2.99-12.71l.05,1.18c.08,1.86.16,3.78.35,5.59.2,1.91,1.47,3.95,3.8,3.9,6.58-.26,10.68-8.48,10.6-14.02-.03-3.64-.19-6.51-.51-9.32-1.05-9.21.46-16.01,4.76-21.39,1.91-2.4,1.68-5.79-.53-7.88-3.36-3.19-6.59-6.44-9.03-8.93-.1-.1-.21-.2-.33-.29-.74-.63-2.11-1.79-.46-4.33.41-.62,1.06-1.46,2.03-1.54.97-.08,1.62.6,2.09,1.1.09.1.19.2.28.3.81.79,1.62,1.59,2.43,2.39.88.88,1.76,1.75,2.66,2.61.72.74,1.54,1.11,2.46,1.13,1.38.03,2.98-.72,4.29-1.99.95-.92,1.46-1.93,1.46-2.92,0-.92-.43-1.81-1.29-2.63-.22-.21-.45-.43-.67-.64-1.11-1.06-2.27-2.16-3.3-3.43-.08-.1-.29-.24-.47-.36-.73-.5-2.26-1.53-1.14-3.84.19-.4.78-1.62,1.99-1.79,1.24-.17,2.16.88,2.84,1.64.76.87,1.64,1.35,2.4,1.31,3.73-.18,5.47,1.08,8.28,3.79l.09.1c.63.78,1.3,1.14,1.99,1.06.95-.11,1.97-1.04,2.61-2.36.62-1.3,1.47-2.58,2.29-3.82.61-.92,1.23-1.86,1.75-2.79.6-1.08,1.57-2.54,3.05-2.7,1.04-.11,2.07.43,3.15,1.66,2.36,2.69,4.75,5.12,7.1,7.23.75.67,1.66.84,2.43.46.78-.39,1.2-1.22,1.12-2.23-.3-3.79,1.03-7.67,3.94-11.54.68-.91.94-2.2.79-3.96-.31-3.59,1.25-4.54,3.67-4.87,6.84-.93,11.13-9.52,10.71-16.66-.1-1.68-.05-3.76,1.2-4.87.75-.66,1.8-.87,3.13-.62.79.15,1.67.21,2.43.17,2.13-.11,4.38-2.87,4.4-5.34-.95-2.72-1.82-3.37-4.7-3.61-.62-.05-1.28-.14-1.91-.22-.81-.11-1.64-.22-2.43-.26-1.72-.1-2.91-.85-3.65-2.28-.81-1.56-3.17-2.92-4.95-2.84-1.75.08-3.62.05-5.43.03-1.2-.02-2.45-.03-3.64-.02-.12,0-.24,0-.36,0-1.09.03-2.74.08-3.86-1.66-2.8-4.37-6.67-5.89-12.94-5.1-3.97.5-7.27,2.79-8.83,6.12-1.13,2.41-2.88,3.57-5.36,3.53-2.71-.03-5.13,1.43-6.31,3.82-1.52,3.2-4.47,5.32-7.87,5.63-1.71.16-3.54.67-5.3,1.17l-.09.02c-4.12,1.16-7.6,1.18-11.25-2.48-2.11-2.12-5.56-.85-7.34.72-3.5,3.11-5.16,7.95-5.83,10.55-.25.95-.03,1.94.45,2.22.15-.18.35-.57.48-.82.13-.24.25-.48.38-.69.72-1.16,1.43-2.33,2.14-3.5.37-.61.74-1.22,1.11-1.83.48-.78,1.1-1.6,2.06-1.74.63-.09,1.25.14,1.82.68,1.34,1.25,1.51,2.59.56,4.48-.48.95-.91,2.14-1.37,3.4-1.57,4.34-3.53,9.74-9.2,9.35-.06.06-.13.14-.16.19-2.43,5.15-5.64,10.5-10.13,16.84-1.24,1.75.1,4.06,1.3,5.19.09.08.15.13.2.16.24-.26.59-1.03.79-1.46.2-.43.4-.88.63-1.28,1.79-3.02,3.33-4.98,5.5-5.35,1.66-.29,3.45.4,5.61,2.19,2.02,1.66,4.73,1.4,6.44-.63,1.75-2.07,4.6-2.91,7.47-2.2,2.92.72,5.11,2.87,5.72,5.62.14.62.01,1.44-.36,2.43-1.34,3.53-6.1,7.45-10.61,8.72-2.8.79-5.2.51-6.94-.83-3.59-2.76-8.53-2.4-11.48.84-5.24,5.76-7.62,11.54-7.49,18.19.29,4.07,3.34,8.84,7.09,11.11,1.78,1.07,4.52,2.08,7.47.78,2-.88,3.34-.42,4.11.12,1.33.93,2,2.81,1.84,5.16-.28,4.04-.36,8.56,2.19,11.12,2.55,2.56,3.86,6.25,3.5,9.87Z"/>
          <path class="cls-10" d="m63.72,156.93c-.9-.18-1.6-.91-2.17-1.51-.16-.17-.32-.34-.48-.48-2.97-2.71-4.85-7.14-5.16-12.17-.05-.82-.11-1.64-.17-2.47-.16-2.25-.33-4.57-.34-6.81-.01-5.28-.61-11.9-5.14-16.22-4.62-4.79-4.13-15.98-1.57-20.92.25-.49.61-.9.96-1.3.88-1,.99-1.28.71-1.77-1.06-1.82-2.19-3.59-3.41-3.36-3.67.66-7.5-1.27-11.37-5.75-2.36-2.73-4.81-5.55-7.64-7.96-3.99-3.34-4.64-8.48-5.22-13.01-.08-.64-.16-1.28-.25-1.9-.52-3.62-4.89-8.73-8.63-9.01-1.92-.14-3.23,1.59-4.62,3.41-.36.47-.73.96-1.11,1.41l-1.34,1.58-.52-2.01c-1.05-4.07-.85-7.14.61-9.4,1.3-2.01,3.62-3.31,6.89-3.87,10.09-2.15,20.42-4.66,30.67-7.46l.26-.07c1.64-.46,4.13-1.14,5.52,1.52.94,1.82.76,3.88-.57,6.32-1.12,2.05-.21,2.85,1.95,4.47.18.13.36.27.53.4,1.62,1.24,4.07-.14,5.04-.79.59-.39.6-.91.36-2.39-.09-.56-.19-1.13-.17-1.71,0-.22-.01-.47-.03-.73-.06-1.04-.15-2.46,1.13-3.45,1.74-1.34,3.13.23,3.66.82.09.1.17.2.26.28,1.09,1.13,2.12,1.41,3.54.94,2.43-.8,4.44.1,5.38,2.4.82,2.01.49,4.33-.96,6.71-2.25,3.69-4.62,7.44-6.91,11.06-2.14,3.38-4.36,6.88-6.41,10.25-1.87,3.07-5.5,3.74-8.42,4.28-.35.06-.69.13-1.03.19-.87.17-1.53.61-1.95,1.29-.59.97-.71,2.39-.31,3.81.22.77.39.96.43,1,0,0,.03,0,.06,0,4.09-.76,6.8,2.15,8.97,4.49.24.26.48.52.72.77.7.73,3.2,3.06,6.05,2.23,3.58-1.04,6.34-.35,9.22,2.3l.27.25c1.82,1.67,4.31,3.97,6.72,3.78.8-.06,1.95.16,2.87,1.53,2.15,3.2,1.68,11.19.54,13.46-3.24,6.48-7.53,13.97-12.42,21.65-2.31,3.64-3.25,7.44-2.77,11.29.28,2.25.33,4.87.37,6.97,0,.34.06.73.11,1.14.16,1.26.36,2.82-.71,3.85-.6.58-1.21.69-1.62.69-.13,0-.26-.02-.39-.04Zm-15.89-69.11c2.1.43,3.5,2.85,4.4,4.39,1.11,1.91-.18,3.38-.95,4.26-.28.32-.54.62-.67.87-2.29,4.41-2.68,14.41,1.17,18.4,5.09,4.85,5.76,12.03,5.78,17.74,0,2.17.17,4.46.33,6.66.06.83.12,1.66.17,2.49.28,4.47,1.91,8.37,4.46,10.71.19.17.38.37.58.58.28.29.81.84,1.04.89,0,0,.04-.03.09-.08.3-.29.17-1.25.07-2.03-.06-.45-.12-.92-.13-1.37-.04-2.05-.09-4.61-.35-6.75-.54-4.36.5-8.64,3.09-12.71,4.85-7.63,9.1-15.05,12.31-21.46.89-1.78,1.21-8.89-.4-11.3-.42-.63-.77-.6-.92-.59-3.34.25-6.23-2.41-8.34-4.35l-.27-.25c-2.32-2.13-4.33-2.64-7.17-1.82-2.71.78-5.77-.27-8.2-2.81-.24-.26-.49-.52-.74-.79-2-2.15-4.07-4.38-7-3.84-1.41.26-2.4-.58-2.95-2.51-.56-1.99-.36-4.05.54-5.52.74-1.2,1.9-1.99,3.36-2.28.35-.07.7-.13,1.06-.2,2.75-.51,5.6-1.03,6.97-3.28,2.07-3.38,4.28-6.89,6.43-10.28,2.29-3.62,4.66-7.35,6.89-11.03.75-1.24,1.5-3.07.81-4.78-.32-.78-.94-1.75-2.72-1.16-2.22.73-4.1.24-5.76-1.49-.1-.11-.21-.23-.32-.35-.17-.19-.47-.53-.63-.61-.02.01-.06.03-.1.07-.34.27-.35.68-.3,1.62.02.29.04.59.03.9,0,.38.07.84.15,1.32.23,1.4.54,3.31-1.29,4.53-2.88,1.91-5.62,2.17-7.54.71-.17-.13-.34-.26-.52-.39-1.95-1.45-4.61-3.45-2.55-7.22.97-1.78,1.15-3.15.55-4.3-.51-.98-1.11-.97-3.03-.44l-.27.07c-10.28,2.81-20.66,5.33-30.83,7.5-2.73.46-4.51,1.42-5.49,2.93-.86,1.33-1.12,3.13-.79,5.46,1.46-1.89,3.29-3.98,6.12-3.77,4.83.36,9.95,6.36,10.6,10.84.09.63.17,1.28.26,1.93.56,4.34,1.13,8.83,4.48,11.64,2.96,2.52,5.46,5.4,7.88,8.19,3.34,3.86,6.5,5.55,9.37,5.04.44-.08.86-.07,1.25,0Z"/>
          <path class="cls-10" d="m201.21,102.05c-1.91-.39-3.54-1.55-4.43-3.31-1.56-2.86-1.21-6.56.99-10.11,2.88-4.65,8.65-8.6,14.14-7.16,5.7,1.49,9.07,8.91,9.65,13.7v.07c.03.13.06.32.04.55-.05.46.07,1.04.21,1.66.29,1.31.72,3.3-1.2,4.54-1.97,1.28-6,2.52-8.54.5-2.79-1.55-3.85-1.65-6.94-.68-1.35.42-2.69.49-3.91.24Zm9.78-18.59c-4.33-.88-9.06,2.53-11.39,6.3-.84,1.36-2.62,4.86-.92,7.98,1.16,2.3,3.74,2.66,5.79,2.02,3.66-1.15,5.37-.98,8.72.89l.16.11c1.55,1.29,4.54.42,6.08-.58.59-.38.58-.83.26-2.28-.15-.7-.33-1.5-.25-2.29v-.02c-.01-.06-.02-.12-.03-.17-.58-4.85-3.83-10.76-8.06-11.87-.12-.03-.25-.06-.37-.09Z"/>
          <path class="cls-10" d="m82.39,44.75c-1.35-.27-2.41-1.45-3.12-2.38-.18-.23-.37-.47-.55-.7-1.2-1.5-2.55-3.21-2.73-5.55-.32-4.12-2.84-7.04-4.89-8.76-1.08-.91-3.96-3.32-2.23-7.6l.05-.12c1.13-2.8,2.67-6.64,6.32-7.65,1.8-.5,3.69-1.1,5.52-1.68.52-.16,1.04-.33,1.55-.49h0s1.28-.42,1.28-.42c1.19-.37,2.42-.75,3.52-1.08.41-.12.89-.3,1.4-.48,2.07-.76,4.65-1.7,6.69-.71,1.01.49,1.74,1.38,2.16,2.65,2.15,6.53,1.65,12.07-1.59,17.44-.97,1.61-1.98,3.23-3.04,4.93-1.81,2.91-3.69,5.92-5.37,8.9-1.4,2.49-2.68,3.65-4.16,3.76-.28.02-.54,0-.79-.05Zm2.17-33.42v.02s-.81.25-.81.25c-.78.24-1.57.49-2.35.74-1.85.59-3.76,1.2-5.6,1.71-2.62.73-3.83,3.73-4.9,6.38l-.05.12c-.95,2.36-.09,3.72,1.62,5.15,2.37,1.99,5.28,5.38,5.66,10.24.13,1.68,1.17,2.99,2.27,4.37.19.24.39.49.57.73.83,1.08,1.54,1.64,2.06,1.6.37-.03,1.18-.41,2.44-2.67,1.7-3.03,3.59-6.06,5.42-8.99,1.06-1.7,2.06-3.31,3.03-4.91,2.93-4.86,3.36-9.69,1.39-15.66-.23-.71-.58-1.16-1.05-1.39-1.22-.59-3.33.18-5.02.8-.55.2-1.06.39-1.53.53-.98.29-2.08.63-3.14.96Z"/>
          <path class="cls-10" d="m54.02,35.5c-.61-.12-1.21-.37-1.8-.76-1.13-.77-1.75-1.94-1.7-3.22.08-1.93,1.6-2.36,2.33-2.57.12-.03.24-.07.35-.11.8-.28,1.6-.52,2.38-.74.55-.16,1.1-.32,1.65-.5,2.22-.72,3.84-.67,4.96.13.93.67,1.42,1.78,1.44,3.31.05,3-2.16,3.16-3.22,3.24-.28.02-.76.05-.87.13l-.17.18-.23.08c-1.76.64-3.48,1.16-5.13.83Zm6.46-6.21c-.46-.09-1.25-.07-2.58.36-.57.18-1.14.35-1.71.52-.79.23-1.53.45-2.27.71-.15.05-.32.1-.48.15-.75.21-.75.25-.76.58-.03.68.4,1.11.76,1.36,1.19.81,2.56.56,4.8-.24.62-.48,1.39-.54,2.03-.58,1.12-.08,1.24-.09,1.23-1.06-.01-.82-.2-1.35-.54-1.6-.1-.07-.25-.14-.47-.19Z"/>
          <path class="cls-10" d="m190.88,80.18c-2.84-.58-7.18-4.33-8.11-6.69-.25-.64-.21-1.31.1-1.89.4-.73,1.19-1.24,2.22-1.45l.17-.03.17.02c3.22.37,7.52,3.61,8.67,6.55.48,1.21.09,2.04-.19,2.43-.58.82-1.63,1.17-2.43,1.14-.19,0-.4-.03-.61-.07Zm-5.52-7.89c-.38.1-.56.26-.6.33,0,.01-.01.02,0,.07.78,1.97,5.02,5.36,6.78,5.41.22,0,.52-.11.61-.23.04-.06.02-.22-.06-.41-.78-1.97-4.14-4.77-6.74-5.17Z"/>
          <path class="cls-10" d="m145.46,116.42c-.22-.05-.43-.13-.62-.25-.92-.6-.97-1.77-1.01-2.81-.02-.45-.04-.91-.12-1.19l-.05-.16v-.16c.02-1.59.07-6.43,3.84-7.98,1.04-.43,1.74-.19,2.15.08,1.09.72,1.1,2.32,1.11,3.61,0,.22,0,.42.01.61.21,5.35-1.94,7.33-3.79,8.06-.57.23-1.09.29-1.53.2Zm.36-4.69c.12.49.14,1.03.16,1.55.01.29.03.73.08,1,.04-.01.09-.03.15-.05,1.74-.68,2.55-2.69,2.42-5.97,0-.21-.01-.44-.01-.68,0-.47-.01-1.39-.15-1.77-.04.01-.09.03-.15.05-1.63.67-2.45,2.59-2.51,5.87Z"/>
          <path class="cls-10" d="m200.91,79.09c-.25-.05-.5-.15-.73-.33-.9-.67-.89-1.97-.89-2.39,0-1.81.71-4.86,5.33-4.91.16,0,.47-.08.74-.15.76-.2,1.81-.47,2.64.14.53.38.82,1.01.88,1.86.16,1.44-.24,2.73-1.16,3.73-1.05,1.15-2.67,1.78-4.44,1.73h-.12s-.05-.02-.05-.02c-.11.01-.33.08-.48.13-.47.14-1.1.33-1.73.2Zm5.79-5.86c-.21.01-.57.11-.81.17-.41.11-.83.21-1.25.22-2.81.03-3.2,1.41-3.2,2.76,0,.29.02.48.05.59.16-.03.38-.1.53-.14.43-.13.91-.27,1.4-.2,1.1.01,2.11-.37,2.71-1.03.5-.54.7-1.24.61-2.06v-.06c-.01-.11-.02-.19-.04-.25Z"/>
          <path class="cls-10" d="m104.76,40.49c-.24-.05-.42-.14-.56-.24-.88-.64-.84-2.06-.8-3.2,0-.15,0-.28.01-.41,0-.33,0-.69-.01-1.07-.05-2.22-.12-5.25,2.38-6.45.67-.32,1.24-.34,1.69-.05.76.48.75,1.49.75,2.46,0,.34,0,.89.06,1.08l.18.18.04.64c.14,2.33.34,5.84-2.66,6.95-.43.16-.78.17-1.07.11Zm1.8-9.96s-.06.03-.09.04c-1.45.69-1.52,2.58-1.46,4.96,0,.4.02.78.01,1.13,0,.14,0,.28-.01.44-.01.46-.05,1.49.12,1.81.03,0,.08-.02.14-.04,1.73-.64,1.75-2.8,1.61-5.34v-.12c-.29-.5-.28-1.18-.28-1.89,0-.29,0-.72-.03-.99Z"/>
          <path class="cls-10" d="m194.5,70.53c-.35-.07-.66-.22-.92-.46-.79-.7-.79-1.84-.79-2.75,0-.34,0-.66-.04-.89-.45-2.78.73-5.11,2.87-5.68.77-.21,1.42-.12,1.91.26.79.62.78,1.65.77,2.48,0,.26,0,.64.03.76l.07.17v.27c.1,2.18.24,5.47-3.03,5.86-.31.04-.61.03-.87-.02Zm1.64-7.69c-1.01.29-1.53,1.62-1.26,3.25.06.4.06.82.06,1.23,0,.33,0,.87.07,1.1.03,0,.06,0,.11,0,1.04-.12,1.26-.79,1.15-3.57-.13-.44-.12-.92-.11-1.38,0-.18,0-.43,0-.63Z"/>
          <path class="cls-10" d="m100.32,41.39c-.29-.06-.52-.18-.68-.3-.48-.36-.75-.96-.8-1.78-.1-1.78.61-3.19,1.94-3.86.79-.4,1.35-.26,1.69-.08.78.43.98,1.46,1.06,2.31v.05c.07,2.05-.69,3.27-2.23,3.63-.4.09-.73.09-.99.03Zm1.39-4.58s-.1.03-.19.08c-.96.48-1.1,1.54-1.06,2.33.02.4.12.56.15.58.01.01.11.04.34-.01.36-.08,1.03-.24.99-1.98-.07-.65-.17-.9-.22-.99Z"/>
        </g>
      </g>
      <g class="cls-8">
        <path class="cls-2" d="m116.58,29.76c14.69,2.6,32.72,14.96,33.62,33.29.85,17.38-12.72,3.52-19.6-8.17-5.68-9.64-24.11-26.9-14.02-25.12Z"/>
      </g>
      <g class="cls-4">
        <path class="cls-2" d="m77.39,20.46c.33-.1.67-.19,1-.28.34-.09.68-.18,1.01-.26,27.33-6.9,55.1,4.03,70.81,25.6,4.73,6.48,8.36,13.93,10.57,22.14.18.66.35,1.31.5,1.97,3.18,13.4,2.09,26.87-2.41,38.94,6.23-13.3,8.17-28.69,4.54-44-.16-.66-.32-1.32-.5-1.97-2.21-8.21-5.84-15.66-10.57-22.14-15.71-21.57-43.48-32.5-70.81-25.6-.34.08-.68.17-1.01.26-.34.09-.67.18-1,.28-21.31,6.08-37.32,21.83-44.55,41.19,7.98-17.02,23.01-30.59,42.43-36.13Z"/>
      </g>
      <circle class="cls-13" cx="97.98" cy="80.07" r="67.25"/>
      <path class="cls-14" d="m84.25,147.75c-37.32-7.57-61.52-44.09-53.95-81.41C37.87,29.02,74.39,4.81,111.71,12.38c37.32,7.57,61.52,44.09,53.95,81.41-5.35,26.36-25.73,47.37-51.92,53.52-4.94,1.21-8.44,1.54-13.98,1.8h-.04c-5.16.13-10.36-.33-15.47-1.37Zm15.43-.44h0s0,0,0,0ZM110.99,15.94c-35.36-7.17-69.96,15.76-77.13,51.12-7.17,35.36,15.76,69.96,51.12,77.13,4.84.98,9.76,1.42,14.64,1.3,5.39-.25,8.59-.55,13.28-1.7,24.83-5.83,44.14-25.74,49.21-50.72,7.17-35.36-15.76-69.96-51.12-77.13Z"/>
      <g class="cls-5">
        <path class="cls-14" d="m115.87,140.16c-35.2,9.46-71.4-10.85-81.84-45.53-.19-.65-.38-1.3-.55-1.96-2.21-8.21-2.79-16.48-1.96-24.46.6-5.7,1.92-11.25,3.9-16.53-.28,6.66.44,13.46,2.26,20.24.18.66.36,1.31.55,1.96,10.44,34.68,46.64,54.99,81.84,45.53,21.79-5.86,38.19-21.77,45.54-41.4-1.18,28.59-20.65,54.33-49.75,62.15Z"/>
      </g>
    </g>
    <g>
      <path class="cls-3" d="m97.98,75.57c-2.75,0-4.97,1.95-4.97,4.37,0,.46.08.91.25,1.32.06-2.25,2.14-4.04,4.72-4.04s4.65,1.79,4.72,4.04c.17-.41.25-.86.25-1.32,0-2.42-2.22-4.37-4.97-4.37Z"/>
      <path class="cls-3" d="m105.29,71.27s10.66-11.92,24.93,1.08l4.62-2.77s-4.12-3.72-10.1-5.85c-7.1-2.54-15.18.08-18.95,6.61-.17.3-.34.6-.5.92Z"/>
      <path class="cls-3" d="m90.66,71.27s-10.66-11.92-24.93,1.08l-4.62-2.77s4.12-3.72,10.1-5.85c7.1-2.54,15.18.08,18.95,6.61.17.3.34.6.5.92Z"/>
      <path class="cls-3" d="m118.15,51.47s7.86,8.3,17.19,3.92c0,0-1.22,1.97-4.36,2.82-3.91,1.06-8.17-.13-10.86-3.16-.85-.95-1.59-2.14-1.97-3.58Z"/>
      <path class="cls-3" d="m77.81,51.47s-7.86,8.3-17.19,3.92c0,0,1.22,1.97,4.36,2.82,3.91,1.06,8.17-.13,10.86-3.16.85-.95,1.59-2.14,1.97-3.58Z"/>
    </g>
    <path class="cls-3" d="m93.55,86.77c-2.88,1.23-6.17,3.61-6.55,8.09,0,0,.8-2.32,3.55-4.37,4.14-3.08,10.71-3.08,14.85,0,2.75,2.04,3.55,4.37,3.55,4.37-.38-4.47-3.67-6.85-6.55-8.09-2.73-1.17-6.12-1.17-8.85,0Z"/>
    <g>
      <path class="cls-9" d="m66.48,85.13c1.57,4.25-2.05,8.6-6.51,7.83h0s0,0,0,0c-4.46-.76-6.42-6.07-3.53-9.55h0s6.51-7.83,6.51-7.83l3.53,9.55h0Z"/>
      <path class="cls-3" d="m62.95,75.57l3.53,9.55c1.45,3.92-1.52,7.92-5.49,7.92-.33,0-.68-.03-1.02-.09-4.46-.76-6.42-6.07-3.53-9.55l6.51-7.83m0-2c-.59,0-1.15.26-1.54.72l-6.51,7.83c-1.82,2.19-2.32,5.1-1.33,7.77.99,2.67,3.25,4.56,6.06,5.04.45.08.91.12,1.36.12,2.56,0,4.96-1.27,6.44-3.39,1.49-2.14,1.83-4.77.92-7.23l-3.53-9.55c-.25-.67-.83-1.16-1.54-1.28-.11-.02-.23-.03-.34-.03h0Z"/>
    </g>
    <g>
      <path class="cls-9" d="m139.13,89.13c3.1,3.3,1.48,8.72-2.93,9.75h0s0,0,0,0c-4.41,1.04-8.29-3.08-6.98-7.42h0s2.93-9.75,2.93-9.75l6.98,7.42h0Z"/>
      <path class="cls-3" d="m132.14,81.71l6.98,7.42c2.86,3.04,1.7,7.88-1.95,9.44-.31.13-.63.24-.98.32-4.41,1.04-8.28-3.08-6.98-7.42l2.93-9.75m-.78-1.84c-.54.23-.96.69-1.13,1.27l-2.93,9.75c-.82,2.73-.14,5.6,1.81,7.67,1.95,2.07,4.77,2.92,7.55,2.27.45-.11.88-.25,1.3-.42,2.35-1,4.07-3.11,4.61-5.64.54-2.55-.18-5.11-1.98-7.01l-6.98-7.42c-.49-.52-1.22-.74-1.92-.58-.11.03-.22.06-.32.11h0Z"/>
    </g>
    <path class="cls-2" d="m56.67,84.58c-.52,1.1-1,2.36-.69,3.59s1.5,1.98,2.68,2.32c.5.14,1.11-.18,1.23-.7s-.16-1.08-.7-1.23c-.14-.04-.28-.09-.42-.14-.08-.03-.22-.13.02.01-.05-.03-.1-.05-.15-.07-.11-.05-.22-.11-.32-.18-.04-.03-.08-.06-.12-.08-.15-.1.19.16.05.04-.07-.07-.14-.13-.21-.2-.14-.15.12.2.04.05-.02-.04-.05-.07-.07-.1s-.04-.07-.06-.11c-.11-.18.05.14.02.07-.03-.09-.06-.17-.08-.26,0-.04-.02-.08-.02-.12-.04-.17.02.26.01.1,0-.1-.01-.21,0-.31,0-.05,0-.09,0-.14.02-.18,0,0-.01.08.02-.12.04-.23.07-.35.05-.23.13-.46.21-.69.02-.06.04-.11.06-.17.03-.08.12-.21,0,.01.08-.13.12-.28.19-.41.22-.47.15-1.1-.36-1.37-.44-.23-1.13-.15-1.37.36h0Z"/>
    <path class="cls-2" d="m130.7,91.54c-.52,1.1-1,2.36-.69,3.59s1.5,1.98,2.68,2.32c.5.14,1.11-.18,1.23-.7s-.16-1.08-.7-1.23c-.14-.04-.28-.09-.42-.14-.08-.03-.22-.13.02.01-.05-.03-.1-.05-.15-.07-.11-.05-.22-.11-.32-.18-.04-.03-.08-.06-.12-.08-.15-.1.19.16.05.04-.07-.07-.14-.13-.21-.2-.14-.15.12.2.04.05-.02-.04-.05-.07-.07-.1s-.04-.07-.06-.11c-.11-.18.05.14.02.07-.03-.09-.06-.17-.08-.26,0-.04-.02-.08-.02-.12-.04-.17.02.26.01.1,0-.1-.01-.21,0-.31,0-.05,0-.09,0-.14.02-.18,0,0-.01.08.02-.12.04-.23.07-.35.05-.23.13-.46.21-.69.02-.06.04-.11.06-.17.03-.08.12-.21,0,.01.08-.13.12-.28.19-.41.22-.47.15-1.1-.36-1.37-.44-.23-1.13-.15-1.37.36h0Z"/>
  </g>
</svg>