<?xml version="1.0" encoding="UTF-8"?>
<svg id="Camada_1" data-name="Camada 1" xmlns="http://www.w3.org/2000/svg" xmlns:xlink="http://www.w3.org/1999/xlink" viewBox="0 0 200 200">
  <defs>
    <style>
      .cls-1 {
        fill: #f7e8e1;
      }

      .cls-2 {
        fill: #fff;
      }

      .cls-3 {
        fill: #2a234e;
      }

      .cls-4 {
        opacity: .6;
      }

      .cls-5 {
        clip-path: url(#clippath-2);
      }

      .cls-6 {
        opacity: .35;
      }

      .cls-7 {
        fill: #40b8eb;
      }

      .cls-8 {
        clip-path: url(#clippath-1);
      }

      .cls-9 {
        opacity: .4;
      }

      .cls-10 {
        fill: #be3f3e;
      }

      .cls-11 {
        fill: #29235c;
      }

      .cls-12 {
        fill: #55a533;
      }

      .cls-13 {
        clip-path: url(#clippath);
      }

      .cls-14 {
        fill: #73b72b;
      }

      .cls-15 {
        fill: none;
      }

      .cls-16 {
        fill: #371b45;
      }

      .cls-17 {
        fill: #bbb;
      }

      .cls-18 {
        fill: #d9d9d9;
      }
    </style>
    <clipPath id="clippath">
      <circle class="cls-15" cx="106.87" cy="78.63" r="71.2"/>
    </clipPath>
    <clipPath id="clippath-1">
      <path class="cls-15" d="m67.88,68.61h31.44s1.74,12.08-7.6,17.36c-4.99,2.82-11.23,2.69-16.05-.41-3.96-2.55-7.89-7.47-7.78-16.95Z"/>
    </clipPath>
    <clipPath id="clippath-2">
      <path class="cls-15" d="m111.08,68.61h31.44s1.74,12.08-7.6,17.36c-4.99,2.82-11.23,2.69-16.05-.41-3.96-2.55-7.89-7.47-7.78-16.95Z"/>
    </clipPath>
  </defs>
  <g>
    <g>
      <path class="cls-16" d="m104.82,132.29l-2.73,62.2h-34.23c-1.04,0-1.8-.97-1.56-1.98.19-.82.52-1.82,1.07-2.91,1.99-3.93,5.95-6.42,10.33-6.93,4.43-.51,11.46-.02,19.31,5.48l3.53-56.09c.07-1.13,1.01-2.01,2.14-2.01h0c1.22,0,2.2,1.02,2.15,2.24Z"/>
      <path class="cls-16" d="m113.42,132.29l2.73,62.2h34.23c1.04,0,1.8-.97,1.56-1.98-.19-.82-.52-1.82-1.07-2.91-1.99-3.93-5.95-6.42-10.33-6.93-4.43-.51-11.46-.02-19.31,5.48l-3.53-56.09c-.07-1.13-1.01-2.01-2.14-2.01h0c-1.22,0-2.2,1.02-2.15,2.24Z"/>
    </g>
    <g>
      <path class="cls-7" d="m175.63,60.15c.19.69.37,1.39.53,2.09,8.85,37.31-13.52,75.14-50.8,85.16-37.28,10.02-75.6-11.48-86.65-48.2-.21-.69-.4-1.38-.59-2.07-2.34-8.7-2.96-17.45-2.07-25.9,2.95-28.11,22.58-52.87,51.28-61.05.35-.1.7-.2,1.06-.29.36-.1.72-.19,1.07-.28,28.94-7.31,58.34,4.27,74.98,27.11,5,6.87,8.85,14.75,11.19,23.44Z"/>
      <g class="cls-13">
        <g>
          <path class="cls-14" d="m135.76,124.85c.37-3.51-.89-7.13-3.37-9.61-3.18-3.19-2.92-8.71-2.65-12.66.22-3.18-1.24-5.99-4.7-4.46-7.94,3.5-16.49-6.01-17.02-13.57-.17-8.01,3.01-14.35,8.22-20.07,3.62-3.97,9.58-4.18,13.69-1.02,4.84,3.72,14.88-2.72,16.83-7.86.22-.59.45-1.39.34-1.92-1.18-5.33-8.57-7.16-11.99-3.13-2.21,2.61-5.76,3-8.42.81-4.88-4.03-7.1-1.94-10.05,3.05-.95,1.61-1.59,4.74-3.47,2.98-1.84-1.74-3.12-4.72-1.52-6.98,3.9-5.52,7.7-11.45,10.62-17.66.19-.41.73-.9,1.03-.87,6.94.67,8.01-8.24,10.33-12.86.82-1.63.62-2.49-.35-3.39-.99-.93-1.68-.24-2.36.88-1.15,1.88-2.28,3.78-3.44,5.65-.59.96-1.05,2.51-2.17,2.11-1.31-.47-1.67-2.26-1.29-3.75,1.1-4.24,3.21-8.8,6.52-11.74,2.51-2.23,6.71-3.35,9.33-.72,3.26,3.27,6.24,3.61,10.79,2.33,1.91-.54,3.97-1.12,5.91-1.3,3.28-.31,6-2.35,7.42-5.33,1.47-2.97,4.45-4.72,7.72-4.68,2.06.03,3.56-.81,4.63-3.09,1.89-4.05,5.91-6.58,10.24-7.13,6.44-.81,11.34.53,14.8,5.92.94,1.47,2.28,1.24,3.5,1.23,3.18-.04,6.53.12,9.57-.01,2.3-.1,5.24,1.57,6.3,3.62.71,1.38,1.8,1.74,2.92,1.8,1.55.09,3.17.39,4.63.51,3.51.3,4.83,1.3,6.01,4.76.1,3.18-2.74,6.82-5.73,6.98-.87.05-1.9-.02-2.85-.19-2.67-.5-3.45,1.09-3.24,4.63.45,7.59-4.09,17.72-12.32,18.84-2,.27-3.18.79-2.91,3.93.14,1.64.03,3.53-1.06,4.97-2.5,3.32-4.28,7.27-3.95,11.45.26,3.29-3.2,5.02-5.66,2.82-2.67-2.4-5.22-5.03-7.61-7.75-1.84-2.1-3.2-1.83-4.71.9-1.31,2.35-3.14,4.63-4.24,6.94-1.4,2.93-4.43,4.55-6.79,1.6-2.82-2.72-4.41-3.86-7.92-3.7-1.25.06-2.48-.67-3.45-1.77-.99-1.12-2.14-2.37-3.23-.1-1.03,2.14.86,2.38,1.56,3.23,1.27,1.55,2.73,2.88,4.12,4.21,2.44,2.35,2.18,5.24-.18,7.52-2.3,2.22-6.07,3.67-8.73.91-1.82-1.75-3.58-3.55-5.39-5.3-.86-.83-1.56-2.13-2.92-.05-1.44,2.21-.1,2.67.69,3.47,3.13,3.19,6.29,6.35,9.53,9.42,2.79,2.65,3.04,6.92.67,9.88-4.88,6.12-5.73,13.64-4.79,21.81.38,3.35.52,6.6.54,9.98.09,6.72-4.88,15.71-12.34,16-2.96.06-4.89-2.39-5.18-5.15-.25-2.38-.32-4.89-.44-7.32Z"/>
          <path class="cls-14" d="m10.84,53.61c-1.73-6.7-.3-11.39,7.03-12.64,10.94-2.33,21.81-4.98,32.58-7.92,1.82-.5,3.71-1.15,4.81.96.93,1.79.45,3.7-.59,5.62-1.86,3.4.66,4.86,2.94,6.6,1.93,1.47,4.55.61,6.66-.79,1.86-1.24.67-3.48.71-5.26.02-1.25-.41-2.67.73-3.54,1.17-.9,1.93.33,2.63,1.06,1.4,1.46,2.91,1.95,4.93,1.29,1.76-.58,3.44-.18,4.29,1.88.83,2.05.2,4.22-.93,6.08-4.61,7.58-9.61,15.19-14.1,22.56-1.93,3.16-5.97,3.56-9.25,4.21-3.3.65-4.06,4.01-3.26,6.83.33,1.16.78,2.05,1.82,1.85,4.15-.77,6.79,2.68,9.23,5.23,1.87,1.96,4.66,3.51,7.55,2.67,3.45-1,5.98-.3,8.68,2.18,2.12,1.94,5.08,4.81,8.26,4.57,4.15-.32,3.89,11.46,2.51,14.23-3.79,7.58-8.47,15.55-13.09,22.82-2.51,3.95-3.66,8.22-3.11,12.71.28,2.25.33,4.83.38,7.26.03,1.51.71,3.48-.29,4.44-1.25,1.21-2.39-.55-3.37-1.45-3.32-3.03-4.82-7.77-5.09-12.11-.2-3.22-.53-6.56-.53-9.76-.02-6.37-.87-13.3-5.8-17.99-4.4-4.55-4.08-15.7-1.43-20.8.69-1.33,2.83-2.47,1.74-4.34-1.13-1.95-2.65-4.5-4.79-4.11-4.39.79-8.34-2.66-10.98-5.71-2.58-2.98-5.19-5.98-8.21-8.55-4.46-3.73-4.66-9.9-5.41-15.08-.64-4.39-5.69-10.18-10.18-10.51-3.29-.24-5.07,3.21-7.02,5.5Z"/>
          <path class="cls-14" d="m91.46,5.03c1.4-.44,2.89-.9,4.2-1.29,2.81-.83,7.96-3.71,9.45.81,2.13,6.46,1.75,12.01-1.57,17.52-2.83,4.69-6.12,9.68-8.93,14.68-2.35,4.19-4.26,4.39-6.66,1.27-1.39-1.8-3.05-3.53-3.25-6.01-.31-4.06-2.54-7.51-5.58-10.06-1.69-1.41-3.41-3.36-2.04-6.75,1.18-2.93,2.62-6.63,5.99-7.56,2.74-.76,5.59-1.71,8.39-2.58,0,0,0-.02,0-.02Z"/>
          <path class="cls-14" d="m65.38,29.49c-2.43.88-4.48,1.44-6.31.2-.77-.52-1.34-1.36-1.3-2.42.06-1.47,1.24-1.51,2.08-1.8,1.4-.49,2.83-.85,4.24-1.31,2.52-.81,5.23-.97,5.29,2.58.06,3.27-2.95,1.67-4,2.75Z"/>
          <path class="cls-14" d="m199.34,69.25c3.15.36,7.22,3.6,8.25,6.22.66,1.67-.88,2.25-1.68,2.23-2.4-.07-7.26-4.05-8.21-6.45-.35-.88.27-1.73,1.63-2Z"/>
          <path class="cls-14" d="m156.38,112.29c.03-2.75.52-6.24,3.36-7.41,2.13-.88,1.83,1.94,1.9,3.54.11,2.76-.33,6.27-3.29,7.43-2.37.93-1.52-2.04-1.97-3.56Z"/>
          <path class="cls-14" d="m117.12,28.94c.13,2.34.48,5.87-2.24,6.87-1.71.63-1.43-1.83-1.41-3.15.03-2.34-.52-5.98,2.02-7.2,2.19-1.05.88,2.69,1.63,3.48Z"/>
          <path class="cls-14" d="m111.91,33.82c.05,1.54-.36,2.67-1.7,2.99-.91.21-1.49-.18-1.56-1.38-.09-1.5.45-2.7,1.59-3.28,1.22-.62,1.55.42,1.68,1.68Z"/>
        </g>
        <g>
          <path class="cls-12" d="m140.07,138.33c-2.95-.6-4.72-3.32-5-6.05-.21-1.98-.3-4.05-.38-6.05l-.05-1.5c.34-3.19-.8-6.43-3.04-8.69-3.38-3.39-3.31-8.77-2.98-13.54.11-1.59-.28-2.94-.98-3.44-.49-.34-1.2-.31-2.12.1-3.14,1.38-6.69,1.04-10-.96-4.64-2.8-8.26-8.51-8.61-13.58v-.05c-.17-7.67,2.54-14.3,8.52-20.86,3.93-4.31,10.47-4.81,15.22-1.16,1.58,1.21,3.77.94,5.34.49,4.03-1.14,8.57-4.81,9.73-7.86.29-.77.31-1.19.29-1.27-.55-2.45-2.62-3.79-4.38-4.23-2.18-.54-4.34.07-5.62,1.59-2.62,3.09-6.92,3.5-10.01.95-1.71-1.41-3.06-2.01-4.1-1.83-1.43.25-2.73,2.01-4.25,4.59-.18.31-.36.71-.55,1.13-.56,1.23-1.19,2.63-2.48,2.89-.74.15-1.48-.12-2.19-.8-2.29-2.15-3.59-5.75-1.67-8.46,4.67-6.6,8.01-12.15,10.52-17.48.31-.67,1.22-1.61,2.17-1.52,4.14.4,5.78-3.23,7.65-8.39.51-1.4.98-2.72,1.55-3.85.67-1.32.37-1.6-.11-2.05-.04-.03-.07-.06-.09-.08-.09.09-.26.29-.53.72-.39.64-.78,1.29-1.18,1.93-.75,1.24-1.51,2.49-2.27,3.72-.11.18-.21.38-.32.58-.45.86-1.39,2.65-3.21,1.99-1.98-.71-2.51-3.16-2.01-5.1.78-3.01,2.71-8.62,6.87-12.31,2.98-2.64,7.81-3.77,10.9-.67,2.77,2.78,5.21,3.29,9.68,2.04l.09-.03c1.88-.53,4.01-1.13,6.02-1.31,2.79-.26,5.22-2.01,6.49-4.69,1.65-3.34,5-5.37,8.76-5.33,1.73.02,2.77-.68,3.58-2.43,1.98-4.24,6.14-7.15,11.13-7.77,7.43-.94,12.48,1.11,15.9,6.43.47.73.98.75,2.1.72.14,0,.29,0,.43-.01,1.29-.02,2.62,0,3.91.02,1.89.02,3.84.05,5.62-.03,2.74-.12,6.11,1.82,7.36,4.23.42.81.96,1.13,1.98,1.19.92.05,1.84.17,2.74.29.68.09,1.32.17,1.92.22,3.98.34,5.68,1.68,6.99,5.53l.05.16v.17c.13,3.93-3.24,7.97-6.8,8.16-.99.05-2.1-.02-3.12-.21-.47-.09-1.09-.14-1.39.13-.3.27-.64,1.06-.5,3.31.45,7.58-3.93,18.76-13.31,20.03-1.51.2-2.13.29-1.93,2.7.21,2.44-.21,4.33-1.29,5.75-2.74,3.64-4,7.24-3.72,10.67.16,2-.78,3.76-2.45,4.58-1.66.82-3.62.5-5.1-.83-2.55-2.29-5.15-4.93-7.71-7.84-.85-.97-1.27-1.01-1.38-1-.13.01-.64.18-1.48,1.7-.59,1.06-1.28,2.1-1.94,3.11-.86,1.3-1.68,2.54-2.27,3.77-1.03,2.16-2.74,3.57-4.56,3.78-1.5.17-2.95-.5-4.1-1.9-2.63-2.53-3.94-3.48-7.03-3.33-1.52.07-3.07-.69-4.36-2.16-.22-.25-.7-.8-.98-.95-.07.07-.21.24-.38.59-.33.68-.31.69.43,1.19.33.22.69.47.99.83,1.01,1.23,2.18,2.35,3.31,3.42.24.23.48.46.72.69,1.35,1.3,2.06,2.83,2.06,4.42,0,1.68-.77,3.31-2.24,4.73-1.82,1.75-4.12,2.78-6.17,2.74-1.59-.03-3.03-.67-4.18-1.86-.93-.89-1.87-1.82-2.81-2.76-.85-.84-1.69-1.68-2.55-2.51-.13-.13-.26-.26-.38-.39-.11-.12-.26-.28-.38-.38-.09.09-.23.25-.41.53-.65,1-.56,1.08.05,1.6.17.15.34.29.5.45,2.57,2.61,5.97,6.04,9.5,9.39,3.21,3.04,3.54,7.95.78,11.42-4.15,5.2-5.59,11.86-4.55,20.97.34,3.02.52,6.23.55,10.1.1,6.93-4.97,16.81-13.43,17.15-.48,0-.93-.03-1.35-.12Zm-3.17-13.45l.06,1.25c.09,1.97.17,4,.37,5.92.21,2.02,1.56,4.18,4.03,4.13,6.97-.27,11.31-8.97,11.22-14.84-.03-3.85-.2-6.9-.54-9.87-1.11-9.75.49-16.95,5.04-22.65,2.02-2.54,1.78-6.13-.56-8.35-3.56-3.37-6.98-6.82-9.56-9.45-.11-.11-.23-.21-.34-.31-.78-.66-2.24-1.9-.49-4.58.43-.66,1.12-1.54,2.15-1.63,1.03-.09,1.71.64,2.21,1.17.1.11.2.21.3.31.86.83,1.72,1.68,2.57,2.53.93.93,1.87,1.85,2.82,2.77.76.79,1.63,1.18,2.61,1.2,1.46.03,3.16-.76,4.55-2.1,1.01-.98,1.54-2.05,1.54-3.09,0-.98-.46-1.91-1.36-2.78-.24-.23-.47-.45-.71-.68-1.18-1.13-2.4-2.29-3.5-3.63-.08-.1-.3-.25-.5-.38-.78-.52-2.39-1.61-1.2-4.07.21-.42.83-1.72,2.11-1.89,1.32-.18,2.29.93,3,1.74.81.92,1.74,1.43,2.54,1.39,3.95-.19,5.79,1.15,8.77,4.01l.1.11c.66.83,1.37,1.21,2.11,1.12,1.01-.12,2.09-1.1,2.76-2.5.66-1.37,1.56-2.73,2.42-4.04.64-.97,1.31-1.97,1.85-2.95.64-1.15,1.66-2.69,3.23-2.85,1.1-.12,2.19.46,3.33,1.76,2.5,2.85,5.03,5.42,7.52,7.65.79.71,1.75.89,2.57.48.83-.41,1.27-1.29,1.19-2.36-.32-4.01,1.09-8.12,4.17-12.22.72-.96,1-2.33.84-4.19-.33-3.8,1.32-4.81,3.89-5.16,7.24-.98,11.79-10.08,11.34-17.64-.11-1.78-.06-3.98,1.27-5.15.79-.7,1.91-.92,3.31-.66.83.15,1.77.22,2.58.18,2.26-.12,4.64-3.04,4.66-5.65-1.01-2.88-1.92-3.57-4.97-3.83-.66-.06-1.35-.15-2.03-.24-.85-.11-1.74-.23-2.57-.28-1.82-.11-3.08-.89-3.87-2.41-.86-1.66-3.35-3.09-5.24-3-1.85.08-3.83.06-5.75.03-1.27-.02-2.59-.03-3.86-.02-.13,0-.25,0-.38,0-1.15.03-2.9.09-4.09-1.76-2.97-4.62-7.06-6.24-13.7-5.4-4.2.53-7.7,2.95-9.35,6.48-1.19,2.55-3.05,3.77-5.67,3.74-2.87-.04-5.43,1.51-6.68,4.04-1.61,3.39-4.73,5.63-8.33,5.96-1.81.17-3.74.71-5.62,1.24l-.09.03c-4.36,1.23-8.05,1.25-11.91-2.62-2.24-2.24-5.89-.9-7.77.77-3.71,3.29-5.46,8.41-6.17,11.18-.26,1-.03,2.06.48,2.35.16-.19.37-.6.51-.86.13-.25.26-.5.4-.73.76-1.23,1.51-2.46,2.26-3.7.39-.65.78-1.29,1.18-1.94.51-.83,1.16-1.7,2.18-1.84.67-.09,1.32.15,1.93.72,1.42,1.32,1.6,2.74.59,4.74-.51,1.01-.96,2.27-1.45,3.6-1.67,4.6-3.73,10.31-9.74,9.9-.07.06-.14.15-.16.2-2.57,5.45-5.98,11.12-10.72,17.83-1.31,1.85.11,4.3,1.37,5.49.09.09.16.14.21.17.26-.27.62-1.09.83-1.55.21-.46.42-.94.67-1.35,1.89-3.2,3.53-5.27,5.82-5.67,1.76-.31,3.65.43,5.94,2.32,2.14,1.76,5.01,1.48,6.82-.67,1.85-2.19,4.87-3.08,7.91-2.33,3.09.76,5.41,3.04,6.06,5.95.14.66.01,1.52-.39,2.57-1.42,3.74-6.46,7.88-11.24,9.24-2.97.84-5.51.54-7.35-.88-3.8-2.92-9.03-2.54-12.15.89-5.55,6.1-8.07,12.21-7.93,19.25.31,4.31,3.53,9.36,7.51,11.76,1.88,1.14,4.78,2.2,7.91.83,2.12-.93,3.53-.45,4.35.12,1.41.99,2.12,2.98,1.95,5.46-.29,4.27-.38,9.06,2.32,11.78,2.7,2.71,4.08,6.61,3.7,10.45Z"/>
          <path class="cls-12" d="m70.59,160.02c-.95-.19-1.69-.96-2.3-1.6-.17-.18-.34-.36-.51-.51-3.14-2.87-5.13-7.56-5.46-12.88-.05-.86-.12-1.74-.18-2.61-.17-2.38-.35-4.84-.36-7.22-.01-5.59-.64-12.6-5.44-17.17-4.89-5.07-4.37-16.92-1.66-22.15.27-.51.65-.95,1.02-1.38.93-1.06,1.05-1.36.75-1.87-1.12-1.93-2.32-3.8-3.61-3.56-3.89.7-7.94-1.35-12.04-6.09-2.5-2.89-5.09-5.88-8.09-8.43-4.22-3.54-4.92-8.97-5.53-13.77-.09-.68-.17-1.36-.27-2.01-.55-3.83-5.17-9.25-9.14-9.54-2.03-.15-3.42,1.68-4.9,3.61-.38.5-.78,1.02-1.18,1.49l-1.42,1.67-.55-2.12c-1.11-4.31-.9-7.56.65-9.95,1.38-2.13,3.83-3.51,7.3-4.1,10.68-2.28,21.62-4.94,32.47-7.9l.28-.08c1.74-.48,4.37-1.21,5.84,1.61,1,1.92.8,4.11-.61,6.69-1.18,2.17-.22,3.02,2.07,4.73.19.14.38.28.57.43,1.72,1.31,4.31-.15,5.34-.83.62-.41.64-.97.38-2.53-.1-.59-.2-1.2-.18-1.81,0-.24-.01-.49-.03-.77-.07-1.1-.16-2.61,1.2-3.65,1.84-1.42,3.32.24,3.87.87.09.11.18.21.27.3,1.15,1.2,2.24,1.49,3.75.99,2.58-.84,4.71.1,5.7,2.54.87,2.13.52,4.58-1.02,7.1-2.38,3.91-4.89,7.88-7.32,11.71-2.27,3.58-4.61,7.28-6.79,10.85-1.98,3.25-5.82,3.96-8.91,4.53-.37.07-.74.14-1.09.21-.92.18-1.62.64-2.06,1.37-.63,1.02-.75,2.53-.32,4.03.23.82.41,1.01.46,1.05,0,0,.03,0,.06,0,4.34-.81,7.2,2.27,9.5,4.75.26.28.51.55.76.81.74.78,3.39,3.24,6.41,2.36,3.79-1.1,6.71-.37,9.77,2.43l.29.27c1.93,1.77,4.57,4.2,7.11,4.01.85-.06,2.06.16,3.04,1.62,2.28,3.39,1.77,11.85.57,14.25-3.43,6.86-7.97,14.79-13.15,22.93-2.45,3.86-3.44,7.88-2.94,11.96.29,2.38.35,5.16.39,7.38,0,.36.06.77.12,1.2.17,1.33.38,2.98-.75,4.08-.64.62-1.28.74-1.71.73-.14,0-.28-.02-.41-.04Zm-16.83-73.17c2.22.45,3.71,3.01,4.65,4.65,1.17,2.03-.19,3.58-1,4.51-.29.34-.57.66-.71.93-2.42,4.67-2.83,15.26,1.24,19.48,5.39,5.13,6.1,12.73,6.12,18.78,0,2.3.18,4.72.35,7.06.06.88.13,1.76.18,2.63.3,4.73,2.02,8.87,4.73,11.34.2.18.4.39.62.61.3.31.85.89,1.1.94,0,0,.04-.03.1-.09.31-.3.18-1.33.08-2.15-.06-.48-.12-.97-.13-1.45-.04-2.17-.09-4.88-.37-7.15-.57-4.62.53-9.14,3.27-13.46,5.13-8.07,9.64-15.93,13.03-22.72.94-1.88,1.28-9.41-.43-11.96-.44-.66-.82-.63-.98-.62-3.53.27-6.59-2.55-8.83-4.6l-.29-.26c-2.46-2.25-4.59-2.79-7.59-1.92-2.87.83-6.11-.28-8.69-2.98-.26-.27-.52-.55-.78-.83-2.12-2.28-4.31-4.64-7.41-4.06-1.49.28-2.54-.62-3.12-2.66-.6-2.1-.38-4.29.57-5.85.78-1.27,2.01-2.11,3.56-2.41.37-.07.74-.14,1.12-.21,2.91-.54,5.93-1.09,7.38-3.47,2.19-3.58,4.54-7.29,6.81-10.88,2.42-3.83,4.93-7.79,7.3-11.68.8-1.31,1.59-3.25.85-5.06-.34-.82-1-1.85-2.88-1.23-2.35.77-4.34.25-6.1-1.58-.11-.11-.22-.24-.34-.37-.18-.2-.5-.56-.66-.64-.02.01-.06.03-.11.07-.36.28-.38.72-.31,1.71.02.31.04.63.03.95,0,.4.07.89.15,1.39.24,1.48.57,3.5-1.37,4.8-3.05,2.02-5.96,2.3-7.98.75-.18-.14-.36-.28-.55-.41-2.06-1.54-4.88-3.65-2.7-7.64,1.03-1.89,1.22-3.34.58-4.55-.54-1.04-1.17-1.03-3.21-.47l-.29.08c-10.89,2.97-21.87,5.64-32.64,7.94-2.89.49-4.78,1.5-5.81,3.1-.91,1.4-1.19,3.31-.83,5.78,1.54-2,3.48-4.21,6.48-4,5.11.38,10.54,6.73,11.23,11.48.1.67.18,1.35.27,2.05.59,4.6,1.2,9.35,4.74,12.32,3.14,2.67,5.78,5.72,8.34,8.68,3.54,4.09,6.88,5.88,9.92,5.34.47-.08.91-.07,1.32.01Z"/>
          <path class="cls-12" d="m90.36,41.24c-1.43-.29-2.55-1.54-3.31-2.52-.19-.25-.39-.49-.58-.74-1.27-1.59-2.7-3.4-2.89-5.87-.34-4.36-3-7.45-5.18-9.28-1.15-.96-4.19-3.51-2.36-8.05l.05-.13c1.19-2.97,2.83-7.04,6.69-8.1,1.91-.53,3.91-1.16,5.85-1.78.55-.17,1.1-.35,1.65-.52h0s1.35-.45,1.35-.45c1.26-.39,2.56-.8,3.72-1.14.43-.13.94-.31,1.49-.51,2.2-.8,4.93-1.8,7.09-.75,1.07.52,1.84,1.46,2.28,2.81,2.28,6.91,1.75,12.78-1.68,18.47-1.03,1.71-2.1,3.42-3.22,5.22-1.92,3.08-3.91,6.26-5.68,9.43-1.48,2.64-2.84,3.87-4.41,3.98-.29.02-.57,0-.84-.05Zm2.3-35.39v.02s-.86.27-.86.27c-.83.26-1.66.52-2.49.79-1.96.62-3.99,1.27-5.93,1.81-2.78.77-4.06,3.95-5.18,6.76l-.05.13c-1.01,2.5-.09,3.94,1.72,5.46,2.51,2.11,5.59,5.7,5.99,10.85.14,1.78,1.24,3.16,2.41,4.63.2.26.41.51.61.77.88,1.15,1.64,1.73,2.18,1.69.39-.03,1.25-.43,2.59-2.82,1.8-3.21,3.8-6.42,5.74-9.52,1.12-1.8,2.18-3.5,3.2-5.19,3.1-5.15,3.55-10.26,1.47-16.58-.25-.75-.61-1.23-1.11-1.47-1.29-.63-3.52.19-5.31.84-.58.21-1.13.41-1.62.56-1.04.31-2.2.66-3.33,1.02Z"/>
          <path class="cls-12" d="m60.33,31.44c-.65-.13-1.28-.39-1.9-.81-1.2-.81-1.85-2.05-1.8-3.41.08-2.05,1.69-2.5,2.47-2.72.13-.04.25-.07.37-.11.85-.3,1.7-.55,2.52-.79.58-.17,1.17-.34,1.75-.53,2.35-.76,4.07-.71,5.25.14.99.7,1.5,1.89,1.53,3.51.05,3.18-2.29,3.35-3.41,3.43-.3.02-.8.06-.92.14l-.18.19-.24.08c-1.86.68-3.69,1.23-5.43.88Zm6.84-6.58c-.49-.1-1.33-.07-2.73.38-.6.19-1.21.37-1.81.55-.83.24-1.62.47-2.41.75-.16.06-.33.11-.51.16-.79.22-.79.27-.81.62-.03.72.42,1.18.8,1.44,1.26.85,2.71.59,5.08-.25.65-.51,1.48-.57,2.15-.62,1.19-.09,1.32-.09,1.3-1.12-.01-.86-.21-1.43-.57-1.7-.1-.07-.26-.15-.5-.2Z"/>
          <path class="cls-12" d="m205.24,78.75c-3.01-.61-7.6-4.58-8.58-7.09-.26-.67-.23-1.38.11-2,.42-.77,1.25-1.31,2.35-1.53l.18-.04.18.02c3.41.39,7.96,3.82,9.18,6.93.5,1.28.09,2.16-.2,2.57-.61.87-1.73,1.23-2.57,1.21-.21,0-.42-.03-.65-.08Zm-5.84-8.35c-.4.11-.59.27-.63.35,0,.01-.01.02,0,.08.82,2.09,5.32,5.67,7.18,5.72.23,0,.55-.12.64-.24.04-.06.02-.23-.06-.43-.82-2.09-4.38-5.05-7.14-5.48Z"/>
          <path class="cls-12" d="m157.14,117.12c-.24-.05-.45-.14-.65-.27-.98-.64-1.03-1.88-1.07-2.98-.02-.47-.04-.96-.13-1.26l-.05-.17v-.17c.02-1.68.08-6.81,4.07-8.45,1.1-.45,1.84-.21,2.28.08,1.15.76,1.17,2.46,1.18,3.82,0,.23,0,.45.01.65.22,5.66-2.06,7.76-4.01,8.53-.61.24-1.15.31-1.62.21Zm.38-4.97c.13.52.15,1.09.17,1.64.01.31.03.77.08,1.06.04-.01.1-.03.16-.06,1.84-.72,2.7-2.85,2.57-6.32,0-.22-.01-.46-.01-.72,0-.5-.01-1.47-.16-1.87-.04.01-.09.03-.16.06-1.72.71-2.59,2.74-2.65,6.22Z"/>
          <path class="cls-12" d="m114.05,36.73c-.25-.05-.45-.15-.59-.26-.94-.67-.89-2.18-.85-3.39,0-.15,0-.3.01-.43,0-.35,0-.73-.01-1.13-.05-2.35-.13-5.56,2.52-6.83.71-.34,1.31-.36,1.79-.05.81.51.8,1.58.79,2.61,0,.36,0,.95.07,1.14l.19.19.04.67c.14,2.46.36,6.19-2.81,7.36-.46.17-.83.18-1.13.12Zm1.91-10.55s-.06.03-.1.04c-1.53.74-1.61,2.73-1.55,5.25,0,.42.02.82.01,1.19,0,.14,0,.3-.01.46-.01.48-.05,1.58.13,1.91.03,0,.08-.02.15-.04,1.84-.68,1.86-2.96,1.7-5.66v-.12c-.3-.53-.3-1.25-.29-2,0-.3,0-.77-.04-1.05Z"/>
          <path class="cls-12" d="m109.35,37.68c-.31-.06-.55-.19-.72-.32-.51-.38-.79-1.01-.84-1.89-.11-1.88.64-3.38,2.05-4.09.84-.42,1.43-.28,1.79-.09.83.46,1.04,1.54,1.13,2.44v.06c.07,2.17-.73,3.46-2.36,3.84-.42.1-.77.09-1.05.04Zm1.47-4.85s-.11.03-.2.08c-1.01.51-1.17,1.63-1.12,2.47.02.43.12.59.16.62.01.01.12.04.36-.01.38-.09,1.09-.26,1.05-2.1-.07-.69-.18-.96-.24-1.05Z"/>
        </g>
      </g>
      <g class="cls-9">
        <path class="cls-2" d="m126.57,25.37c15.56,2.75,34.65,15.84,35.6,35.25.9,18.4-13.46,3.72-20.76-8.65-6.02-10.21-25.53-28.48-14.84-26.59Z"/>
      </g>
      <g class="cls-4">
        <path class="cls-2" d="m85.08,15.52c.35-.1.7-.2,1.06-.29.36-.1.72-.19,1.07-.28,28.94-7.31,58.34,4.27,74.98,27.11,5.01,6.87,8.85,14.75,11.19,23.44.19.69.37,1.39.53,2.09,3.37,14.19,2.21,28.45-2.56,41.23,6.6-14.08,8.65-30.38,4.8-46.59-.17-.7-.34-1.39-.53-2.09-2.34-8.7-6.19-16.58-11.19-23.44C147.8,13.86,118.4,2.29,89.46,9.59c-.36.09-.72.18-1.07.28-.36.1-.71.19-1.06.29-22.56,6.43-39.52,23.11-47.17,43.61,8.45-18.02,24.36-32.39,44.92-38.26Z"/>
      </g>
      <circle class="cls-15" cx="106.87" cy="78.63" r="71.2"/>
      <path class="cls-16" d="m92.33,150.29c-39.51-8.02-65.14-46.68-57.12-86.2C43.22,24.58,81.89-1.04,121.41,6.97c39.51,8.02,65.14,46.68,57.12,86.2-5.66,27.91-27.24,50.15-54.97,56.67-5.23,1.28-8.94,1.63-14.8,1.9h-.04c-5.46.14-10.97-.35-16.38-1.45Zm16.34-.47h0s0,0,0,0ZM120.64,10.74C83.21,3.14,46.57,27.42,38.97,64.86c-7.59,37.44,16.68,74.07,54.12,81.67,5.12,1.04,10.34,1.5,15.51,1.38,5.71-.26,9.1-.59,14.06-1.8,26.29-6.18,46.74-27.25,52.1-53.7,7.59-37.44-16.68-74.07-54.12-81.67Z"/>
      <g class="cls-6">
        <path class="cls-16" d="m125.82,142.26c-37.27,10.02-75.6-11.49-86.65-48.2-.21-.69-.4-1.38-.59-2.07-2.34-8.69-2.96-17.45-2.07-25.89.63-6.03,2.03-11.91,4.13-17.5-.29,7.05.47,14.26,2.4,21.43.19.69.38,1.39.59,2.07,11.05,36.72,49.38,58.23,86.65,48.2,23.07-6.2,40.43-23.05,48.21-43.84-1.24,30.27-21.87,57.53-52.67,65.81Z"/>
      </g>
    </g>
    <g>
      <g>
        <g>
          <path class="cls-2" d="m67.88,68.61h31.44s1.74,12.08-7.6,17.36c-4.99,2.82-11.23,2.69-16.05-.41-3.96-2.55-7.89-7.47-7.78-16.95Z"/>
          <path class="cls-3" d="m99.32,68.61s1.74,12.08-7.6,17.36c-2.38,1.35-5.05,2.02-7.71,2.02-2.92,0-5.82-.81-8.34-2.44-3.96-2.55-7.89-7.47-7.78-16.95h31.44m.96-1.11h-33.49v1.09c-.13,10.3,4.43,15.41,8.28,17.89,2.65,1.71,5.74,2.61,8.94,2.61,2.89,0,5.75-.75,8.25-2.17,9.89-5.59,8.23-17.96,8.15-18.48l-.14-.95h0Z"/>
          <g class="cls-8">
            <g>
              <ellipse class="cls-3" cx="90.76" cy="75.66" rx="9.3" ry="10.74"/>
              <polygon class="cls-2" points="99.64 68.1 93.07 72.29 101.25 74.36 99.64 68.1"/>
            </g>
          </g>
          <path class="cls-3" d="m98.57,68.61h3.7s.28-6.22-5.09-9.38c0,0,3.68,3.89,3.92,7.96l-3.43.06.89,1.36Z"/>
          <path class="cls-3" d="m68.6,68.61h-3.7s-.28-6.22,5.09-9.38c0,0-3.68,3.89-3.92,7.97l3.43.06-.89,1.35Z"/>
        </g>
        <g>
          <path class="cls-2" d="m111.08,68.61h31.44s1.74,12.08-7.6,17.36c-4.99,2.82-11.23,2.69-16.05-.41-3.96-2.55-7.89-7.47-7.78-16.95Z"/>
          <path class="cls-3" d="m142.52,68.61s1.74,12.08-7.6,17.36c-2.38,1.35-5.05,2.02-7.71,2.02-2.92,0-5.82-.81-8.34-2.44-3.96-2.55-7.89-7.47-7.78-16.95h31.44m.96-1.11h-33.49v1.09c-.13,10.3,4.43,15.41,8.28,17.89,2.65,1.71,5.74,2.61,8.94,2.61,2.89,0,5.75-.75,8.25-2.17,9.89-5.59,8.23-17.96,8.15-18.48l-.14-.95h0Z"/>
          <g class="cls-5">
            <g>
              <ellipse class="cls-3" cx="133.96" cy="75.66" rx="9.3" ry="10.74"/>
              <polygon class="cls-2" points="142.84 68.1 136.27 72.29 144.46 74.36 142.84 68.1"/>
            </g>
          </g>
          <path class="cls-3" d="m141.77,68.61h3.7s.28-6.22-5.09-9.38c0,0,3.68,3.89,3.92,7.97l-3.43.06.89,1.35Z"/>
          <path class="cls-3" d="m111.94,68.61h-3.7s-.28-6.22,5.09-9.38c0,0-3.68,3.89-3.92,7.96l3.43.06-.89,1.36Z"/>
        </g>
      </g>
      <path class="cls-3" d="m105.27,85.01c-2.72,0-4.92,1.93-4.92,4.32,0,.45.08.9.25,1.31.06-2.22,2.12-4,4.67-4s4.6,1.77,4.67,4c.17-.4.25-.86.25-1.31,0-2.4-2.19-4.32-4.92-4.32Z"/>
      <path class="cls-3" d="m100.4,97.29c-2.88,1.23-6.17,3.61-6.55,8.09,0,0,.8-2.32,3.55-4.37,4.14-3.08,10.71-3.08,14.85,0,2.75,2.04,3.55,4.37,3.55,4.37-.38-4.47-3.67-6.85-6.55-8.09-2.73-1.17-6.12-1.17-8.85,0Z"/>
    </g>
    <g>
      <path class="cls-18" d="m32.04,48.94c-3.36-1.82-4.72-5.8-3-8.81,1.24-2.18,4.77-3.74,7.09-2.29-.75-2.66,1.8-5.44,4.98-6.15,3.18-.71,6.64.29,9.22,1.99-.79-2.11.43-4.48,2.42-5.95,1.99-1.47,4.63-2.2,7.24-2.67,2.69-.49,5.55-.74,8.17-.03,2.62.71,4.93,2.59,5.11,4.87.95-1.05,2.67-1.49,4.24-1.34,1.57.15,3.02.82,4.26,1.62,1.99,1.29,3.68,3.14,3.67,5.23,0,2.01-1.63,3.85-3.75,4.82-2.12.97-4.64,1.18-7.05.99.17,2.37-2.4,4.3-5.07,5.17-5.33,1.73-11.86.56-15.84-2.86-1.52,2.01-5.26,2.56-7.51,1.09.25,1.58-.61,3.25-2.15,4.2-1.54.95-3.71,1.16-5.47.51.82,1.03-.24,2.44-1.57,3.01-1.32.57-2.89.7-4.15,1.36-2.19,1.16-2.17,3.24-1.74,5.07-3.54-2.07-1.89-7.79.89-9.84Z"/>
      <path class="cls-17" d="m84.63,32.88c.05.25.08.51.08.77,0,2.01-1.63,3.85-3.75,4.82-2.12.97-4.64,1.18-7.05.99.17,2.37-2.4,4.3-5.07,5.17-5.33,1.73-11.86.56-15.84-2.86-1.52,2.01-5.26,2.56-7.51,1.09.25,1.58-.61,3.25-2.15,4.2-1.54.95-3.71,1.16-5.47.51.82,1.03-.24,2.44-1.57,3.01s-2.89.7-4.15,1.36c-2.19,1.16-2.17,3.24-1.74,5.07-.49-.29-.88-.65-1.18-1.05.21,1.15.81,2.16,1.93,2.81-.43-1.83-.45-3.91,1.74-5.07,1.26-.66,2.82-.79,4.15-1.36,1.32-.57,2.39-1.98,1.57-3.01,1.76.64,3.93.44,5.47-.51,1.54-.95,2.39-2.62,2.15-4.2,2.26,1.47,5.99.92,7.51-1.09,3.98,3.41,10.5,4.59,15.84,2.86,2.67-.87,5.24-2.8,5.07-5.17,2.41.19,4.94-.01,7.05-.99,2.12-.97,3.75-2.82,3.75-4.82,0-.9-.31-1.75-.82-2.53Z"/>
      <path class="cls-2" d="m38.26,34.95c-.57.71-.7,1.63-.46,2.46.15.53.47,1.05,1.03,1.34.55.29,1.37.28,1.8-.13.32-.31.37-.75.5-1.15.25-.74.94-1.41,1.85-1.59.35-.07.71-.07,1.07-.14.35-.07.71-.22.85-.49.22-.42-.16-.9-.61-1.18-1.56-.95-4.94-.46-6.02.87Z"/>
      <path class="cls-2" d="m55.08,29.85c-.85.68-1.56,1.51-1.83,2.46-.26.95-.02,2.03.82,2.72.84.69,2.3.85,3.22.24.86-.57,1.04-1.58,1.55-2.39.64-1.01,1.88-1.75,3.24-1.93,1.04-.14,2.36-.07,2.86-.84,1.07-1.65-2.52-2.38-3.81-2.47-2.14-.16-4.58,1.03-6.06,2.22Z"/>
      <path class="cls-2" d="m74.74,32.41c.18.66,1.02,1.04,1.81,1.24.79.2,1.69.3,2.4-.04,1.49-.72.86-2.55-.57-3.01-1.33-.43-4.04.35-3.64,1.81Z"/>
    </g>
    <g>
      <path class="cls-18" d="m114.24,131.35c3.53,3.29,3.92,8.57.87,11.7-2.21,2.26-7,3.05-9.38.55.08,3.48-3.92,6.07-8.02,5.93-4.11-.14-8.01-2.46-10.62-5.35.29,2.83-1.94,5.33-4.84,6.49-2.9,1.16-6.35,1.21-9.68.96-3.44-.26-7.01-.86-9.98-2.56-2.97-1.7-5.2-4.72-4.7-7.56-1.49.98-3.73.97-5.6.29-1.87-.68-3.42-1.95-4.69-3.33-2.02-2.2-3.49-5-2.82-7.55.64-2.45,3.21-4.18,6.11-4.7,2.89-.52,6.04.04,8.92,1.03.55-2.95,4.3-4.48,7.83-4.7,7.06-.43,14.65,3.08,18.42,8.51,2.49-1.98,7.23-1.45,9.51,1.05.2-2.01,1.77-3.77,3.95-4.45,2.18-.68,4.9-.24,6.84,1.11-.68-1.52,1.07-2.9,2.87-3.18,1.79-.28,3.75.07,5.49-.35,3.04-.72,3.67-3.26,3.73-5.63,3.67,3.65-.16,10.11-4.2,11.72Z"/>
      <path class="cls-17" d="m44.96,134.27c.02-.33.07-.65.15-.97.64-2.45,3.21-4.18,6.11-4.7,2.89-.52,6.04.04,8.92,1.03.55-2.95,4.3-4.48,7.83-4.7,7.06-.43,14.65,3.08,18.42,8.51,2.49-1.98,7.23-1.45,9.51,1.05.2-2.01,1.77-3.77,3.95-4.45,2.18-.68,4.9-.24,6.84,1.11-.68-1.52,1.07-2.9,2.87-3.18s3.75.07,5.49-.35c3.04-.72,3.67-3.26,3.73-5.63.51.51.87,1.07,1.11,1.66.1-1.47-.31-2.89-1.46-4.04-.06,2.37-.69,4.91-3.73,5.63-1.74.41-3.7.07-5.49.35-1.79.28-3.54,1.66-2.87,3.18-1.94-1.34-4.66-1.78-6.84-1.11-2.18.68-3.75,2.44-3.95,4.45-2.29-2.5-7.02-3.03-9.51-1.05-3.77-5.43-11.36-8.94-18.42-8.51-3.53.21-7.29,1.75-7.83,4.7-2.88-1-6.03-1.55-8.92-1.03-2.89.52-5.46,2.25-6.11,4.7-.29,1.09-.18,2.23.2,3.35Z"/>
      <path class="cls-2" d="m102.21,146.45c.92-.69,1.37-1.77,1.34-2.86-.02-.69-.24-1.43-.83-1.96-.58-.53-1.58-.77-2.24-.41-.49.28-.68.8-.97,1.24-.54.82-1.6,1.42-2.76,1.36-.45-.02-.89-.14-1.34-.17-.45-.03-.93.05-1.2.33-.41.44-.09,1.15.37,1.63,1.6,1.66,5.89,2.13,7.62.84Z"/>
      <path class="cls-2" d="m80.06,147.33c1.25-.56,2.38-1.35,3.01-2.42.62-1.08.67-2.47-.14-3.58-.8-1.1-2.53-1.77-3.85-1.31-1.23.42-1.77,1.59-2.65,2.42-1.1,1.03-2.85,1.54-4.57,1.33-1.32-.16-2.91-.66-3.76.12-1.83,1.67,2.32,3.7,3.87,4.23,2.56.88,5.92.19,8.1-.78Z"/>
      <path class="cls-2" d="m56.88,137.98c-.01-.87-.92-1.59-1.82-2.09-.9-.49-1.96-.9-2.94-.71-2.04.41-1.86,2.83-.26,3.85,1.48.94,5.04.85,5.02-1.06Z"/>
    </g>
    <g>
      <path class="cls-3" d="m147.27,124.77s10.34-.82,19.08-4.17c4.93-1.89,8.28-6.52,8.59-11.8.27-4.6.31-10.49-3.1-15.83-.84-1.32-.3-3.07,1.16-3.62h0c1.1-.42,2.35,0,2.95,1.01,1.88,3.12,5.22,10.38,3.31,20.26-1.22,6.3-5.64,11.46-11.64,13.73-5,1.9-12.04,3.8-20.88,4.31l.53-3.89Z"/>
      <g>
        <path class="cls-2" d="m147.78,123.18s1.24-1.14,3.35-2c1.16-.47,2.47.13,2.82,1.33.48,1.7.93,4.36.32,7.42-.21,1.06-1.18,1.8-2.25,1.69-1.01-.1-2.39-.35-4.05-.92l-.19-7.52Z"/>
        <path class="cls-2" d="m132.71,115.21c5.31.87,5.08,4.81,5.07,4.93.73-2.25,2.04-3.33,3.27-3.84,1.43-.59,3.04-.44,4.45.19,0,0,.04.02.1.06.67.34,4.28,2.45,5.13,7.69.6,3.68-.31,7.5-2.52,10.52-2.55,3.49-7.62,7.29-17.17,5.39-1.15-.23-2.26-.73-3.06-1.59-1.25-1.36-1.73-3.26-1.03-5.06-3.16-.99-4.32-5.07-2.04-7.62.64-.72,1.38-1.14,1.96-1.38-.52-.8-1.45-2.67-.96-5.01.01-.06.02-.11.03-.17.06-.25.13-.51.22-.77.61-1.64,1.81-2.51,2.87-2.97,1.15-.49,2.43-.57,3.67-.36Z"/>
        <path class="cls-1" d="m137.88,126.28s-10.4.94-10.79-6.09c0,0-.18-2.84,1.32-4.3,0,0-4.53.79-2.63,8.14,0,0,4.56,4.6,12.1,2.25Z"/>
        <path class="cls-1" d="m125.18,125.61h0s0,0-.01,0c-.07.07-.15.15-.23.24-2.28,2.55-1.12,6.63,2.04,7.62-.07.18-.13.37-.17.55,2.31.82,6.07,1.36,11.16-.58-.63.13-10.24,2.04-12.93-3.23-.49-.97-.67-2.09-.44-3.15.1-.47.28-.98.6-1.46Z"/>
        <path class="cls-3" d="m142.7,119.64s-3.92,1.29-9.46-.91c0,0,4.24,4.96,9.46.91Z"/>
        <path class="cls-3" d="m126.33,123.41s1.92,3.69,11.56,2.87c0,0-7.33,3.36-12.4-1.51l.84-1.36Z"/>
        <path class="cls-3" d="m126.97,133.48s5.53,1.87,11.01-.04c0,0-4.97,3.8-11.61,1.11,0,0,.52-.84.6-1.07Z"/>
        <path class="cls-3" d="m150.04,121.69s1.29,2.34.69,7.14c0,0,2.13-3.53.29-7.95,0,0-.74.66-.98.81Z"/>
        <path class="cls-3" d="m131.45,115.1c.42,0,.84.04,1.26.11,5.31.87,5.08,4.81,5.07,4.93.73-2.25,2.04-3.33,3.27-3.84.62-.25,1.27-.37,1.92-.37.86,0,1.73.2,2.53.56,0,0,.04.02.1.05.55.28,3.06,1.75,4.43,5.15.33-.17.69-.35,1.09-.51.27-.11.54-.16.82-.16.9,0,1.74.57,2,1.49.48,1.7.93,4.36.32,7.42-.2.99-1.05,1.7-2.04,1.7-.07,0-.14,0-.21-.01-.54-.05-1.21-.16-1.96-.33-.45,1.23-1.06,2.4-1.84,3.46-2.08,2.84-5.83,5.9-12.31,5.9-1.47,0-3.09-.16-4.85-.51-1.15-.23-2.26-.73-3.06-1.59-1.25-1.36-1.73-3.26-1.03-5.06-3.16-.99-4.32-5.07-2.04-7.62.64-.72,1.38-1.14,1.96-1.38-.52-.8-1.45-2.67-.96-5.01.01-.06.02-.11.03-.17.06-.25.13-.51.22-.77.61-1.64,1.81-2.51,2.87-2.97.76-.33,1.58-.47,2.4-.47m0-1.11c-1.01,0-1.97.19-2.84.56-1.66.72-2.86,1.96-3.47,3.6-.1.28-.19.58-.27.9l-.03.16c-.42,2,.05,3.7.54,4.81-.48.31-.91.68-1.29,1.1-1.32,1.47-1.79,3.51-1.26,5.43.43,1.55,1.44,2.82,2.8,3.56-.34,1.82.21,3.72,1.54,5.17.88.96,2.15,1.63,3.65,1.93,1.77.35,3.47.53,5.07.53,7.07,0,11.08-3.45,13.2-6.35.64-.87,1.19-1.83,1.63-2.85.4.07.79.12,1.16.16.11.01.21.02.32.02,1.52,0,2.83-1.09,3.13-2.59.65-3.28.17-6.13-.35-7.94-.39-1.37-1.62-2.29-3.06-2.29-.42,0-.84.08-1.23.24-.04.02-.09.04-.14.06-1.58-3.06-3.96-4.4-4.46-4.65l-.05-.03-.05-.03-.05-.03c-.96-.43-1.99-.66-2.98-.66-.82,0-1.61.15-2.34.45-.78.32-1.72.9-2.55,1.92-.77-1.29-2.28-2.6-5.2-3.08-.48-.08-.97-.12-1.44-.12h0Z"/>
      </g>
    </g>
    <g>
      <path class="cls-3" d="m61.36,124.95s-10.34-.82-19.08-4.17c-4.93-1.89-8.28-6.52-8.59-11.8-.27-4.6-.31-10.49,3.1-15.83.84-1.32.3-3.07-1.16-3.62h0c-1.1-.42-2.35,0-2.95,1.01-1.88,3.12-5.22,10.38-3.31,20.26,1.22,6.3,5.64,11.46,11.64,13.73,5,1.9,12.04,3.8,20.88,4.31l-.53-3.89Z"/>
      <g>
        <path class="cls-2" d="m60.85,123.36s-1.24-1.14-3.35-2c-1.16-.47-2.47.13-2.82,1.33-.48,1.7-.93,4.36-.32,7.42.21,1.06,1.18,1.8,2.25,1.69,1.01-.1,2.39-.35,4.05-.92l.19-7.52Z"/>
        <path class="cls-2" d="m75.91,115.39c-5.31.87-5.08,4.81-5.07,4.93-.73-2.25-2.04-3.33-3.27-3.84-1.43-.59-3.04-.44-4.45.19,0,0-.04.02-.1.06-.67.34-4.28,2.45-5.13,7.69-.6,3.68.31,7.5,2.52,10.52,2.55,3.49,7.62,7.29,17.17,5.39,1.15-.23,2.26-.73,3.06-1.59,1.25-1.36,1.73-3.26,1.03-5.06,3.16-.99,4.32-5.07,2.04-7.62-.64-.72-1.38-1.14-1.96-1.38.52-.8,1.45-2.67.96-5.01-.01-.06-.02-.11-.03-.17-.06-.25-.13-.51-.22-.77-.61-1.64-1.81-2.51-2.87-2.97-1.15-.49-2.43-.57-3.67-.36Z"/>
        <path class="cls-1" d="m70.74,126.46s10.4.94,10.79-6.09c0,0,.18-2.84-1.32-4.3,0,0,4.53.79,2.63,8.14,0,0-4.56,4.6-12.1,2.25Z"/>
        <path class="cls-1" d="m83.45,125.79h0s0,0,.01,0c.07.07.15.15.23.24,2.28,2.55,1.12,6.63-2.04,7.62.07.18.13.37.17.55-2.31.82-6.07,1.36-11.16-.58.63.13,10.24,2.04,12.93-3.23.49-.97.67-2.09.44-3.15-.1-.47-.28-.98-.6-1.46Z"/>
        <path class="cls-3" d="m65.93,119.82s3.92,1.29,9.46-.91c0,0-4.24,4.96-9.46.91Z"/>
        <path class="cls-3" d="m82.3,123.59s-1.92,3.69-11.56,2.87c0,0,7.33,3.36,12.4-1.51l-.84-1.36Z"/>
        <path class="cls-3" d="m81.66,133.66s-5.53,1.87-11.01-.04c0,0,4.97,3.8,11.61,1.11,0,0-.52-.84-.6-1.07Z"/>
        <path class="cls-3" d="m58.59,121.86s-1.29,2.34-.69,7.14c0,0-2.13-3.53-.29-7.95,0,0,.74.66.98.81Z"/>
        <path class="cls-3" d="m77.18,115.28c.82,0,1.64.14,2.4.47,1.06.46,2.26,1.33,2.87,2.97.09.26.17.52.22.77.01.06.02.11.03.17.49,2.35-.45,4.21-.96,5.01.58.24,1.32.65,1.96,1.38,2.28,2.55,1.12,6.63-2.04,7.62.7,1.8.22,3.7-1.03,5.06-.79.86-1.91,1.36-3.06,1.59-1.77.35-3.38.51-4.85.51-6.48,0-10.23-3.05-12.31-5.9-.78-1.07-1.39-2.24-1.84-3.46-.75.17-1.41.27-1.96.33-.07,0-.14.01-.21.01-.99,0-1.85-.71-2.04-1.7-.6-3.06-.16-5.72.32-7.42.26-.92,1.1-1.49,2-1.49.27,0,.55.05.82.16.4.16.76.34,1.09.51,1.36-3.4,3.88-4.87,4.43-5.15.07-.03.1-.05.1-.05.8-.36,1.67-.56,2.53-.56.65,0,1.3.12,1.92.37,1.23.51,2.54,1.58,3.27,3.84,0-.12-.23-4.06,5.07-4.93.42-.07.84-.11,1.26-.11m0-1.11h0c-.47,0-.96.04-1.45.12-2.92.48-4.43,1.79-5.2,3.08-.82-1.03-1.76-1.6-2.55-1.92-.73-.3-1.52-.45-2.34-.45-.99,0-2.02.23-2.98.66l-.05.02-.05.03-.04.02c-.51.26-2.88,1.6-4.46,4.65-.04-.02-.09-.04-.13-.06-.4-.16-.81-.24-1.24-.24-1.44,0-2.67.92-3.06,2.29-.52,1.81-.99,4.66-.35,7.94.3,1.5,1.61,2.59,3.13,2.59.11,0,.21,0,.32-.02.36-.04.76-.09,1.16-.16.44,1.02.99,1.98,1.63,2.85,2.12,2.9,6.13,6.35,13.2,6.35,1.6,0,3.3-.18,5.07-.53,1.51-.3,2.77-.97,3.65-1.93,1.33-1.45,1.88-3.36,1.54-5.17,1.36-.73,2.37-2.01,2.8-3.56.53-1.93.06-3.96-1.26-5.43-.38-.42-.8-.79-1.28-1.1.49-1.11.96-2.8.55-4.78-.02-.08-.03-.13-.04-.19-.08-.33-.16-.62-.26-.9-.61-1.65-1.81-2.89-3.47-3.61-.87-.37-1.83-.56-2.84-.56h0Z"/>
      </g>
    </g>
    <g>
      <path class="cls-18" d="m185.01,87.6c3.36,1.82,4.72,5.8,3,8.81-1.24,2.18-4.77,3.74-7.09,2.29.75,2.66-1.8,5.44-4.98,6.15-3.18.71-6.64-.29-9.22-1.99.79,2.11-.43,4.48-2.42,5.95-1.99,1.47-4.63,2.2-7.24,2.67-2.69.49-5.55.74-8.17.03-2.62-.71-4.93-2.59-5.11-4.87-.95,1.05-2.67,1.49-4.24,1.34-1.57-.15-3.02-.82-4.26-1.62-1.99-1.29-3.68-3.14-3.67-5.23,0-2.01,1.63-3.85,3.75-4.82,2.12-.97,4.64-1.18,7.05-.99-.17-2.37,2.4-4.3,5.07-5.17,5.33-1.73,11.86-.56,15.84,2.86,1.52-2.01,5.26-2.56,7.51-1.09-.25-1.58.61-3.25,2.15-4.2,1.54-.95,3.71-1.16,5.47-.51-.82-1.03.24-2.44,1.57-3.01,1.32-.57,2.89-.7,4.15-1.36,2.19-1.16,2.17-3.24,1.74-5.07,3.54,2.07,1.89,7.79-.89,9.84Z"/>
      <path class="cls-17" d="m132.42,103.66c-.05-.25-.08-.51-.08-.77,0-2.01,1.63-3.85,3.75-4.82,2.12-.97,4.64-1.18,7.05-.99-.17-2.37,2.4-4.3,5.07-5.17,5.33-1.73,11.86-.56,15.84,2.86,1.52-2.01,5.26-2.56,7.51-1.09-.25-1.58.61-3.25,2.15-4.2,1.54-.95,3.71-1.16,5.47-.51-.82-1.03.24-2.44,1.57-3.01s2.89-.7,4.15-1.36c2.19-1.16,2.17-3.24,1.74-5.07.49.29.88.65,1.18,1.05-.21-1.15-.81-2.16-1.93-2.81.43,1.83.45,3.91-1.74,5.07-1.26.66-2.82.79-4.15,1.36-1.32.57-2.39,1.98-1.57,3.01-1.76-.64-3.93-.44-5.47.51-1.54.95-2.39,2.62-2.15,4.2-2.26-1.47-5.99-.92-7.51,1.09-3.98-3.41-10.5-4.59-15.84-2.86-2.67.87-5.24,2.8-5.07,5.17-2.41-.19-4.94.01-7.05.99-2.12.97-3.75,2.82-3.75,4.82,0,.9.31,1.75.82,2.53Z"/>
      <path class="cls-2" d="m178.79,101.59c.57-.71.7-1.63.46-2.46-.15-.53-.47-1.05-1.03-1.34-.55-.29-1.37-.28-1.8.13-.32.31-.37.75-.5,1.15-.25.74-.94,1.41-1.85,1.59-.35.07-.71.07-1.07.14-.35.07-.71.22-.85.49-.22.42.16.9.61,1.18,1.56.95,4.94.46,6.02-.87Z"/>
      <path class="cls-2" d="m161.96,106.69c.85-.68,1.56-1.51,1.83-2.46.26-.95.02-2.03-.82-2.72-.84-.69-2.3-.85-3.22-.24-.86.57-1.04,1.58-1.55,2.39-.64,1.01-1.88,1.75-3.24,1.93-1.04.14-2.36.07-2.86.84-1.07,1.65,2.52,2.38,3.81,2.47,2.14.16,4.58-1.03,6.06-2.22Z"/>
      <path class="cls-2" d="m142.31,104.14c-.18-.66-1.02-1.04-1.81-1.24-.79-.2-1.69-.3-2.4.04-1.49.72-.86,2.55.57,3.01,1.33.43,4.04-.35,3.64-1.81Z"/>
    </g>
    <path class="cls-11" d="m71.22,56.06c3.93-1.93,8.84-3.72,12.86-5.43,1.43-.58,2.86-1.18,4.42-1.73-.95,1.35-2.18,2.45-3.5,3.39-3.98,2.74-8.92,4.35-13.78,3.77h0Z"/>
    <path class="cls-11" d="m119.91,50.6c4.33.65,9.38,1.96,13.67,2.84,1.51.33,3.03.65,4.62,1.09-3.1,1.1-6.47.97-9.63.3-3.16-.73-6.22-2.01-8.66-4.22h0Z"/>
  </g>
  <g>
    <path class="cls-10" d="m171.32,58.8c0,2.69-2.18,4.87-4.87,4.87s-4.87-2.18-4.87-4.87c0-2.39,1.73-4.38,4-4.79v-30.24c0-.42.34-.76.76-.76h.01c.42,0,.76.34.76.76v30.22c2.37.33,4.2,2.36,4.2,4.82Z"/>
    <path class="cls-3" d="m171.11,51.38v-26.99c0-1.21.12-2.49-.1-3.68-.67-3.63-6.09-4.12-8.24-1.67-1.13,1.29-.97,2.92-.97,4.49v27.85c-3.12,2.09-4.58,5.89-3.58,9.56.99,3.63,4.43,6.09,8.12,6.21,3.75.12,7.07-2.45,8.27-5.92,1.27-3.67-.35-7.73-3.49-9.84Zm.35,12.44c-3.26,3.22-8.71,2.34-11.15-1.39-1.25-1.91-1.41-4.29-.67-6.42.36-1.04,1.04-1.96,1.82-2.73.43-.42,1.64-.89,1.64-1.57v-27.6c0-1.35-.23-2.94.55-4.11.89-1.34,3.38-1.48,4.72-.8,1.03.52,1.43,1.6,1.43,2.69v29.83c0,.21.08.37.21.48.03.03.07.06.12.09,4.1,2.5,4.75,8.15,1.33,11.52Z"/>
    <path class="cls-2" d="m170.12,52.3s-.08-.06-.12-.09c-.12-.11-.21-.26-.21-.48v-29.83c0-1.08-.4-2.16-1.43-2.69-1.34-.68-3.83-.54-4.72.8-.78,1.17-.55,2.76-.55,4.11v27.6c0,.68-1.21,1.14-1.64,1.57-.78.76-1.45,1.68-1.82,2.73-.74,2.13-.58,4.51.67,6.42,2.43,3.73,7.89,4.6,11.15,1.39,3.41-3.37,2.77-9.02-1.33-11.52Zm-3.68,11.36c-2.69,0-4.87-2.18-4.87-4.87,0-2.39,1.73-4.38,4-4.79v-30.24c0-.42.34-.76.76-.76h.01c.42,0,.76.34.76.76v30.22c2.37.33,4.2,2.36,4.2,4.82,0,2.69-2.18,4.87-4.87,4.87Z"/>
  </g>
</svg>