<?xml version="1.0" encoding="UTF-8"?>
<svg id="Camada_1" data-name="Camada 1" xmlns="http://www.w3.org/2000/svg" xmlns:xlink="http://www.w3.org/1999/xlink" viewBox="0 0 200 200">
  <defs>
    <style>
      .cls-1 {
        fill: #f7e8e1;
      }

      .cls-2 {
        fill: #fff;
      }

      .cls-3 {
        fill: #2a234e;
      }

      .cls-4 {
        clip-path: url(#clippath-2);
      }

      .cls-5 {
        clip-path: url(#clippath-1);
      }

      .cls-6 {
        stroke: #2a234e;
        stroke-miterlimit: 10;
        stroke-width: .63px;
      }

      .cls-6, .cls-7 {
        fill: none;
      }

      .cls-8 {
        opacity: .3;
      }

      .cls-9 {
        fill: #55a533;
      }

      .cls-10 {
        clip-path: url(#clippath);
      }

      .cls-11 {
        fill: #8ec0c8;
      }

      .cls-12 {
        fill: #73b72b;
      }

      .cls-13 {
        fill: #371b45;
      }

      .cls-14 {
        clip-path: url(#clippath-3);
      }

      .cls-15 {
        fill: #b7dfe7;
      }

      .cls-16 {
        fill: #e1f2f7;
      }
    </style>
    <clipPath id="clippath">
      <circle class="cls-7" cx="-112.76" cy="80.07" r="67.25"/>
    </clipPath>
    <clipPath id="clippath-1">
      <path class="cls-7" d="m120.01,107.87c-.66-.92-2-1.13-2.99-.57-2.43,1.39-5.05,1.31-5.05,1.31,0,0-2.61.08-5.05-1.31-.98-.56-2.33-.36-2.99.57-.66.93-1.31,2.28-1.46,4.12-.12,1.47,1.16,2.69,2.61,2.43,1.57-.28,3.89-.55,6.88-.55s5.31.27,6.88.55c1.45.26,2.74-.96,2.61-2.43-.15-1.84-.8-3.2-1.46-4.12Z"/>
    </clipPath>
    <clipPath id="clippath-2">
      <circle class="cls-7" cx="92.49" cy="94.91" r="11.99" transform="translate(-40.03 93.2) rotate(-45)"/>
    </clipPath>
    <clipPath id="clippath-3">
      <circle class="cls-7" cx="131.46" cy="94.91" r="11.99" transform="translate(-28.61 120.76) rotate(-45)"/>
    </clipPath>
  </defs>
  <g class="cls-10">
    <g>
      <path class="cls-12" d="m-85.47,123.71c.35-3.31-.84-6.73-3.18-9.08-3-3.01-2.76-8.23-2.51-11.96.21-3.01-1.17-5.65-4.44-4.22-7.5,3.31-15.58-5.68-16.07-12.82-.16-7.57,2.84-13.55,7.77-18.96,3.42-3.75,9.05-3.95,12.93-.97,4.57,3.52,14.05-2.57,15.89-7.42.21-.55.43-1.32.32-1.81-1.12-5.03-8.1-6.76-11.32-2.95-2.09,2.47-5.44,2.83-7.95.76-4.61-3.81-6.71-1.83-9.5,2.88-.9,1.52-1.51,4.48-3.28,2.81-1.74-1.64-2.95-4.45-1.44-6.59,3.69-5.21,7.27-10.81,10.03-16.67.18-.38.69-.85.98-.82,6.56.63,7.56-7.78,9.76-12.14.77-1.54.59-2.35-.33-3.21-.94-.87-1.59-.23-2.23.83-1.08,1.78-2.16,3.57-3.25,5.33-.56.91-1,2.37-2.05,1.99-1.24-.45-1.58-2.14-1.22-3.54,1.04-4.01,3.03-8.31,6.16-11.09,2.37-2.1,6.34-3.16,8.82-.68,3.08,3.09,5.9,3.41,10.19,2.2,1.81-.51,3.75-1.06,5.58-1.23,3.1-.29,5.66-2.22,7.01-5.04,1.39-2.8,4.2-4.45,7.29-4.42,1.95.02,3.37-.77,4.37-2.91,1.79-3.82,5.58-6.22,9.67-6.73,6.08-.77,10.71.5,13.98,5.59.89,1.39,2.16,1.17,3.3,1.16,3-.04,6.17.12,9.04-.01,2.17-.1,4.95,1.49,5.95,3.42.68,1.3,1.7,1.64,2.76,1.7,1.46.08,3,.37,4.37.49,3.32.28,4.56,1.23,5.68,4.5.1,3-2.59,6.44-5.41,6.6-.82.04-1.79-.02-2.69-.18-2.52-.47-3.26,1.03-3.06,4.37.42,7.17-3.87,16.74-11.64,17.79-1.89.26-3,.75-2.75,3.71.13,1.55.03,3.33-1,4.7-2.36,3.13-4.04,6.87-3.73,10.81.25,3.1-3.02,4.74-5.34,2.66-2.53-2.26-4.93-4.75-7.19-7.32-1.74-1.98-3.02-1.73-4.45.85-1.23,2.22-2.97,4.37-4.01,6.55-1.33,2.77-4.18,4.29-6.41,1.51-2.67-2.57-4.16-3.65-7.48-3.49-1.18.06-2.34-.63-3.26-1.67-.93-1.06-2.02-2.24-3.05-.1-.98,2.02.81,2.24,1.47,3.05,1.2,1.47,2.58,2.72,3.89,3.98,2.3,2.22,2.06,4.95-.17,7.1-2.17,2.1-5.74,3.47-8.25.86-1.71-1.65-3.38-3.35-5.09-5-.81-.78-1.47-2.01-2.75-.04-1.36,2.09-.09,2.52.65,3.28,2.96,3.01,5.94,6,9,8.9,2.63,2.5,2.87,6.53.63,9.34-4.61,5.78-5.41,12.88-4.53,20.6.36,3.16.49,6.23.51,9.43.09,6.35-4.61,14.83-11.65,15.11-2.79.06-4.62-2.25-4.89-4.86-.23-2.25-.31-4.62-.41-6.91Z"/>
      <path class="cls-12" d="m9.76,95.29c.01.12.05.25.04.37-.22,1.86,1.47,4.14-.5,5.42-1.88,1.22-5.36,2.17-7.35.5-3.19-1.79-4.59-1.84-7.87-.81-2.64.83-5.7.17-7.06-2.53-1.61-2.95-.71-6.38.95-9.06,2.59-4.18,7.95-8,12.95-6.69,4.96,1.3,8.27,7.96,8.85,12.79Z"/>
      <path class="cls-12" d="m3.24,31.54c-.17,3.15-4.16,8.4-6.64,8.52-.65.03-1.57-.9-1.08-1.66,1.6-2.65,3.15-5.95,6.04-7.22.52-.23,1.62-.49,1.68.36Z"/>
      <path class="cls-12" d="m16.4,97.81c-.34.92,1.36,2.63-.68,2.74-2.13.12-2.8-1.94-2.87-3.98-.04-1.17-1.08-3.23.6-3.4,2.91-.29,2.41,2.72,2.94,4.64Z"/>
    </g>
    <g>
      <path class="cls-9" d="m-81.4,136.45c-2.78-.56-4.46-3.14-4.73-5.72-.19-1.87-.28-3.83-.36-5.72l-.05-1.42c.32-3.01-.75-6.08-2.87-8.21-3.19-3.2-3.13-8.28-2.82-12.79.1-1.51-.26-2.78-.93-3.25-.46-.32-1.13-.29-2,.09-2.96,1.31-6.32.98-9.45-.91-4.38-2.64-7.8-8.04-8.13-12.82v-.05c-.16-7.25,2.4-13.51,8.04-19.7,3.71-4.07,9.89-4.55,14.38-1.1,1.49,1.15,3.57.89,5.04.47,3.8-1.08,8.1-4.54,9.19-7.42.28-.72.29-1.12.27-1.2-.52-2.32-2.48-3.58-4.14-3.99-2.06-.51-4.09.07-5.31,1.51-2.47,2.92-6.54,3.31-9.46.9-1.62-1.34-2.89-1.9-3.87-1.73-1.35.24-2.58,1.9-4.02,4.33-.17.29-.34.67-.52,1.07-.53,1.17-1.13,2.49-2.35,2.73-.7.14-1.4-.11-2.07-.75-2.16-2.03-3.39-5.43-1.58-7.99,4.41-6.23,7.56-11.48,9.94-16.51.3-.63,1.15-1.52,2.05-1.43,3.91.37,5.46-3.05,7.23-7.92.48-1.32.93-2.57,1.47-3.63.63-1.25.35-1.51-.11-1.94-.03-.03-.06-.06-.09-.07-.09.08-.25.27-.5.68-.37.61-.74,1.22-1.11,1.83-.71,1.17-1.42,2.35-2.15,3.51-.1.17-.2.36-.3.55-.43.81-1.31,2.51-3.03,1.88-1.87-.67-2.37-2.99-1.89-4.82.74-2.85,2.56-8.14,6.49-11.63,2.81-2.49,7.37-3.56,10.29-.63,2.62,2.63,4.92,3.11,9.14,1.92l.09-.02c1.77-.5,3.78-1.07,5.69-1.24,2.64-.25,4.93-1.9,6.13-4.43,1.56-3.15,4.72-5.07,8.27-5.03,1.63.02,2.61-.64,3.38-2.3,1.87-4,5.8-6.75,10.51-7.34,7.02-.88,11.79,1.05,15.02,6.08.44.69.93.71,1.98.68.14,0,.27,0,.4,0,1.22-.01,2.48,0,3.69.02,1.78.02,3.62.05,5.31-.03,2.59-.11,5.77,1.72,6.95,4,.4.76.9,1.07,1.87,1.12.87.05,1.74.17,2.59.28.64.08,1.24.16,1.82.21,3.76.32,5.37,1.59,6.6,5.22l.05.15v.16c.12,3.71-3.06,7.52-6.42,7.7-.94.05-1.98-.02-2.94-.2-.44-.08-1.03-.13-1.31.12-.29.25-.6,1-.47,3.13.42,7.16-3.71,17.72-12.57,18.92-1.42.19-2.01.27-1.82,2.55.2,2.31-.2,4.09-1.21,5.44-2.59,3.44-3.77,6.83-3.52,10.08.15,1.89-.74,3.55-2.31,4.33-1.57.78-3.42.48-4.82-.78-2.41-2.16-4.86-4.65-7.28-7.41-.81-.92-1.2-.95-1.3-.94-.13.01-.6.17-1.4,1.6-.56,1-1.21,1.98-1.84,2.93-.82,1.23-1.59,2.4-2.14,3.56-.98,2.04-2.58,3.37-4.3,3.57-1.42.16-2.79-.48-3.87-1.8-2.49-2.39-3.72-3.28-6.64-3.15-1.44.07-2.9-.66-4.12-2.04-.21-.24-.67-.76-.92-.9-.07.07-.19.23-.35.56-.31.64-.3.65.41,1.12.31.21.65.44.93.78.95,1.16,2.05,2.22,3.12,3.23.23.22.46.43.68.65,1.27,1.23,1.94,2.67,1.95,4.18,0,1.59-.73,3.13-2.11,4.47-1.71,1.66-3.89,2.62-5.83,2.59-1.5-.03-2.86-.64-3.94-1.76-.87-.84-1.76-1.72-2.65-2.61-.8-.79-1.6-1.59-2.41-2.37-.12-.12-.24-.25-.36-.37-.1-.11-.24-.26-.35-.36-.08.08-.22.23-.39.5-.62.95-.53,1.02.05,1.51.16.14.32.28.47.43,2.42,2.47,5.63,5.71,8.97,8.87,3.03,2.87,3.35,7.51.73,10.79-3.92,4.91-5.28,11.2-4.3,19.81.32,2.85.49,5.88.52,9.54.09,6.55-4.69,15.88-12.69,16.19-.45,0-.88-.03-1.28-.11Zm-2.99-12.71l.05,1.18c.08,1.86.16,3.78.35,5.59.2,1.91,1.47,3.95,3.8,3.9,6.58-.26,10.68-8.48,10.6-14.02-.03-3.64-.19-6.51-.51-9.32-1.05-9.21.46-16.01,4.76-21.39,1.91-2.4,1.68-5.79-.53-7.88-3.36-3.19-6.59-6.44-9.03-8.93-.1-.1-.21-.2-.33-.29-.74-.63-2.11-1.79-.46-4.33.41-.62,1.06-1.46,2.03-1.54.97-.08,1.62.6,2.09,1.1.09.1.19.2.28.3.81.79,1.62,1.59,2.43,2.39.88.88,1.76,1.75,2.66,2.61.72.74,1.54,1.11,2.46,1.13,1.38.03,2.98-.72,4.29-1.99.95-.92,1.46-1.93,1.46-2.92,0-.92-.43-1.81-1.29-2.63-.22-.21-.45-.43-.67-.64-1.11-1.06-2.27-2.16-3.3-3.43-.08-.1-.29-.24-.47-.36-.73-.5-2.26-1.53-1.14-3.84.19-.4.78-1.62,1.99-1.79,1.24-.17,2.16.88,2.84,1.64.76.87,1.64,1.35,2.4,1.31,3.73-.18,5.47,1.08,8.28,3.79l.09.1c.63.78,1.3,1.14,1.99,1.06.95-.11,1.97-1.04,2.61-2.36.62-1.3,1.47-2.58,2.29-3.82.61-.92,1.23-1.86,1.75-2.79.6-1.08,1.57-2.54,3.05-2.7,1.04-.11,2.07.43,3.15,1.66,2.36,2.69,4.75,5.12,7.1,7.23.75.67,1.66.84,2.43.46.78-.39,1.2-1.22,1.12-2.23-.3-3.79,1.03-7.67,3.94-11.54.68-.91.94-2.2.79-3.96-.31-3.59,1.25-4.54,3.67-4.87,6.84-.93,11.13-9.52,10.71-16.66-.1-1.68-.05-3.76,1.2-4.87.75-.66,1.8-.87,3.13-.62.79.15,1.67.21,2.43.17,2.13-.11,4.38-2.87,4.4-5.34-.95-2.72-1.82-3.37-4.7-3.61-.62-.05-1.28-.14-1.91-.22-.81-.11-1.64-.22-2.43-.26-1.72-.1-2.91-.85-3.65-2.28-.81-1.56-3.17-2.92-4.95-2.84-1.75.08-3.62.05-5.43.03-1.2-.02-2.45-.03-3.64-.02-.12,0-.24,0-.36,0-1.09.03-2.74.08-3.86-1.66-2.8-4.37-6.67-5.89-12.94-5.1-3.97.5-7.27,2.79-8.83,6.12-1.13,2.41-2.88,3.57-5.36,3.53-2.71-.03-5.13,1.43-6.31,3.82-1.52,3.2-4.47,5.32-7.87,5.63-1.71.16-3.54.67-5.3,1.17l-.09.02c-4.12,1.16-7.6,1.18-11.25-2.48-2.11-2.12-5.56-.85-7.34.72-3.5,3.11-5.16,7.95-5.83,10.55-.25.95-.03,1.94.45,2.22.15-.18.35-.57.48-.82.13-.24.25-.48.38-.69.72-1.16,1.43-2.33,2.14-3.5.37-.61.74-1.22,1.11-1.83.48-.78,1.1-1.6,2.06-1.74.63-.09,1.25.14,1.82.68,1.34,1.25,1.51,2.59.56,4.48-.48.95-.91,2.14-1.37,3.4-1.57,4.34-3.53,9.74-9.2,9.35-.06.06-.13.14-.16.19-2.43,5.15-5.64,10.5-10.13,16.84-1.24,1.75.1,4.06,1.3,5.19.09.08.15.13.2.16.24-.26.59-1.03.79-1.46.2-.43.4-.88.63-1.28,1.79-3.02,3.33-4.98,5.5-5.35,1.66-.29,3.45.4,5.61,2.19,2.02,1.66,4.73,1.4,6.44-.63,1.75-2.07,4.6-2.91,7.47-2.2,2.92.72,5.11,2.87,5.72,5.62.14.62.01,1.44-.36,2.43-1.34,3.53-6.1,7.45-10.61,8.72-2.8.79-5.2.51-6.94-.83-3.59-2.76-8.53-2.4-11.48.84-5.24,5.76-7.62,11.54-7.49,18.19.29,4.07,3.34,8.84,7.09,11.11,1.78,1.07,4.52,2.08,7.47.78,2-.88,3.34-.42,4.11.12,1.33.93,2,2.81,1.84,5.16-.28,4.04-.36,8.56,2.19,11.12,2.55,2.56,3.86,6.25,3.5,9.87Z"/>
      <path class="cls-9" d="m-9.52,102.05c-1.91-.39-3.54-1.55-4.43-3.31-1.56-2.86-1.21-6.56.99-10.11,2.88-4.65,8.65-8.6,14.14-7.16,5.7,1.49,9.07,8.91,9.65,13.7v.07c.03.13.06.32.04.55-.05.46.07,1.04.21,1.66.29,1.31.72,3.3-1.2,4.54-1.97,1.28-6,2.52-8.54.5-2.79-1.55-3.85-1.65-6.94-.68-1.35.42-2.69.49-3.91.24ZM.27,83.46c-4.33-.88-9.06,2.53-11.39,6.3-.84,1.36-2.62,4.86-.92,7.98,1.16,2.3,3.74,2.66,5.79,2.02,3.66-1.15,5.37-.98,8.72.89l.16.11c1.55,1.29,4.54.42,6.08-.58.59-.38.58-.83.26-2.28-.15-.7-.33-1.5-.25-2.29v-.02c-.01-.06-.02-.12-.03-.17-.58-4.85-3.83-10.76-8.06-11.87-.12-.03-.25-.06-.37-.09Z"/>
      <path class="cls-9" d="m-3.8,41.09c-.64-.13-1.26-.58-1.61-1.2-.39-.68-.38-1.46.03-2.09.21-.34.43-.74.66-1.13,1.43-2.46,3.05-5.26,5.85-6.48.44-.19,1.55-.58,2.41-.05.46.28.74.75.77,1.33v.13c-.19,3.49-4.5,9.38-7.66,9.53-.15,0-.3,0-.45-.04Zm.24-2.14s0,0,0,0c0,0,0,0,0,0Zm.19.04h0Zm-.15-.11s.08.08.12.1c1.65-.17,4.88-4.04,5.47-6.85-.03.01-.06.02-.09.03-2.15.94-3.52,3.31-4.85,5.59-.22.38-.44.75-.65,1.12Z"/>
      <path class="cls-9" d="m14.81,101.56c-.58-.12-1.1-.38-1.54-.78-1.16-1.06-1.46-2.86-1.5-4.17,0-.21-.08-.54-.14-.85-.19-.89-.43-2,.19-2.85.24-.32.69-.72,1.53-.81,3.26-.33,3.65,2.55,3.86,4.09.07.49.13.95.23,1.32l.09.33-.1.27c.01.12.09.36.15.53.19.6.46,1.42-.05,2.15-.51.75-1.44.8-1.75.82-.34.02-.66,0-.97-.07Zm-1.24-7.32c0,.26.1.77.17,1.07.09.41.18.83.19,1.23.04,1.26.33,2.23.8,2.66.14.13.38.29.85.28-.02-.06-.04-.11-.05-.16-.14-.43-.31-.95-.23-1.49-.1-.44-.16-.9-.22-1.34-.29-2.15-.52-2.34-1.5-2.24Z"/>
    </g>
  </g>
  <g>
    <g>
      <path class="cls-3" d="m134.58,126.87c21.19,2.59,33.95-12.53,34.51-13.21l-2.38-1.97c-.13.15-11.43,15.07-32.35,11.26-1.05-.19-2.05.49-2.25,1.53h0c-.21,1.09.54,2.12,1.64,2.28.28.04.56.08.83.11Z"/>
      <g>
        <g>
          <path class="cls-2" d="m166.91,115.95c-2.25-1.84-3.78-4.74-4.27-7.49-.39-2.19-.26-4.81,1.81-6.54,0,0,1.81-2.04,4.74-.35,0,0,2.53-1.8,5.62-1.2,1.65.33,2.9,1.79,2.81,3.47,0,.11-.02.22-.03.34,0,0,1.21-.4,2.77,1.31.72.79,1.17,1.81,1.16,2.88,0,.7-.19,1.5-.8,2.22,0,0,.7,1.16.3,2.83-1.06,4.43-8.68,5.35-12.16,3.76-.7-.32-1.35-.73-1.95-1.23Z"/>
          <path class="cls-1" d="m168.86,117.17c-.7-.32-1.35-.73-1.95-1.22-2.25-1.85-3.77-4.75-4.27-7.49-.24-1.32-.28-2.8.18-4.14-.09,1.62.16,3.3.8,4.92,2.28,5.87,8.65,8.87,14.23,6.7,1.07-.42,2.04-.99,2.88-1.7-1.75,3.71-8.61,4.41-11.86,2.93Z"/>
          <path class="cls-1" d="m164.63,112.02s-1.23.24-2.51.81c-.73.32-1.04,1.19-.7,1.9.62,1.29,1.84,3.27,3.9,4.39.65.35,1.45.17,1.88-.44.4-.58.89-1.43,1.28-2.59l-3.85-4.07Z"/>
          <path class="cls-3" d="m169.19,101.56s1.81,1.29,2.82,3.29c.5,1,.2,2.25-.73,2.87-.03.02-.07.05-.11.07-.88.54-2.03.44-2.79-.27-.48-.44-1.17-1.02-2.12-1.66,0,0,1.1,1.21,2.08,2.47.6.77,1.64,1.09,2.55.72.05-.02.09-.04.14-.06.72-.32,1.31-.88,1.68-1.57v-.02c.45-.83.44-1.83.04-2.68-.47-.99-1.39-2.42-3.07-3.46,0,0-.26.12-.48.29Z"/>
          <path class="cls-3" d="m166.26,105.87s2.7,2.64,1.74,5.91c0,0,1.66-1.8.1-4.17l-1.85-1.74Z"/>
          <path class="cls-3" d="m180.71,110.58s-1.14-2.22-5.03-.83c0,0-1.7.6-2.86,1.48-.85.64-1,1.88-.36,2.73l.02.03c.48.64,1.3.92,2.08.72.86-.23,2.05-.6,2.67-1.02,0,0-1.11,1.1-2.55,1.63-1.05.38-2.24.02-2.93-.86,0-.01-.02-.03-.03-.04-.86-1.13-.63-2.76.48-3.64.69-.54,1.71-1.16,3.2-1.74,0,0,3.91-1.68,5.79,1.24l-.49.31Z"/>
          <path class="cls-3" d="m177.59,104.18s-2.07.24-4.93,1.93l-.12-.81s3-1.71,5.42-1.72"/>
          <path class="cls-3" d="m170.07,108.64s-.53,1.95,1.76,3.06l-.22.53s-2.62-.99-2.1-3.62l.56.03Z"/>
        </g>
        <path class="cls-3" d="m173.51,100.24c.42,0,.85.04,1.3.13,1.65.33,2.9,1.79,2.81,3.47,0,.11-.02.22-.03.34,0,0,.12-.04.34-.04.47,0,1.37.19,2.42,1.35.72.79,1.17,1.81,1.16,2.88,0,.7-.19,1.5-.8,2.22,0,0,.7,1.16.3,2.83-.74,3.11-4.71,4.49-8.22,4.49-1.49,0-2.9-.25-3.94-.73-.22-.1-.43-.23-.65-.35-.33.79-.69,1.42-1,1.86-.28.4-.72.62-1.18.62-.24,0-.47-.06-.7-.18-2.07-1.12-3.29-3.09-3.9-4.39-.34-.72-.03-1.58.7-1.9.68-.3,1.34-.51,1.82-.64-.63-1.2-1.08-2.48-1.3-3.73-.39-2.19-.26-4.81,1.81-6.54,0,0,.91-1.02,2.47-1.02.65,0,1.41.17,2.26.67,0,0,1.85-1.32,4.32-1.32m0-1.11h0c-1.94,0-3.54.71-4.37,1.16-.74-.34-1.48-.51-2.22-.51-1.81,0-2.94,1.02-3.23,1.32-1.98,1.68-2.72,4.29-2.14,7.54.17.94.46,1.92.85,2.87-.25.09-.5.19-.73.3-.62.27-1.1.78-1.34,1.42-.24.64-.21,1.36.09,1.97.74,1.55,2.09,3.65,4.38,4.89.38.2.8.31,1.22.31.83,0,1.61-.41,2.09-1.09.22-.31.42-.65.61-1,1.12.44,2.55.69,4.07.69,3.99,0,8.41-1.65,9.29-5.34.3-1.27.1-2.3-.12-2.95.42-.69.64-1.49.65-2.34.01-1.3-.5-2.59-1.45-3.63-.91-1.01-1.78-1.45-2.48-1.62-.24-1.87-1.71-3.45-3.68-3.84-.49-.1-1-.15-1.51-.15h0Z"/>
        <path class="cls-3" d="m163.94,112.19s1.16,2.16,2.71,3.39c0,0-2.1-.32-3.72-3.32l1.01-.07Z"/>
      </g>
    </g>
    <g>
      <path class="cls-3" d="m58.01,133.97s2.36-6.62,6.1-11.75c2.11-2.89,5.73-4.26,9.23-3.53,3.05.64,6.92,1.65,9.81,4.82.71.78,1.95.74,2.57-.12h0c.47-.65.42-1.53-.14-2.11-1.71-1.78-5.87-5.25-12.67-5.74-4.34-.32-8.49,1.66-11.04,5.19-2.12,2.94-4.61,7.2-6.51,12.9l2.64.34Z"/>
      <g>
        <path class="cls-2" d="m59.14,133.92s.96-.61,1.9-1.84c.51-.67.35-1.64-.37-2.08-1.03-.62-2.69-1.38-4.8-1.52-.73-.05-1.38.45-1.5,1.18-.11.68-.2,1.63-.11,2.81l4.88,1.45Z"/>
        <path class="cls-2" d="m61.7,145.18c.37-3.63-2.25-4.17-2.33-4.19,1.6-.08,2.54-.75,3.09-1.46.64-.83.83-1.91.66-2.94,0,0,0-.03-.02-.08-.11-.5-.85-3.23-4.13-4.71-2.3-1.04-4.96-1.12-7.32-.21-2.73,1.05-6.12,3.69-6.56,10.28-.05.79.08,1.61.5,2.28.67,1.06,1.83,1.71,3.13,1.57.09,2.24,2.55,3.72,4.63,2.68.59-.29.99-.7,1.25-1.04.43.48,1.49,1.42,3.11,1.52.04,0,.08,0,.12,0,.17,0,.35,0,.54-.01,1.18-.11,1.96-.74,2.45-1.35.52-.67.8-1.49.88-2.33Z"/>
        <path class="cls-1" d="m55.36,139.84s-2.45,6.64,2.08,8.14c0,0,1.83.62,3.05-.1,0,0-1.32,2.83-5.79.28,0,0-2.2-3.8.67-8.32Z"/>
        <path class="cls-1" d="m53.56,148.27h0s0,0,0,.01c-.06.03-.13.07-.2.11-2.07,1.04-4.54-.44-4.63-2.68-.13.01-.26.02-.39.02-.13-1.65.18-4.21,2.35-7.2-.2.39-3.14,6.34-.17,9.03.55.49,1.25.81,1.98.85.33.02.69,0,1.06-.13Z"/>
        <path class="cls-3" d="m60.56,137.87s-1.54,2.34-1.08,6.35c0,0-2.5-3.65,1.08-6.35Z"/>
        <path class="cls-3" d="m55.2,147.91s-2.07-1.9.16-8.07c0,0-3.49,4.2-1.2,8.38l1.04-.31Z"/>
        <path class="cls-3" d="m48.73,145.71s-.25-3.95,1.97-7.2c0,0-3.36,2.58-2.78,7.4,0,0,.64-.19.8-.2Z"/>
        <path class="cls-3" d="m60.52,132.7s-1.3-1.26-4.55-1.71c0,0,2.68-.77,5.25,1.21,0,0-.56.37-.7.5Z"/>
        <path class="cls-3" d="m55.77,128.47s.07,0,.1,0c2.11.14,3.77.9,4.8,1.52.72.44.89,1.41.37,2.08-.18.23-.35.44-.53.62,1.98,1.49,2.5,3.4,2.59,3.8.01.05.02.08.02.08.17,1.04-.02,2.11-.66,2.94-.55.71-1.48,1.38-3.09,1.46.08.02,2.7.56,2.33,4.19-.08.85-.36,1.67-.88,2.33-.49.61-1.27,1.24-2.45,1.35-.12.01-.24.01-.36.01-.06,0-.12,0-.18,0-.04,0-.08,0-.12,0-1.62-.09-2.68-1.04-3.11-1.52-.26.34-.66.75-1.25,1.04-.46.23-.95.34-1.42.34-1.64,0-3.13-1.28-3.21-3.02-.12.01-.23.02-.35.02-1.16,0-2.17-.63-2.78-1.59-.43-.67-.56-1.49-.5-2.28.44-6.58,3.82-9.22,6.56-10.28.83-.32,1.71-.51,2.59-.59.02-.52.07-.97.13-1.34.11-.69.71-1.18,1.4-1.18m0-1.11c-1.24,0-2.29.89-2.49,2.11-.03.17-.05.35-.07.54-.68.12-1.33.3-1.95.54-3.05,1.18-6.78,4.08-7.26,11.24-.07,1.12.16,2.13.67,2.95.72,1.14,1.87,1.89,3.14,2.06.54,1.75,2.21,3.04,4.13,3.04.67,0,1.31-.15,1.92-.46.28-.14.55-.31.8-.51.69.5,1.7,1.02,3,1.1h.14c.08.01.15.01.22.01.15,0,.3,0,.45-.02,1.29-.12,2.4-.73,3.22-1.77.62-.79,1.01-1.8,1.12-2.92.18-1.75-.25-3-.89-3.85.66-.36,1.12-.82,1.43-1.23.79-1.03,1.1-2.38.87-3.79v-.06s-.03-.06-.03-.06c-.08-.39-.53-2.13-2.14-3.72.35-.55.48-1.21.35-1.85-.13-.7-.56-1.3-1.16-1.67-1.13-.68-2.96-1.52-5.29-1.68-.06,0-.12,0-.18,0h0Z"/>
      </g>
    </g>
    <g>
      <g>
        <path class="cls-13" d="m173.14,44.68c-.01,1.03-.3,2-.84,2.95-.68,1.2-1.54,2.12-2.62,3.07-2.81,2.47-6.34,4.18-9.78,5.57-10.87,4.39-22.75,6.41-34.35,7.64-14.82,1.57-29.83,1.7-44.68.48-12.21-1-24.61-2.84-36.21-6.9-3.93-1.37-7.83-3.03-11.26-5.41-1.25-.87-2.42-1.86-3.41-3.02-.72-.85-1.35-1.93-1.63-2.96-.26-.96-.26-1.92.02-2.89.29-1.01.94-2.11,1.66-2.95,2.27-2.64,5.43-4.43,8.53-5.91,9.98-4.76,21.36-6.87,32.24-8.3,14.61-1.92,29.45-2.3,44.15-1.45,12.79.74,25.72,2.38,38.02,6.09,4.37,1.32,8.71,2.9,12.67,5.18,2.58,1.49,5.27,3.38,6.69,5.92.52.93.79,1.87.8,2.89.02,1.83,2.86,1.83,2.84,0-.07-7.11-8.3-11.33-13.89-13.73-11.19-4.79-23.51-6.9-35.54-8.23-15.42-1.71-31.06-1.85-46.51-.52-12.58,1.08-25.44,2.98-37.34,7.36-4.03,1.48-8.09,3.26-11.55,5.85-2.45,1.84-4.84,4.21-5.58,7.29-1.66,6.86,5.46,11.71,10.69,14.33,10.23,5.14,21.95,7.4,33.21,8.94,15.26,2.08,30.77,2.53,46.13,1.59,13.26-.81,26.74-2.53,39.43-6.56,4.45-1.41,8.91-3.12,12.9-5.57,2.75-1.69,5.59-3.87,7.06-6.82.61-1.24.97-2.55.99-3.94.02-1.83-2.82-1.83-2.84,0Z"/>
        <path class="cls-13" d="m71.74,78.52c-.55,0-1.09-.01-1.64-.03-6.9-.19-13.89-.62-20.68-1.89-6.04-1.13-12.13-3.16-16.96-7.09-4.08-3.32-7.43-8.04-8.07-13.37-.82-6.83,2.62-13.78,6.81-18.96.57-.71-.34-1.69-1.02-1.02-4.61,4.56-8.11,10.3-8.57,16.88-.42,6,2.1,11.74,6.27,15.98,4.48,4.56,10.33,7.14,16.48,8.61,6.87,1.64,14.07,2.16,21.11,2.4,1.94.07,3.89.1,5.84.09.11-.55.25-1.09.43-1.62Z"/>
        <path class="cls-13" d="m180.28,48.99c-.47-4.68-2.75-9.07-6.24-12.21-3.58-3.23-8.02-4.9-12.77-5.41-1.23-.13-1.49,1.9-.29,2.16,7.62,1.62,15.04,6.76,16.32,14.91,1.29,8.19-4.67,14.85-11.38,18.51-3.76,2.05-7.84,3.51-11.92,4.8-3.7,1.17-7.45,2.19-11.23,3.11.4.58.75,1.19,1.03,1.84,3.83-.94,7.62-1.99,11.38-3.15,4.32-1.33,8.66-2.75,12.62-4.99,6.89-3.88,13.33-11.12,12.48-19.56Z"/>
        <path class="cls-13" d="m70.39,87.32c-4.15-.25-8.3-.55-12.43-.98-.62-.06-.77.99-.15,1.09,4.07.63,8.15,1.12,12.25,1.47.09-.53.2-1.06.33-1.58Z"/>
        <path class="cls-13" d="m177.13,59.32c-1.13-.98-2.79.68-1.65,1.65,2.12,1.79,2.79,4.55,2.34,7.24-.5,3.02-2.26,5.47-4.62,7.36-2.61,2.08-5.76,3.42-8.84,4.62-3.55,1.38-7.14,2.64-10.77,3.79-1.72.55-3.46,1.06-5.2,1.56.27.61.48,1.24.62,1.88,1.99-.56,3.97-1.13,5.95-1.75,3.77-1.18,7.51-2.47,11.19-3.93,3.21-1.27,6.37-2.74,9.02-4.99,2.66-2.25,4.5-5.24,4.93-8.72.4-3.2-.48-6.54-2.97-8.7Z"/>
        <path class="cls-13" d="m69.75,92.16c-5.54.36-11.18-.03-16.55-1.22-3.71-.82-7.36-2.02-10.87-3.47-3.13-1.3-6.39-2.93-8.77-5.39-2.68-2.77-3.6-7.34-1.42-10.64.67-1.01-.96-1.96-1.63-.95-1.97,2.98-1.87,6.84-.49,10.03,1.5,3.46,4.44,6.15,7.69,7.95,7.29,4.03,16.14,5.62,24.39,5.67,2.6.01,5.15-.17,7.67-.52-.03-.48-.04-.97-.03-1.46Z"/>
        <path class="cls-13" d="m69.99,95.52c-4.56.81-9.26,1.03-13.86.71-4.84-.33-12-.97-12.46-7.09-.06-.78-1.15-.98-1.39-.19-.77,2.49.96,5.1,2.91,6.51,2.43,1.76,5.61,2.17,8.51,2.52,5.61.67,11.16.26,16.6-1.03-.12-.47-.23-.95-.31-1.43Z"/>
        <path class="cls-13" d="m172.54,79.28c-.19-1.76-2.97-1.8-2.79,0,.33,3.23-3.19,5.12-5.64,6.34-3.6,1.78-7.31,3.32-11.1,4.66-1.25.44-2.52.86-3.79,1.27-.02.66-.06,1.31-.11,1.97,5.74-1.61,11.36-3.66,16.76-6.15,3.2-1.48,7.11-4.04,6.67-8.08Z"/>
        <path class="cls-13" d="m73.52,102.71c-2.99-.13-5.97-.3-8.91-.87-1.9-.37-3.8-.89-5.58-1.66-1.88-.81-3.46-1.97-5.09-3.19-.78-.58-1.97.59-1.37,1.37,4.54,5.89,13.44,6.39,20.24,6.58,1.33.04,2.67.05,4,.06-1.19-.55-2.31-1.32-3.3-2.29Z"/>
        <path class="cls-13" d="m166,86.95c-.5-1.46-2.84-.81-2.31.64,1.7,4.62-3.5,7.5-7,8.94-2.8,1.15-5.67,2.14-8.56,3.01-.22.79-.49,1.57-.8,2.33,3.9-1.09,7.74-2.39,11.46-3.96,4.26-1.8,9-5.73,7.21-10.96Z"/>
        <path class="cls-13" d="m87.68,114.49c-.33-.51-.6-1.06-.85-1.63-3.02-.12-6.04-.41-8.99-1-1.81-.37-3.86-.84-5.17-2.25-1.16-1.26-1.56-3.03-.65-4.52.7-1.15-1.05-2.59-1.92-1.48-1.88,2.41-1.16,5.8.95,7.85,2.67,2.58,6.62,2.72,10.09,2.96,2.18.15,4.37.23,6.57.26-.01-.06-.03-.12-.04-.18Z"/>
        <path class="cls-13" d="m159.47,98.06c-.21-1.33-2.24-.77-2.03.56.28,1.79-.4,3.98-1.2,5.56-.91,1.78-2.26,3.36-3.82,4.6-3.44,2.71-7.97,3.7-12.18,4.52-2.66.52-5.33.98-8,1.39.03.81-.06,1.6-.24,2.36,3.23-.5,6.44-1.07,9.63-1.74,4.46-.93,9.01-2.21,12.69-5.01,1.89-1.44,3.45-3.31,4.44-5.48,1.04-2.27,1.1-4.34.72-6.77Z"/>
        <path class="cls-13" d="m101.51,124.77c-.38-.06-.77-.13-1.17-.2-.27,0-.53,0-.8-.01-4.28-.14-8.52-.97-12.53-2.45-1.73-.64-3.63-1.42-4.68-3.02-.74-1.13-1.11-3.18.14-4.09.95-.7.05-2.3-.94-1.61-2.28,1.59-2.82,4.8-1.24,7.1,2.01,2.93,5.85,4.07,9.13,4.86,4.66,1.12,9.5,1.29,14.3.94-.8-.41-1.54-.93-2.21-1.53Z"/>
        <path class="cls-13" d="m110.07,127.89c-5.88,1.98-12.53,2.66-18.67,1.79-2.42-.34-6.13-.63-7.59-2.93-.56-.88-.66-2.07-.1-2.97.4-.64,1.04-1.35.16-1.93-.28-.18-.66-.16-.95,0-2.06,1.16-1.84,4.27-.63,5.96,1.72,2.4,5.11,2.92,7.82,3.31,3.35.49,6.81.61,10.18.37,3.46-.25,6.88-1.11,10.18-2.17.91-.29.51-1.74-.39-1.43h0Z"/>
        <path class="cls-13" d="m124.27,126.27c5.75-.12,11.32-1.52,16.6-3.76,2.25-.95,4.81-1.97,6.6-3.68,1.66-1.58,2.4-4.13,1.02-6.13-.7-1.01-2.36-.07-1.67.97,2.67,4.05-6.25,7.24-8.76,8.19-4.42,1.69-9.11,2.69-13.81,3.22-.73.08-.77,1.19,0,1.18h0Z"/>
        <path class="cls-13" d="m108.32,133.71c6.6.17,13.23-.95,19.58-2.72,3.08-.86,6.14-1.87,9.08-3.14,2.34-1.01,4.93-2.91,4.56-5.79-.13-1.04-1.67-1.12-1.68,0-.05,3.1-3.54,4.18-5.93,5.09-2.68,1.01-5.42,1.88-8.19,2.6-5.71,1.48-11.54,2.23-17.41,2.76-.76.07-.78,1.18,0,1.2h0Z"/>
        <path class="cls-13" d="m113.15,137.06c-.76.07-1.52-.01-2.29.07-.76.09-1.52.19-2.29.26-1.53.14-3.06.24-4.59.33-3.13.17-6.27.28-9.41.05-2.6-.19-5.79-.39-7.73-2.37-1.54-1.57-1.69-3.96-.52-5.74.38-.58-.35-1.17-.89-.89-2.23,1.14-2.27,4.19-1.2,6.14,1.34,2.44,4.29,3.45,6.88,3.85,3.47.53,7.07.49,10.57.32,1.84-.09,3.67-.26,5.51-.45.92-.09,1.83-.2,2.75-.28,1.1-.1,2.12-.37,3.2-.5.48-.06.5-.82,0-.78h0Z"/>
        <path class="cls-13" d="m93.33,142.04c1.89.17,3.76.47,5.66.53,1.88.06,3.78-.09,5.65-.27,3.67-.36,7.33-.95,10.91-1.86,5.7-1.44,14.79-3.67,15.33-10.85.08-1.12-1.67-1.12-1.75,0-.25,3.37-3.29,5.39-6.12,6.6-3.08,1.33-6.32,2.36-9.57,3.18-3.32.84-6.69,1.41-10.11,1.68-3.29.26-6.71.6-10,.44-.35-.02-.34.5,0,.53h0Z"/>
        <path class="cls-13" d="m90.34,145.85c2.56.4,5.08.96,7.67,1.06,2.66.1,5.37-.19,7.99-.62,3.67-.6,8.03-2.06,9.44-5.86.33-.89-1.01-1.37-1.48-.62-2.06,3.24-5.66,4.32-9.26,4.91-2.37.39-4.75.52-7.14.65-2.39.13-4.78.27-7.15-.04-.29-.04-.37.48-.07.52h0Z"/>
        <path class="cls-13" d="m95.99,149.45c-4.24.49-9.64,1.09-12.86-2.38-1.49-1.61-2.16-3.82-1.62-5.97.47-1.89,1.96-3.74,3.86-4.36,1.03-.34.4-1.88-.58-1.38-2.14,1.1-3.83,2.78-4.52,5.15-.67,2.28-.24,5.07,1.21,6.98,1.42,1.87,3.62,3.04,5.87,3.56,2.93.68,5.91.24,8.82-.29.73-.13.57-1.39-.18-1.31h0Z"/>
        <path class="cls-13" d="m82.59,152.43c2.52,1.42,5.05,2.31,7.95,2.64,2.91.33,5.77-.2,8.61-.82,2.5-.55,5.38-1.43,7.21-3.33,1.16-1.22,2.87-4.76.86-5.95-.36-.22-.76,0-.9.36-.32.88.11,1.89-.18,2.84-.36,1.21-1.14,2.17-2.14,2.92-1.93,1.45-4.6,2.3-6.98,2.58-4.65.53-9.81-.21-14.21-1.76-.31-.11-.5.37-.22.53h0Z"/>
        <path class="cls-13" d="m83.86,158.29c3.39,1.32,7.08,2.14,10.68,1.13,1.41-.4,2.73-1.06,3.87-1.98.95-.76,2.34-2.16,2.07-3.51-.04-.22-.31-.3-.49-.2-.52.29-.83.85-1.23,1.28-.42.46-.82.92-1.3,1.32-1.05.88-2.32,1.48-3.64,1.83-3.17.83-6.63.1-9.69-.86-.64-.2-.87.75-.27.98h0Z"/>
        <path class="cls-13" d="m86.04,160.71c-1.75,0-3.56-.7-5.04-1.63-1.53-.95-2.56-2.36-3.05-4.08-.45-1.58-.34-3.27.4-4.74.33-.67.76-1.27,1.3-1.78.57-.56,1.33-.93,1.88-1.5.42-.44.15-1.34-.53-1.29-1.87.14-3.4,2.13-4.12,3.71-.84,1.84-.93,3.94-.29,5.86.62,1.86,1.92,3.54,3.53,4.66,1.79,1.24,3.81,1.48,5.93,1.3.32-.03.33-.51,0-.51h0Z"/>
        <path class="cls-13" d="m79.3,163.03c1.59.81,3.01,1.71,4.8,2.03,1.74.31,3.42.33,5.12-.2,1.5-.46,3.06-1.02,4.3-2,.62-.49,1.12-.95,1.4-1.7.28-.75.32-1.61-.12-2.3-.39-.62-1.51-.42-1.46.39.04.67.05,1.15-.25,1.76-.3.62-.72,1.02-1.29,1.41-1.18.8-2.48,1.09-3.89,1.12-1.4.03-2.74-.04-4.12-.22-1.41-.19-2.93-.36-4.29-.77-.28-.08-.48.35-.21.49h0Z"/>
        <path class="cls-13" d="m85.68,167.23c-2.83.29-5.85-.91-7.51-3.26-1.68-2.37-1.87-5.6-.59-8.2.51-1.04-1.04-1.97-1.57-.92-1.59,3.16-1.29,7.14.85,9.99,1.04,1.39,2.44,2.37,4.01,3.08,1.62.73,3.24.86,4.99.61.73-.1.57-1.38-.18-1.31h0Z"/>
        <path class="cls-13" d="m78.91,169.66c2.4,1.9,5.64,2.26,8.47,1.18,2.83-1.08,5.76-3.94,4.48-7.24-.37-.96-1.88-.6-1.58.44.34,1.17-.25,2.41-.95,3.34-.68.9-1.71,1.62-2.78,2.01-2.26.81-4.85.56-6.92-.67-.57-.34-1.27.51-.73.94h0Z"/>
        <path class="cls-13" d="m81.71,173.91c2.18.46,4.56.76,6.54-.5.85-.53,1.6-1.3,2-2.23.34-.79.85-2.58-.19-3.04-.26-.11-.57-.12-.78.1-.39.42-.28.82-.32,1.34-.02.27-.1.59-.21.86-.29.7-.78,1.34-1.4,1.77-1.52,1.05-3.64,1.13-5.41.86-.54-.08-.78.72-.23.83h0Z"/>
        <path class="cls-13" d="m87.55,176.48c-3.07.87-7-.02-9.04-2.58-1.02-1.28-1.7-2.88-1.88-4.5-.19-1.71.15-3.23.87-4.78.58-1.26-1.23-2.38-1.9-1.11-1.87,3.56-1.19,8.56,1.54,11.49,2.76,2.95,6.93,4.24,10.81,2.94.91-.3.54-1.72-.4-1.45h0Z"/>
        <path class="cls-13" d="m83.65,180.71c2.67.68,5.33-.44,6.94-2.62.81-1.09,1.25-2.48,1.22-3.84-.03-1.36-.42-3.22-1.6-4.04-.68-.47-1.54.31-1.34,1.03.14.54.5.98.68,1.5.17.49.28.99.3,1.51.04,1.02-.12,2.06-.63,2.96-.99,1.73-3.33,2.7-5.26,2.43-.68-.09-1.01.89-.29,1.07h0Z"/>
        <path class="cls-13" d="m90.56,182.79c-2.31.82-4.95.52-6.92-.97-.85-.65-1.58-1.51-2.09-2.44-.27-.48-.5-.99-.67-1.52-.18-.55-.17-1.4-.64-1.77-.32-.25-.79-.34-1.1,0-.54.59-.29,1.49-.14,2.2.15.69.39,1.34.71,1.97.65,1.29,1.6,2.37,2.78,3.21,2.43,1.72,5.77,2.06,8.52.95.42-.17.72-.56.59-1.04-.12-.41-.6-.74-1.04-.59h0Z"/>
        <path class="cls-13" d="m92.26,186.24c.9-.3,1.5-.92,1.86-1.79.34-.83.39-1.76.23-2.64-.36-2-2.08-3.77-3.66-4.93-.85-.62-1.88.75-1.12,1.45,1.18,1.08,2.69,1.97,3.22,3.58.38,1.16.14,2.67-.93,3.4-.45.31-.19,1.13.39.93h0Z"/>
        <path class="cls-13" d="m86.59,184.39c.13.55.32,1.08.63,1.55.16.23.33.46.51.68.2.24.46.39.66.62.73.85,1.67,1.78,2.78,2.1.6.17,1.16.2,1.77.12.59-.07,1.2-.14,1.77-.3,1.17-.31,2.34-.98,2.44-2.32.13-1.72-1.33-2.75-2.69-3.42-1.23-.6-2.03,1.24-.73,1.74.73.28,2.7,1.12,1.87,2.22-.69.91-2.14.74-3.06.4-1.04-.39-2.11-.53-3.1-1.06-.51-.27-.82-.71-1.15-1.18-.33-.47-.64-.97-.88-1.5-.22-.47-.92-.13-.81.34h0Z"/>
      </g>
      <g>
        <path class="cls-15" d="m33.57,82.08c2.38,2.46,5.64,4.09,8.77,5.39,3.51,1.46,7.16,2.65,10.87,3.47,7.5,1.65,15.5,1.8,23.07.44.58-.1.84.75.25.9-4.75,1.23-9.48,1.9-14.4,1.87-5.93-.03-12.17-.87-17.91-2.83,1.81,4.11,7.74,4.63,11.93,4.92,5.65.39,11.45,0,16.96-1.35.81-.2,1.13,1,.34,1.24-5.84,1.77-11.82,2.52-17.88,2.04,1.1.77,2.22,1.47,3.48,2.02,1.78.77,3.68,1.29,5.58,1.66,3.78.73,7.63.81,11.46.97,4.49.19,8.99.25,13.48.17,4.48-.08,8.98-.28,13.45-.7,2.34-.22,4.67-.56,7-.89,2.22-.32,4.51-.41,6.71-.86.59-.12.7.73.11.81-1.49.2-2.95.64-4.43.89-1.19.2-2.41.33-3.61.47-2.61.32-5.24.59-7.85.88-9.31,1.05-18.73,1.63-28.1,1.36-.23,0-.47-.01-.71-.02-.02.06-.05.11-.08.17-.91,1.49-.51,3.27.65,4.52,1.31,1.41,3.35,1.88,5.17,2.25,4.64.93,9.47,1.1,14.19,1.08,9.64-.05,19.12-1.96,28.73-2.34.43-.02.51.64.1.74-4.68,1.13-9.42,1.75-14.21,2.29-7.87.89-15.9,1.31-23.83.88-.06.18-.17.36-.36.5-1.26.92-.89,2.96-.14,4.09,1.05,1.6,2.96,2.38,4.68,3.02,4.02,1.48,8.26,2.3,12.53,2.45,8.75.29,17.32-1.68,25.84-3.38.61-.12.87.77.26.94-4.39,1.21-8.8,2.3-13.29,3.08-7.51,1.31-15.45,1.95-22.93.16-1.8-.43-3.77-.99-5.52-1.87-.07.1-.13.2-.19.3-.56.9-.46,2.09.1,2.97,1.46,2.3,5.17,2.59,7.59,2.93,6.15.87,12.8.18,18.67-1.79.91-.31,1.3,1.14.39,1.43-3.29,1.07-6.72,1.93-10.18,2.17-3.37.24-6.84.11-10.18-.37-1.3-.19-2.75-.41-4.11-.85-.78,1.69-.52,3.73.85,5.13,1.94,1.98,5.13,2.18,7.73,2.37,3.13.23,6.27.12,9.41-.05,1.53-.08,3.06-.19,4.59-.33.77-.07,1.53-.18,2.29-.26.77-.09,1.52,0,2.29-.07.5-.05.48.71,0,.78-1.09.14-2.1.41-3.2.5-.92.08-1.83.19-2.75.28-1.83.19-3.67.36-5.51.45-3.5.17-7.09.2-10.57-.32-1.89-.29-3.97-.91-5.47-2.18-.08.06-.17.12-.28.16-1.9.62-3.38,2.47-3.86,4.36-.54,2.15.13,4.36,1.62,5.97,3.22,3.47,8.63,2.87,12.86,2.38.75-.09.91,1.17.18,1.31-2.92.53-5.89.96-8.82.29-2.26-.52-4.46-1.69-5.87-3.56-.07-.09-.12-.19-.19-.28-.52.45-1.14.8-1.64,1.28-.53.52-.97,1.12-1.3,1.78-.74,1.47-.85,3.16-.4,4.74.49,1.73,1.52,3.13,3.05,4.08,1.48.92,3.28,1.63,5.04,1.63.33,0,.32.48,0,.51-2.12.18-4.14-.06-5.93-1.3-1.19-.82-2.2-1.96-2.9-3.24-.84,2.42-.53,5.19.96,7.29,1.66,2.35,4.68,3.55,7.51,3.26.75-.08.91,1.2.18,1.31-1.74.25-3.37.11-4.99-.61-1.4-.63-2.64-1.49-3.64-2.64-.52,1.32-.77,2.65-.6,4.12.18,1.63.86,3.22,1.88,4.5,2.04,2.56,5.98,3.46,9.04,2.58.94-.27,1.31,1.15.4,1.45-2.4.8-4.92.61-7.14-.35.02.09.04.19.06.26.17.53.4,1.04.67,1.52.52.93,1.24,1.8,2.09,2.44,1.97,1.49,4.62,1.79,6.92.97.43-.15.92.17,1.04.59.13.47-.17.87-.59,1.04-.97.39-2.01.59-3.06.62.11.17.21.34.33.5.32.47.64.91,1.15,1.18.99.53,2.06.67,3.1,1.06.92.34,2.37.51,3.06-.4.83-1.1-1.14-1.93-1.87-2.22,0,0,0,0,0,0-.36.5-.83.87-1.46,1.08-.58.19-.84-.62-.39-.93,1.07-.73,1.31-2.24.93-3.4-.46-1.4-1.67-2.26-2.75-3.17-1.63,1.75-4,2.59-6.39,1.98-.71-.18-.39-1.16.29-1.07,1.93.27,4.28-.71,5.26-2.43.51-.9.67-1.93.63-2.96-.02-.52-.13-1.02-.3-1.51-.04-.1-.08-.2-.13-.29-.34.38-.75.7-1.17.97-1.99,1.25-4.37.96-6.54.5-.55-.12-.31-.92.23-.83,1.77.27,3.89.19,5.41-.86.62-.43,1.11-1.08,1.4-1.77.04-.11.08-.22.11-.34-.48.29-.98.54-1.48.73-2.84,1.08-6.08.72-8.47-1.18-.54-.43.16-1.28.73-.94,2.07,1.23,4.66,1.48,6.92.67,1.06-.38,2.09-1.1,2.78-2.01.62-.81,1.14-1.86,1.04-2.9-.38.13-.76.26-1.14.37-1.7.53-3.37.51-5.12.2-1.79-.32-3.22-1.21-4.8-2.03-.27-.14-.08-.57.21-.49,1.36.41,2.88.58,4.29.77,1.38.18,2.73.25,4.12.22,1.41-.03,2.71-.32,3.89-1.12.57-.39.99-.78,1.29-1.41.23-.47.28-.87.27-1.33-3.22.56-6.49-.21-9.51-1.38-.6-.23-.37-1.18.27-.98,3.06.96,6.52,1.69,9.69.86,1.32-.35,2.59-.95,3.64-1.83.48-.4.88-.86,1.3-1.32.24-.26.46-.57.7-.84-.11.02-.22.05-.32.08-2.83.62-5.7,1.14-8.61.82-2.89-.32-5.43-1.21-7.95-2.64-.28-.16-.09-.64.22-.53,4.4,1.55,9.56,2.29,14.21,1.76,2.38-.27,5.06-1.13,6.98-2.58,1-.75,1.77-1.72,2.14-2.92.19-.63.07-1.29.05-1.91-.06.01-.13.02-.19.03-2.62.43-5.34.72-7.99.62-2.6-.1-5.11-.66-7.67-1.06-.3-.05-.22-.56.07-.52,2.38.32,4.76.17,7.15.04,2.39-.13,4.77-.26,7.14-.65,3.1-.51,6.19-1.39,8.31-3.69-2.77.58-5.57,1-8.38,1.27-1.87.18-3.77.33-5.65.27-1.9-.06-3.76-.36-5.66-.53-.34-.03-.35-.55,0-.53,3.29.16,6.71-.18,10-.44,3.42-.27,6.79-.84,10.11-1.68,3.25-.82,6.49-1.85,9.57-3.18,2.51-1.08,5.18-2.79,5.93-5.52-.35.1-.69.21-1.04.3-6.35,1.77-12.98,2.89-19.58,2.72-.78-.02-.76-1.13,0-1.2,5.86-.53,11.7-1.28,17.41-2.76,2.77-.72,5.51-1.59,8.19-2.6,2.14-.81,5.15-1.76,5.8-4.17-4.94,1.96-10.11,3.18-15.44,3.29-.77.02-.73-1.09,0-1.18,4.7-.53,9.39-1.53,13.81-3.22,2.45-.93,11.03-4,8.91-7.92-1.76.56-3.57,1-5.36,1.38-5.14,1.08-10.32,1.92-15.53,2.57-10.64,1.34-21.35,1.85-32.06,1.28-.98-.05-.99-1.52,0-1.53,5.59-.04,11.17-.24,16.75-.61,9.89-.66,19.72-1.83,29.45-3.73,4.2-.82,8.73-1.81,12.18-4.52,1.57-1.23,2.91-2.82,3.82-4.6.81-1.58,1.49-3.78,1.2-5.56-.01-.07,0-.12,0-.19-8.98,3.61-18.6,5.73-28.13,7.18-10.24,1.55-20.56,2.34-30.9,2.68-.87.03-.83-1.24,0-1.33,5.37-.55,10.74-1.03,16.12-1.52,9.6-.87,19.19-2.13,28.55-4.5,4.63-1.17,9.19-2.6,13.62-4.42,3.32-1.37,8.18-4.04,7.18-8.28-14.91,6.52-31.3,9.85-47.58,9.27-.41-.01-.41-.63,0-.64,4.47-.09,8.95-.4,13.38-.95,7.94-.97,15.79-2.99,23.33-5.66,3.79-1.34,7.5-2.88,11.1-4.66,2.22-1.1,5.29-2.75,5.63-5.44-1.17.57-2.37,1.07-3.58,1.55-3.67,1.46-7.42,2.74-11.19,3.93-7.82,2.45-15.79,4.41-23.85,5.89-7.94,1.46-15.97,2.47-24.02,3.09-8.1.62-16.31,1.08-24.41.41-.79-.07-.8-1.2,0-1.24,8.65-.48,17.31-.47,25.95-1.2,15.23-1.29,30.38-4.01,44.96-8.62,3.63-1.15,7.22-2.41,10.77-3.79,3.09-1.2,6.24-2.54,8.84-4.62,2.36-1.89,4.12-4.34,4.62-7.36.39-2.39-.1-4.85-1.72-6.62-2.28,2.85-5.25,5.24-8.3,6.96-3.96,2.23-8.29,3.65-12.62,4.99-4.76,1.47-9.56,2.77-14.42,3.88-19.12,4.34-38.76,6.3-58.33,7.14-1.04.04-1-1.5,0-1.6,10.34-.99,20.68-1.79,30.99-3.04,9.15-1.11,18.24-2.46,27.23-4.55,4.49-1.04,8.94-2.23,13.34-3.62,4.08-1.28,8.16-2.75,11.92-4.8,6.71-3.66,12.67-10.32,11.38-18.51-.25-1.56-.72-3-1.37-4.34.01.19.05.38.05.58-.01,1.38-.37,2.7-.99,3.94-1.47,2.96-4.31,5.14-7.06,6.82-3.99,2.45-8.45,4.16-12.9,5.57-12.7,4.03-26.18,5.75-39.43,6.56-15.37.94-30.87.49-46.13-1.59-11.25-1.54-22.97-3.8-33.21-8.94-4.11-2.06-9.37-5.51-10.64-10.21-1.08,3.01-1.61,6.17-1.24,9.31.64,5.33,4,10.05,8.07,13.37,4.83,3.93,10.92,5.96,16.96,7.09,6.79,1.27,13.78,1.7,20.68,1.89,7.12.2,14.19-.12,21.27-.89.91-.1.9,1.32,0,1.42-8.57.96-17.28,1.32-25.9,1.02-7.05-.24-14.24-.76-21.11-2.4-4.52-1.08-8.88-2.77-12.66-5.41-1.57,3.21-.6,7.29,1.87,9.84Zm24.4,4.27c4.78.5,9.58.83,14.38,1.09,8.55.47,17.12.49,25.67-.01,4.2-.25,8.39-.62,12.56-1.12,4.2-.5,8.47-1.53,12.7-1.6.77-.01.84,1.05.17,1.28-2.38.83-4.91,1.13-7.39,1.48-2.28.32-4.56.61-6.85.86-17.1,1.87-34.39,1.74-51.4-.9-.62-.1-.47-1.15.15-1.09Z"/>
        <path class="cls-15" d="m30.04,40.25c-.73.85-1.38,1.94-1.66,2.95-.27.97-.28,1.93-.02,2.89.28,1.02.91,2.11,1.63,2.96.99,1.16,2.16,2.16,3.41,3.02,3.43,2.38,7.33,4.04,11.26,5.41,11.6,4.06,24,5.9,36.21,6.9,14.85,1.22,29.87,1.09,44.68-.48,11.6-1.23,23.48-3.25,34.35-7.64,3.44-1.39,6.97-3.1,9.78-5.57,1.08-.95,1.94-1.87,2.62-3.07.54-.95.83-1.92.84-2.95-.01-1.02-.28-1.96-.8-2.89-1.42-2.55-4.1-4.44-6.69-5.92-3.97-2.28-8.31-3.87-12.67-5.18-12.3-3.71-25.23-5.35-38.02-6.09-14.7-.86-29.54-.47-44.15,1.45-10.88,1.43-22.26,3.54-32.24,8.3-3.1,1.48-6.26,3.27-8.53,5.91Z"/>
        <g>
          <path class="cls-11" d="m90.36,164.49c-.38.13-.76.26-1.14.37-.66.2-1.32.31-1.98.36.24,1.6-.14,3.18-1.25,4.33.19-.05.38-.1.56-.17,1.06-.38,2.09-1.1,2.78-2.01.62-.81,1.14-1.86,1.04-2.9Z"/>
          <path class="cls-11" d="m88.75,170.45c.04-.11.08-.22.11-.34-.48.29-.98.54-1.48.73-.25.1-.51.17-.77.24.26.37.48.78.62,1.2.04-.02.08-.04.12-.07.62-.43,1.11-1.08,1.4-1.77Z"/>
          <path class="cls-11" d="m93.11,161.01c.23-.47.28-.87.27-1.33-1,.18-2.01.21-3.02.15-.53,1.73-1.66,3.2-3.39,3.69.32,0,.63.02.96.01,1.41-.03,2.71-.32,3.89-1.12.57-.39.99-.78,1.29-1.41Z"/>
          <path class="cls-11" d="m104,151.09c1-.75,1.77-1.72,2.14-2.92.19-.63.07-1.29.05-1.91-.06.01-.13.02-.19.03-.72.12-1.45.22-2.19.31-.04,1.01-.46,1.97-1.11,2.79-.83,1.04-1.96,1.8-3.11,2.47-1.22.72-2.49,1.35-3.8,1.9.41-.03.82-.05,1.22-.1,2.38-.27,5.06-1.13,6.98-2.58Z"/>
          <path class="cls-11" d="m124.56,130.03c.39-.09.78-.18,1.16-.28,2.77-.72,5.51-1.59,8.19-2.6,2.14-.81,5.15-1.76,5.8-4.17-2.42.96-4.89,1.74-7.41,2.3-2.55,1.64-5.09,3.33-7.75,4.76Z"/>
          <path class="cls-11" d="m89.54,172.74c-.04-.1-.08-.2-.13-.29-.34.38-.75.7-1.17.97-.27.17-.55.31-.83.42-.04.34-.11.68-.28.99.3.57.61,1.13.92,1.7.28.13.44.45.42.77.1.18.2.36.29.54.17-.2.32-.4.44-.62.51-.9.67-1.93.63-2.96-.02-.52-.13-1.02-.3-1.51Z"/>
          <path class="cls-11" d="m167.81,68.55c-.48.27-.97.53-1.46.78,1.17.07,2.35.38,3.13,1.24,1.05,1.15,1.04,3,.33,4.39-.71,1.39-1.97,2.42-3.26,3.29-1.11.76-2.28,1.46-3.28,2.35.36-.14.73-.26,1.1-.41,3.09-1.2,6.24-2.54,8.84-4.62,2.36-1.89,4.12-4.34,4.62-7.36.39-2.39-.1-4.85-1.72-6.62-2.28,2.85-5.25,5.24-8.3,6.96Z"/>
          <path class="cls-11" d="m165.17,58.73c2.27.66,2.92,3.83,1.81,5.92-.98,1.85-2.81,3.03-4.66,4.05,1.22-.54,2.43-1.11,3.6-1.75,6.71-3.66,12.67-10.32,11.38-18.51-.25-1.56-.72-3-1.37-4.34.01.19.05.38.05.58-.01,1.38-.37,2.7-.99,3.94-1.47,2.96-4.31,5.14-7.06,6.82-2.55,1.56-5.28,2.82-8.08,3.9.82-.16,1.63-.31,2.42-.48.96-.2,1.96-.4,2.9-.13Z"/>
          <path class="cls-11" d="m169.73,80.18c-1.17.57-2.37,1.07-3.58,1.55-.04.02-.08.03-.13.05.24.23.4.53.4.86,0,.76-.76,1.26-1.43,1.62-3.07,1.67-6.15,3.33-9.22,5,2.83-1.09,5.61-2.29,8.33-3.64,2.22-1.1,5.29-2.75,5.63-5.44Z"/>
          <path class="cls-11" d="m157.45,98.44c-1.28.51-2.57.99-3.87,1.45.14.84.07,1.86.04,2.56-.06,1.24-.67,2.39-1.35,3.43-1.55,2.36-3.59,4.39-5.94,5.97,2.19-.7,4.29-1.64,6.09-3.06,1.57-1.23,2.91-2.82,3.82-4.6.81-1.58,1.49-3.78,1.2-5.56-.01-.07,0-.12,0-.19Z"/>
          <path class="cls-11" d="m98.76,155.01c.24-.26.46-.57.7-.84-.11.02-.22.05-.32.08-1.94.42-3.89.8-5.86.89.35.71.31,1.33-.12,2.11-.3.55-.8.98-1.37,1.23.68-.05,1.36-.14,2.03-.32,1.32-.35,2.59-.95,3.64-1.83.48-.4.88-.86,1.3-1.32Z"/>
          <path class="cls-11" d="m106.97,142.04c.37.31.49.87.23,1.32-.36.61-1.05.93-1.7,1.21,0,0,0,0,0,0,2.83-.53,5.59-1.44,7.53-3.55-2,.42-4.02.75-6.05,1.01Z"/>
          <path class="cls-11" d="m163.88,88.25c-3.05,1.33-6.15,2.52-9.31,3.58.18,0,.35,0,.49,0,1,.02,2.15.5,2.33,1.48.1.53-.12,1.06-.37,1.53-.49.89-1.16,1.68-1.95,2.32.54-.21,1.09-.41,1.63-.63,3.32-1.37,8.18-4.04,7.18-8.28Z"/>
          <path class="cls-11" d="m146.99,113.94c-1.76.56-3.57,1-5.36,1.38-1.33.28-2.65.54-3.98.79,1.02,1.06,1.32,2.88.65,4.22-.41.82-1.02,1.49-1.72,2.08.51-.17,1.01-.35,1.51-.54,2.45-.93,11.03-4,8.91-7.92Z"/>
          <path class="cls-11" d="m95.63,187.32c.71-1.06-1.2-1.87-1.91-2.15,0,0,0,0,0,0-.11.16-.24.29-.37.42.16.18.31.37.49.53.52.49,1.14.91,1.8,1.2Z"/>
          <path class="cls-11" d="m123.01,136.2c2.51-1.08,5.18-2.79,5.93-5.52-.35.1-.69.21-1.04.3-2.17.61-4.38,1.13-6.6,1.56.28.2.52.42.63.58.3.49.12,1.16-.26,1.59s-.92.68-1.45.92c-3.28,1.48-6.55,2.96-9.83,4.44,1.02-.21,2.05-.43,3.06-.68,3.25-.82,6.49-1.85,9.57-3.18Z"/>
          <path class="cls-11" d="m92.55,184.58c.47-.78.53-1.81.25-2.67-.46-1.4-1.67-2.26-2.75-3.17-.16.18-.34.34-.52.49.49.9.98,1.79,1.46,2.7.48.9.98,1.81,1.56,2.65Z"/>
        </g>
        <path class="cls-11" d="m172.3,47.64c.54-.95.83-1.92.84-2.95-.01-1.02-.28-1.96-.8-2.89-1.42-2.55-4.1-4.44-6.69-5.92-1-.57-2.02-1.1-3.06-1.59,2.44,6.41-.51,14.01-5.52,18.79-3.94,3.76-8.89,6.17-13.99,8.19,5.75-1.2,11.4-2.8,16.81-4.99,3.44-1.39,6.97-3.1,9.78-5.57,1.08-.95,1.94-1.87,2.62-3.07Z"/>
        <path class="cls-11" d="m29.99,49.05c.99,1.16,2.16,2.16,3.41,3.02,2.88,2,6.1,3.49,9.38,4.73-1.97-3.97-1.86-8.95.4-12.78-2.72,1.92-5.43,3.85-8.15,5.77,4.24-8.65,11.13-15.9,19.39-20.86-5.48,1.3-10.84,3.03-15.85,5.42-3.1,1.48-6.26,3.27-8.53,5.91-.73.85-1.38,1.94-1.66,2.95-.27.97-.28,1.93-.02,2.89.28,1.02.91,2.11,1.63,2.96Z"/>
        <g>
          <path class="cls-11" d="m83.13,147.06c.97,1.04,2.13,1.71,3.4,2.13-.82-2.35-.47-5.1.99-7.12,1.04-1.45,2.75-2.64,4.57-3.21-.32-.04-.65-.06-.96-.11-1.89-.29-3.97-.91-5.47-2.18-.08.06-.17.12-.28.16-1.9.62-3.38,2.47-3.86,4.36-.54,2.15.13,4.36,1.62,5.97Z"/>
          <path class="cls-11" d="m92.51,137.59c-1.03-.44-1.99-.98-2.79-1.76-1.21-1.18-2.04-3.37-1.64-5.04-.7-.13-1.4-.3-2.09-.52-.78,1.69-.52,3.73.85,5.13,1.45,1.48,3.59,1.96,5.66,2.19Z"/>
          <path class="cls-11" d="m79.65,148.48c-.53.52-.97,1.12-1.3,1.78-.74,1.47-.85,3.16-.4,4.74.36,1.26,1.01,2.35,1.93,3.21-.38-1.13-.55-2.32-.4-3.49.2-1.67,1.06-3.29,2.44-4.25.58-.4,1.28-.68,2-.82-.94-.58-1.78-1.29-2.45-2.17-.07-.09-.12-.19-.19-.28-.52.45-1.14.8-1.64,1.28Z"/>
          <path class="cls-11" d="m82.47,115.01c-1.26.92-.89,2.96-.14,4.09,1.05,1.6,2.96,2.38,4.68,3.02,1.42.52,2.87.96,4.33,1.32-.9-1.36-1.3-3.06-1-4.67.39-2.09,1.21-3.44,3.08-4.16-3.54.11-7.08.1-10.6-.09-.06.18-.17.36-.36.5Z"/>
          <path class="cls-11" d="m73.81,102.72c-2.73-.82-5.44-1.71-8.12-2.68-.66-.24-1.33-.49-1.84-.97-.27-.26-.72-.58-1.05-.92-2.4.19-4.81.2-7.24.01,1.1.77,2.22,1.47,3.48,2.02,1.78.77,3.68,1.29,5.58,1.66,3.03.59,6.12.75,9.2.88Z"/>
          <path class="cls-11" d="m86.35,182.46c-.44-.76-1.17-1.22-1.97-1.61-.24-.03-.48-.07-.73-.13-.25-.06-.37-.23-.39-.41-.23-.11-.45-.22-.67-.34-.62-.35-1.16-.88-1.47-1.46.12.3.26.59.42.87.52.93,1.24,1.8,2.09,2.44.88.67,1.9,1.09,2.96,1.28-.06-.22-.14-.44-.25-.64Z"/>
          <path class="cls-11" d="m83.9,123.49c-.07.1-.13.2-.19.3-.56.9-.46,2.09.1,2.97.93,1.47,2.8,2.12,4.65,2.48.06-1.42.81-2.85,1.92-3.67-.32-.07-.65-.13-.97-.21-1.8-.43-3.77-.99-5.52-1.87Z"/>
          <path class="cls-11" d="m80.55,175.6c-1.56-2.07-2.71-4.44-3.36-6.95-.16-.6-.28-1.23-.18-1.84.08-.44.34-.8.71-1.04-.16-.16-.33-.32-.49-.5-.52,1.32-.77,2.65-.6,4.12.18,1.63.86,3.22,1.88,4.5.55.7,1.26,1.26,2.03,1.7Z"/>
          <path class="cls-11" d="m77.85,111.86c1.75.35,3.53.6,5.32.76-2.84-1.41-5.44-4.49-5.61-7.62-1.58,0-3.16-.01-4.74-.06-.23,0-.47-.01-.71-.02-.02.06-.05.11-.08.17-.91,1.49-.51,3.27.65,4.52,1.31,1.41,3.35,1.88,5.17,2.25Z"/>
          <path class="cls-11" d="m80.88,177.61s-.04-.01-.06-.02c.02.09.04.19.06.26,0,.01,0,.02.01.04-.02-.09-.01-.19-.02-.28Z"/>
          <path class="cls-11" d="m77.58,162.98c.05-.39.15-.77.32-1.12.47-.97,1.04-1.81,1.96-2.13-1.08-.8-2.01-1.86-2.66-3.05-.71,2.05-.59,4.36.38,6.3Z"/>
          <path class="cls-11" d="m32.46,69.51c2.6,2.12,5.58,3.68,8.71,4.85-.38-2.31.43-4.79,1.99-6.57,1.87-2.13,4.63-3.33,7.43-3.75,1.35-.21,2.81-.45,4.27-.6-6.45-1.46-12.77-3.45-18.61-6.39-4.11-2.06-9.37-5.51-10.64-10.21-1.08,3.01-1.61,6.17-1.24,9.31.64,5.33,4,10.05,8.07,13.37Z"/>
          <path class="cls-11" d="m58.26,96.34c-1.49-.35-2.97-.73-4.43-1.14-1.2-.34-2.43-.72-3.4-1.51-.36-.3-.67-.59-.9-.91-1.8-.4-3.59-.87-5.32-1.47,1.81,4.11,7.74,4.63,11.93,4.92.71.05,1.42.09,2.13.11Z"/>
          <path class="cls-11" d="m38.73,84.83c-1.17-1.66-2.01-3.69-1.69-5.7.2-1.29,1.16-2.37,2.36-2.96-2.73-.99-5.33-2.28-7.71-3.93-1.57,3.21-.6,7.29,1.87,9.84,1.83,1.89,4.17,3.29,6.58,4.42-.51-.52-.99-1.07-1.41-1.67Z"/>
        </g>
      </g>
      <g>
        <path class="cls-16" d="m164.52,97.24c2.5-.01,5.42-.37,7.63,1.23,1.64,1.7-.82,3.6-2.19,4.4-7.17,3.99-15.12,5.65-23.05,7.13-3.95.67-7.93,1.16-11.95,1.34,7.7-2.12,15.46-3.84,23.1-6.05,3.74-1.07,7.59-2.2,11.07-3.88.82-.42,1.69-.95,2.09-1.5.95-1.53-5.57-2.43-6.7-2.68h0Z"/>
        <path class="cls-13" d="m143.97,126c2.47.37,5.41.46,7.35,2.39,1.36,1.93-1.36,3.43-2.84,4.01-7.7,2.84-15.81,3.27-23.87,3.51-4.01.06-8.02-.07-12.01-.5,7.93-.91,15.86-1.43,23.75-2.44,3.86-.49,7.84-1.01,11.54-2.14.87-.29,1.82-.68,2.3-1.16,1.17-1.37-5.13-3.25-6.21-3.67h0Z"/>
        <path class="cls-13" d="m175.28,80.27c2.49-.19,5.38-.75,7.69.7,1.75,1.58-.57,3.65-1.88,4.54-6.88,4.48-14.69,6.7-22.5,8.73-3.9.95-7.83,1.71-11.82,2.18,7.53-2.65,15.15-4.91,22.62-7.65,3.66-1.33,7.42-2.73,10.77-4.65.79-.47,1.62-1.07,1.98-1.64.84-1.59-5.72-2.03-6.87-2.2h0Z"/>
        <path class="cls-16" d="m116.81,144.16c1.46-.05,2.89-.03,4.39.32.48.12,1.42.44,1.48,1.24.03.56-.42,1-.75,1.23-3.31,1.84-7.11,2.15-10.71,2.72-2.87.33-5.75.54-8.63.57-2.88.05-5.76-.04-8.65-.38,4.9-.97,12.01-1.7,17.02-2.33,3.43-.51,7.25-.61,10.43-1.88-.01-.02.02.29.06.24-1.2-.96-3.1-1.2-4.65-1.73h0Z"/>
        <path class="cls-16" d="m95.11,166c1.46-.05,2.89-.02,4.39.32.48.12,1.42.45,1.48,1.24.03.56-.42,1-.75,1.22-3.31,1.84-7.11,2.15-10.71,2.71-2.87.32-5.75.53-8.63.56-2.88.04-5.76-.04-8.64-.39,4.9-.96,12.01-1.69,17.02-2.32,3.43-.51,7.25-.61,10.44-1.87-.01-.02.02.29.06.24-1.2-.96-3.1-1.21-4.65-1.73h0Z"/>
        <path class="cls-13" d="m97.23,176.26c1.4-.41,2.79-.73,4.34-.77.49,0,1.48.08,1.74.84.17.53-.16,1.07-.43,1.37-2.76,2.6-6.36,3.83-9.72,5.26-2.7,1.02-5.44,1.93-8.23,2.67-2.78.75-5.6,1.38-8.48,1.75,4.51-2.14,11.22-4.59,15.93-6.43,3.2-1.33,6.88-2.37,9.66-4.38-.02-.02.09.28.12.22-1.4-.64-3.3-.41-4.93-.53h0Z"/>
        <path class="cls-16" d="m179.52,41.37c25.58-2.42,18.56,8.34,1.54,16.68-18.82,9.22-39.45,14.49-60.19,16.95,20.26-4.5,40.48-9.89,59.28-18.77,3.72-1.79,7.37-3.77,10.66-6.16,1.59-1.2,3.24-2.58,4-4.19,1.9-4.63-12.5-4.36-15.29-4.5h0Z"/>
        <path class="cls-16" d="m46.43,97.9c-2.46.4-5.4.53-7.32,2.47-1.34,1.95,1.4,3.41,2.89,3.98,7.73,2.75,15.84,3.08,23.91,3.23,4.01.01,8.02-.17,12-.64-7.94-.82-15.88-1.24-23.78-2.16-3.87-.44-7.85-.92-11.56-2.01-.88-.28-1.83-.66-2.31-1.13-1.21-1.33,5.11-3.33,6.17-3.74h0Z"/>
        <path class="cls-13" d="m64.64,111c-2.47.34-5.41.4-7.37,2.31-1.38,1.92,1.32,3.44,2.8,4.04,7.67,2.93,15.77,3.44,23.83,3.77,4.01.1,8.02.02,12.02-.37-7.92-1-15.85-1.6-23.73-2.7-3.86-.53-7.82-1.1-11.51-2.27-.87-.3-1.81-.7-2.28-1.18-1.15-1.38,5.17-3.2,6.25-3.6h0Z"/>
        <path class="cls-16" d="m73.54,124.94c-2.47.34-5.41.4-7.38,2.3-1.38,1.92,1.32,3.45,2.79,4.04,7.67,2.93,15.77,3.46,23.83,3.8,4.01.11,8.02.02,12.02-.36-7.92-1.01-15.84-1.61-23.72-2.72-3.86-.53-7.82-1.11-11.51-2.28-.87-.3-1.81-.71-2.28-1.19-1.15-1.38,5.17-3.19,6.25-3.6h0Z"/>
        <path class="cls-13" d="m73.73,149.3c-1.96-.1-4.24-.49-6.04.68-1.35,1.27.51,2.86,1.56,3.54,5.49,3.4,11.66,5,17.84,6.46,3.08.68,6.19,1.21,9.33,1.5-5.97-1.95-12-3.59-17.92-5.61-2.9-.98-5.88-2.01-8.55-3.46-.63-.36-1.29-.81-1.59-1.25-.69-1.24,4.46-1.7,5.36-1.85h0Z"/>
        <path class="cls-16" d="m19.97,59.72c-25.69.53-17.48,10.42.39,16.75,19.75,7,40.85,9.87,61.73,9.93-20.65-2.14-41.35-5.18-61.05-11.85-3.9-1.35-7.75-2.9-11.29-4.9-1.72-1.01-3.51-2.19-4.46-3.71-2.42-4.38,11.92-5.77,14.68-6.22h0Z"/>
      </g>
      <g>
        <path class="cls-13" d="m118.46,29.69c9.35-.21,22.23.02,30.02,5.77,9.56,8.56-5.77,16.93-12.94,19.45-20.28,7.45-44.91,9.57-66.2,5.99-6.4-1.27-19.06-4.07-19.77-12.07.22-10.34,20.93-14.4,29.03-15.58-3.49,1.12-6.95,2.3-10.31,3.68-31.34,13.22-6.54,19.29,12.5,19.99,14.28.49,28.81-.69,42.76-3.81,6.82-1.57,13.72-3.52,19.72-7.13,8.33-5.13,3.05-9.04-3.65-11.63-6.72-2.57-14.02-3.69-21.17-4.65h0Z"/>
        <path class="cls-13" d="m113.24,35.3c.23.06.47.11.7.18,2.16.67,4.18,1.38,5.84,3.22,2.19,2.38.93,5.66-1.31,7.29-6.76,5.19-21.52,6.3-29.06,2.8-2.88-1.44-3.05-4.35-.3-6.07,4.31-2.84,14.25-3.69,18.54-.73.99.83.48,2-.49,2.57-.4.28-.84.47-1.28.65.42-.23.84-.46,1.2-.77,1.53-1.21.65-2.27-.92-2.7-3.58-.94-7.51-.53-11.08.31-1.78.46-3.54,1.13-4.89,2.17-.66.49-1.14,1.17-1.06,1.49.11.52.74.9,1.27,1.15,1.54.71,3.44.96,5.17,1.12,5.44.41,11.14-.2,16.27-2.08,2.1-.87,4.76-1.96,5.64-3.94.23-1.01-1.12-1.73-2.1-2.2-4.13-1.68-8.75-2.01-13.28-2.1-7.31.03-14.93.99-21.71,3.68-17.77,7.7-1.72,12.6,8.51,13.78,14.91,1.66,30.57.56,44.79-4.54-10.37,5.11-22.03,7.13-33.5,7.74-8.7.16-21.61.06-28.79-5.44-3.37-2.66-3.28-7.09-.28-10,.71-.66,1.47-1.26,2.25-1.82-7.45,2.75-11.97,6.16-11.69,9.49.53,6.39,18.43,10.11,39.98,8.31,21.55-1.8,38.58-8.44,38.04-14.83-.42-4.99-11.42-8.35-26.48-8.73Z"/>
      </g>
      <g>
        <path class="cls-2" d="m59.26,31.46c14.41-5.99,30.65-7.93,46.06-5.46-15.55.18-30.91,1.99-46.06,5.46h0Z"/>
        <path class="cls-2" d="m83.52,30.32c8.78-3.07,18.64-3.35,27.57-.75-9.25.02-18.34.25-27.57.75h0Z"/>
        <path class="cls-2" d="m92.3,32.32c4.26-1.2,8.84-1.1,13.03.3-4.26,1.21-8.83,1.09-13.03-.3h0Z"/>
        <path class="cls-2" d="m67.43,69.74c15.72,1.27,32.11,1.55,47.91.9-15.73,3.27-32.31,2.95-47.91-.9h0Z"/>
        <path class="cls-2" d="m97.75,76.88c4.34-1.37,8.81-1.94,13.36-1.68-3.98,2.3-8.93,2.91-13.36,1.68h0Z"/>
        <path class="cls-2" d="m50.22,72.35c9.16.25,18.23,1.17,27.25,2.79-9.13.99-18.51.02-27.25-2.79h0Z"/>
        <path class="cls-2" d="m102.26,116.16c2.27-1.37,4.96-1.71,7.49-.9-2.05,1.74-5.09,2.1-7.49.9h0Z"/>
        <path class="cls-2" d="m99.16,122.19c6-.87,12.2-1.41,18.26-1.52-5.6,2.69-12.29,3.24-18.26,1.52h0Z"/>
        <path class="cls-2" d="m114.01,128.57c1.63-1.52,4.05-1.86,6.03-.83-1.63,1.52-4.05,1.85-6.03.83h0Z"/>
        <path class="cls-2" d="m90.85,143.35c3.38-.5,6.68-.28,9.95.7-3.08,1.64-7.12,1.34-9.95-.7h0Z"/>
      </g>
      <g>
        <path class="cls-13" d="m46.8,22.89c36.34-9.53,75.5-9.09,111.62,1.29-36.72-7.79-74.71-8.25-111.62-1.29h0Z"/>
        <path class="cls-13" d="m79.8,12.37c37.19-5.03,76.19.09,110.31,15.93-35.06-13.34-72.93-18.33-110.31-15.93h0Z"/>
        <path class="cls-11" d="m34.24,24.57c-8.68,3.08-15.9,9.69-19.05,18.39-1.06,2.85-1.72,5.86-2.02,8.99-2.07-12.81,8.16-26.09,21.07-27.39h0Z"/>
        <path class="cls-11" d="m22.97,83.73c2.14,4.83,6.04,8.57,10.91,10.49,1.6.63,3.3,1.04,5.13,1.27-7.3,2.18-15.92-4.14-16.05-11.76h0Z"/>
        <path class="cls-11" d="m189.5,60.16c3.21,4.8.54,12.49-4.96,14.25,3.57-3.94,5.32-8.94,4.96-14.25h0Z"/>
        <path class="cls-11" d="m159.29,112.55c.21,4.87-4.77,9.39-9.6,8.7,4.03-2.04,7.18-4.89,9.6-8.7h0Z"/>
        <path class="cls-11" d="m76.11,123.63c.92,1.76,1.19,3.35.88,5.31-2.08-.78-2.59-3.9-.88-5.31h0Z"/>
        <path class="cls-11" d="m76.44,136.94c-1.18,2.56-2.05,5.11-2.7,7.83-2.12-2.54-.52-7.13,2.7-7.83h0Z"/>
        <path class="cls-11" d="m109.48,155.42c.64,4.12-3.89,8.18-7.91,7.09,3.33-1.7,5.87-3.96,7.91-7.09h0Z"/>
        <path class="cls-11" d="m68.99,161.73c-2.9,5.71-1.82,12.8,2.64,17.4-6.67-2.49-8.26-13.04-2.64-17.4h0Z"/>
      </g>
      <path class="cls-15" d="m148.93,89.02c.17-.17.33-.34.48-.53,1.25-1.52,1.72-3.52,1.29-5.44-.32-1.41-1.99-2.61-2.03-3.9-.08-2.58-2.1-4.7-4.73-4.73-9.87-.12-19.65.71-29.4,2.24-5.52.86-11.02,1.86-16.54,2.54-.35-1.7-1.41-3.18-3.51-4.05-6.77-2.81-16.56-1.54-22.52,2.53-1.23.84-1.91,2.09-2.11,3.39-.12,0-.24,0-.36.01-2.89.1-5.79.19-8.68.29-5.4.18-6.33,7.6-1.26,9.29,4.31,1.44,8.39,2.27,12.93,2.54,1.82.11,2.9.85,4.58,1.48,2.08.78,4.22.77,6.42.74.64-.01,1.28-.02,1.92-.03.16.99.47,1.94.95,2.83-2.55-.96-5.23-1.67-7.68-2.24-2.64-.62-6.41,1.35-5.99,4.56.97,7.38,7.37,8.56,13.62,8.81.1.41.2.82.3,1.23.21.85.41,1.69.62,2.54.09,1.44.69,2.88,1.72,4.18,1.15,1.45,2.67,1.77,4.08,1.39.66,1.74,2.19,3.21,4.3,3.37,8.25.61,17.4.71,25.53-1.03.15-.03.29-.07.44-.1,2.68-.07,5.36-.25,8.02-.65,2.54-.38,3.9-3.56,3.3-5.82-.62-2.35-2.66-3.39-4.83-3.38-.45-1.44-1.37-2.7-2.64-3.58,3.84-.1,7.68-.24,11.52-.83,3.73-.58,7.63-.99,10.24-4.02,2.24-2.6,2.63-6.12,2.69-9.42.04-1.95-1.11-3.45-2.67-4.19Zm-21.56,9.1c.54-.08,1.08-.16,1.62-.25,2-.33,3.98-.76,5.98-1.09.15-.03.96-.09,1.59-.17.06.15.11.31.17.46.04.1.09.21.13.31-1.95.3-3.91.55-5.9.63-1.2.05-2.4.08-3.59.1Z"/>
    </g>
    <g>
      <path class="cls-3" d="m111.98,97.89c-2.51,0-4.54,1.78-4.54,3.99,0,.42.07.83.23,1.21.06-2.05,1.95-3.69,4.31-3.69s4.25,1.64,4.31,3.69c.16-.37.23-.79.23-1.21,0-2.21-2.02-3.99-4.54-3.99Z"/>
      <path class="cls-3" d="m82.79,83.79s1.11-2.06,3.82-3.51c2.3-1.23,4.97-1.5,7.54-1.04,1.63.3,3.55.9,4.83,2.13,0,0-.92-2.35-4.32-3.46-3.22-1.05-6.81-.46-9.33,1.8-1.06.95-2.03,2.27-2.55,4.08Z"/>
      <path class="cls-3" d="m141.16,83.79s-1.11-2.06-3.82-3.51c-2.3-1.23-4.97-1.5-7.54-1.04-1.63.3-3.55.9-4.83,2.13,0,0,.92-2.35,4.32-3.46,3.22-1.05,6.81-.46,9.33,1.8,1.06.95,2.03,2.27,2.55,4.08Z"/>
      <g>
        <g>
          <g>
            <path class="cls-2" d="m120.01,107.87c-.66-.92-2-1.13-2.99-.57-2.43,1.39-5.05,1.31-5.05,1.31,0,0-2.61.08-5.05-1.31-.98-.56-2.33-.36-2.99.57-.66.93-1.31,2.28-1.46,4.12-.12,1.47,1.16,2.69,2.61,2.43,1.57-.28,3.89-.55,6.88-.55s5.31.27,6.88.55c1.45.26,2.74-.96,2.61-2.43-.15-1.84-.8-3.2-1.46-4.12Z"/>
            <path class="cls-3" d="m118.21,106.99c.7,0,1.38.3,1.8.88.66.93,1.31,2.28,1.46,4.12.11,1.34-.94,2.46-2.23,2.46-.13,0-.26-.01-.39-.03-1.57-.28-3.89-.55-6.88-.55s-5.31.27-6.88.55c-.13.02-.26.03-.39.03-1.28,0-2.33-1.13-2.23-2.46.15-1.84.8-3.2,1.46-4.12.41-.58,1.1-.88,1.8-.88.41,0,.82.1,1.19.31,2.18,1.25,4.51,1.31,4.97,1.31.05,0,.08,0,.08,0,0,0,.03,0,.08,0,.45,0,2.78-.06,4.97-1.31.36-.21.78-.31,1.19-.31m0-.93c-.58,0-1.15.15-1.65.43-1.98,1.13-4.1,1.19-4.51,1.19h-.05s-.03,0-.03,0h-.03s-.05,0-.05,0c-.41,0-2.53-.06-4.51-1.19-.5-.28-1.07-.43-1.65-.43-1.03,0-1.98.47-2.55,1.27-.94,1.32-1.49,2.86-1.63,4.58-.07.9.23,1.79.84,2.44.6.65,1.44,1.02,2.31,1.02.18,0,.37-.02.55-.05,1.39-.25,3.69-.54,6.72-.54s5.33.29,6.72.54c.18.03.37.05.55.05.87,0,1.71-.37,2.31-1.02.61-.66.91-1.55.84-2.44-.14-1.72-.69-3.26-1.63-4.58-.57-.79-1.52-1.27-2.55-1.27h0Z"/>
          </g>
          <g class="cls-8">
            <g class="cls-5">
              <g>
                <line class="cls-6" x1="111.98" y1="105.93" x2="111.98" y2="115.88"/>
                <g>
                  <path class="cls-6" d="m109.48,105.4s-.99,6.38-1.32,10.48"/>
                  <path class="cls-6" d="m107.32,104.88s-2.51,4.73-3.23,11"/>
                </g>
                <g>
                  <path class="cls-6" d="m114.47,105.4s.99,6.38,1.32,10.48"/>
                  <path class="cls-6" d="m116.63,104.88s2.51,4.73,3.23,11"/>
                </g>
              </g>
            </g>
          </g>
        </g>
        <path class="cls-3" d="m111.98,116.1s-3.84-.09-5.39,1.67c0,0,1.57-.77,5.39-.77s5.39.77,5.39.77c-1.55-1.75-5.39-1.67-5.39-1.67Z"/>
      </g>
      <g>
        <g>
          <circle class="cls-2" cx="92.49" cy="94.91" r="11.99" transform="translate(-40.03 93.2) rotate(-45)"/>
          <path class="cls-3" d="m92.49,82.92c6.62,0,11.99,5.37,11.99,11.99s-5.37,11.99-11.99,11.99-11.99-5.37-11.99-11.99,5.37-11.99,11.99-11.99m0-1.11c-7.22,0-13.1,5.88-13.1,13.1s5.88,13.1,13.1,13.1,13.1-5.88,13.1-13.1-5.88-13.1-13.1-13.1h0Z"/>
          <g class="cls-4">
            <ellipse class="cls-3" cx="96.64" cy="95.24" rx="8.3" ry="9.59"/>
            <polygon class="cls-2" points="88.71 88.49 94.58 92.23 87.27 94.07 88.71 88.49"/>
          </g>
        </g>
        <path class="cls-11" d="m104.04,91.65l-20.53-4.68c2.2-2.48,5.4-4.04,8.98-4.04,5.49,0,10.12,3.69,11.55,8.73Z"/>
      </g>
      <g>
        <g>
          <circle class="cls-2" cx="131.46" cy="94.91" r="11.99" transform="translate(-28.61 120.76) rotate(-45)"/>
          <path class="cls-3" d="m131.46,82.92c6.62,0,11.99,5.37,11.99,11.99s-5.37,11.99-11.99,11.99-11.99-5.37-11.99-11.99,5.37-11.99,11.99-11.99m0-1.11c-7.22,0-13.1,5.88-13.1,13.1s5.88,13.1,13.1,13.1,13.1-5.88,13.1-13.1-5.88-13.1-13.1-13.1h0Z"/>
          <g class="cls-14">
            <ellipse class="cls-3" cx="127.31" cy="95.24" rx="8.3" ry="9.59"/>
            <polygon class="cls-2" points="135.24 88.49 129.37 92.23 136.68 94.07 135.24 88.49"/>
          </g>
        </g>
        <path class="cls-11" d="m119.91,91.65l20.53-4.68c-2.2-2.48-5.4-4.04-8.98-4.04-5.49,0-10.12,3.69-11.55,8.73Z"/>
      </g>
    </g>
  </g>
</svg>